<svg width="1000" height="300" xmlns="http://www.w3.org/2000/svg" xmlns:xlink="http://www.w3.org/1999/xlink" version="1.1" baseProfile="full" viewBox="0 0 1000 300">
<rect width="1000" height="300" x="0" y="0" id="0" fill="#ffffff"></rect>
<path d="M58.2 271.5L931.8 271.5" fill="none" stroke="#E0E6F1"></path>
<path d="M58.2 229.5L931.8 229.5" fill="none" stroke="#E0E6F1"></path>
<path d="M58.2 186.5L931.8 186.5" fill="none" stroke="#E0E6F1"></path>
<path d="M58.2 144.5L931.8 144.5" fill="none" stroke="#E0E6F1"></path>
<path d="M58.2 102.5L931.8 102.5" fill="none" stroke="#E0E6F1"></path>
<path d="M58.2 60.5L931.8 60.5" fill="none" stroke="#E0E6F1"></path>
<path d="M58.2 271.5L931.8 271.5" fill="none" stroke="#6E7079" stroke-linecap="round"></path>
<path d="M60.5 271L60.5 276" fill="none" stroke="#6E7079"></path>
<path d="M108.5 271L108.5 276" fill="none" stroke="#6E7079"></path>
<path d="M157.5 271L157.5 276" fill="none" stroke="#6E7079"></path>
<path d="M205.5 271L205.5 276" fill="none" stroke="#6E7079"></path>
<path d="M254.5 271L254.5 276" fill="none" stroke="#6E7079"></path>
<path d="M302.5 271L302.5 276" fill="none" stroke="#6E7079"></path>
<path d="M351.5 271L351.5 276" fill="none" stroke="#6E7079"></path>
<path d="M400.5 271L400.5 276" fill="none" stroke="#6E7079"></path>
<path d="M448.5 271L448.5 276" fill="none" stroke="#6E7079"></path>
<path d="M497.5 271L497.5 276" fill="none" stroke="#6E7079"></path>
<path d="M545.5 271L545.5 276" fill="none" stroke="#6E7079"></path>
<path d="M594.5 271L594.5 276" fill="none" stroke="#6E7079"></path>
<path d="M642.5 271L642.5 276" fill="none" stroke="#6E7079"></path>
<path d="M691.5 271L691.5 276" fill="none" stroke="#6E7079"></path>
<path d="M739.5 271L739.5 276" fill="none" stroke="#6E7079"></path>
<path d="M788.5 271L788.5 276" fill="none" stroke="#6E7079"></path>
<path d="M836.5 271L836.5 276" fill="none" stroke="#6E7079"></path>
<path d="M885.5 271L885.5 276" fill="none" stroke="#6E7079"></path>
<text dominant-baseline="central" text-anchor="end" style="font-size:12px;font-family:sans-serif;" transform="translate(50.16 271)" fill="#6E7079">0</text>
<text dominant-baseline="central" text-anchor="end" style="font-size:12px;font-family:sans-serif;" transform="translate(50.16 228.8)" fill="#6E7079">180</text>
<text dominant-baseline="central" text-anchor="end" style="font-size:12px;font-family:sans-serif;" transform="translate(50.16 186.6)" fill="#6E7079">360</text>
<text dominant-baseline="central" text-anchor="end" style="font-size:12px;font-family:sans-serif;" transform="translate(50.16 144.4)" fill="#6E7079">540</text>
<text dominant-baseline="central" text-anchor="end" style="font-size:12px;font-family:sans-serif;" transform="translate(50.16 102.2)" fill="#6E7079">720</text>
<text dominant-baseline="central" text-anchor="end" style="font-size:12px;font-family:sans-serif;" transform="translate(50.16 60)" fill="#6E7079">900</text>
<text dominant-baseline="central" text-anchor="start" style="font-size:12px;font-family:sans-serif;" transform="translate(939.84 271)" fill="#6E7079">0</text>
<text dominant-baseline="central" text-anchor="start" style="font-size:12px;font-family:sans-serif;" transform="translate(939.84 228.8)" fill="#6E7079">180</text>
<text dominant-baseline="central" text-anchor="start" style="font-size:12px;font-family:sans-serif;" transform="translate(939.84 186.6)" fill="#6E7079">360</text>
<text dominant-baseline="central" text-anchor="start" style="font-size:12px;font-family:sans-serif;" transform="translate(939.84 144.4)" fill="#6E7079">540</text>
<text dominant-baseline="central" text-anchor="start" style="font-size:12px;font-family:sans-serif;" transform="translate(939.84 102.2)" fill="#6E7079">720</text>
<text dominant-baseline="central" text-anchor="start" style="font-size:12px;font-family:sans-serif;" transform="translate(939.84 60)" fill="#6E7079">900</text>
<text dominant-baseline="central" text-anchor="middle" style="font-size:12px;font-family:sans-serif;" y="6" transform="translate(60.0268 279)" fill="#6E7079">1km</text>
<text dominant-baseline="central" text-anchor="middle" style="font-size:12px;font-family:sans-serif;" y="6" transform="translate(108.5646 279)" fill="#6E7079">14km</text>
<text dominant-baseline="central" text-anchor="middle" style="font-size:12px;font-family:sans-serif;" y="6" transform="translate(157.1024 279)" fill="#6E7079">27km</text>
<text dominant-baseline="central" text-anchor="middle" style="font-size:12px;font-family:sans-serif;" y="6" transform="translate(205.6402 279)" fill="#6E7079">40km</text>
<text dominant-baseline="central" text-anchor="middle" style="font-size:12px;font-family:sans-serif;" y="6" transform="translate(254.1779 279)" fill="#6E7079">53km</text>
<text dominant-baseline="central" text-anchor="middle" style="font-size:12px;font-family:sans-serif;" y="6" transform="translate(302.7157 279)" fill="#6E7079">66km</text>
<text dominant-baseline="central" text-anchor="middle" style="font-size:12px;font-family:sans-serif;" y="6" transform="translate(351.2535 279)" fill="#6E7079">79km</text>
<text dominant-baseline="central" text-anchor="middle" style="font-size:12px;font-family:sans-serif;" y="6" transform="translate(399.7913 279)" fill="#6E7079">92km</text>
<text dominant-baseline="central" text-anchor="middle" style="font-size:12px;font-family:sans-serif;" y="6" transform="translate(448.3291 279)" fill="#6E7079">105km</text>
<text dominant-baseline="central" text-anchor="middle" style="font-size:12px;font-family:sans-serif;" y="6" transform="translate(496.8668 279)" fill="#6E7079">118km</text>
<text dominant-baseline="central" text-anchor="middle" style="font-size:12px;font-family:sans-serif;" y="6" transform="translate(545.4046 279)" fill="#6E7079">131km</text>
<text dominant-baseline="central" text-anchor="middle" style="font-size:12px;font-family:sans-serif;" y="6" transform="translate(593.9424 279)" fill="#6E7079">144km</text>
<text dominant-baseline="central" text-anchor="middle" style="font-size:12px;font-family:sans-serif;" y="6" transform="translate(642.4802 279)" fill="#6E7079">157km</text>
<text dominant-baseline="central" text-anchor="middle" style="font-size:12px;font-family:sans-serif;" y="6" transform="translate(691.0179 279)" fill="#6E7079">170km</text>
<text dominant-baseline="central" text-anchor="middle" style="font-size:12px;font-family:sans-serif;" y="6" transform="translate(739.5557 279)" fill="#6E7079">183km</text>
<text dominant-baseline="central" text-anchor="middle" style="font-size:12px;font-family:sans-serif;" y="6" transform="translate(788.0935 279)" fill="#6E7079">196km</text>
<text dominant-baseline="central" text-anchor="middle" style="font-size:12px;font-family:sans-serif;" y="6" transform="translate(836.6313 279)" fill="#6E7079">209km</text>
<text dominant-baseline="central" text-anchor="middle" style="font-size:12px;font-family:sans-serif;" y="6" transform="translate(885.1691 279)" fill="#6E7079">222km</text>
<path d="M58.7 271l2.6 0l0 -210.1l-2.6 0Z" fill="rgb(227,73,2)" fill-opacity="0.3"></path>
<path d="M62.5 271l2.6 0l0 -210.1l-2.6 0Z" fill="rgb(227,73,2)" fill-opacity="0.3"></path>
<path d="M66.2 271l2.6 0l0 -209.6l-2.6 0Z" fill="rgb(227,73,2)" fill-opacity="0.3"></path>
<path d="M69.9 271l2.6 0l0 -209.4l-2.6 0Z" fill="rgb(227,73,2)" fill-opacity="0.3"></path>
<path d="M73.7 271l2.6 0l0 -208.2l-2.6 0Z" fill="rgb(227,73,2)" fill-opacity="0.3"></path>
<path d="M77.4 271l2.6 0l0 -208l-2.6 0Z" fill="rgb(227,73,2)" fill-opacity="0.3"></path>
<path d="M81.1 271l2.6 0l0 -206.5l-2.6 0Z" fill="rgb(227,73,2)" fill-opacity="0.3"></path>
<path d="M84.9 271l2.6 0l0 -205.4l-2.6 0Z" fill="rgb(227,73,2)" fill-opacity="0.3"></path>
<path d="M88.6 271l2.6 0l0 -204.2l-2.6 0Z" fill="rgb(227,73,2)" fill-opacity="0.3"></path>
<path d="M92.3 271l2.6 0l0 -203.3l-2.6 0Z" fill="rgb(227,73,2)" fill-opacity="0.3"></path>
<path d="M96.1 271l2.6 0l0 -201.9l-2.6 0Z" fill="rgb(227,73,2)" fill-opacity="0.3"></path>
<path d="M99.8 271l2.6 0l0 -200.9l-2.6 0Z" fill="rgb(227,73,2)" fill-opacity="0.3"></path>
<path d="M103.5 271l2.6 0l0 -199.7l-2.6 0Z" fill="rgb(227,73,2)" fill-opacity="0.3"></path>
<path d="M107.3 271l2.6 0l0 -197.6l-2.6 0Z" fill="rgb(227,73,2)" fill-opacity="0.3"></path>
<path d="M111 271l2.6 0l0 -194.8l-2.6 0Z" fill="rgb(227,73,2)" fill-opacity="0.3"></path>
<path d="M114.7 271l2.6 0l0 -185.4l-2.6 0Z" fill="rgb(227,73,2)" fill-opacity="0.3"></path>
<path d="M118.5 271l2.6 0l0 -171.6l-2.6 0Z" fill="rgb(227,73,2)" fill-opacity="0.3"></path>
<path d="M122.2 271l2.6 0l0 -144.7l-2.6 0Z" fill="rgb(227,73,2)" fill-opacity="0.3"></path>
<path d="M125.9 271l2.6 0l0 -133.4l-2.6 0Z" fill="rgb(227,73,2)" fill-opacity="0.3"></path>
<path d="M129.7 271l2.6 0l0 -128.7l-2.6 0Z" fill="rgb(227,73,2)" fill-opacity="0.3"></path>
<path d="M133.4 271l2.6 0l0 -125.7l-2.6 0Z" fill="rgb(227,73,2)" fill-opacity="0.3"></path>
<path d="M137.1 271l2.6 0l0 -122.6l-2.6 0Z" fill="rgb(227,73,2)" fill-opacity="0.3"></path>
<path d="M140.9 271l2.6 0l0 -120.3l-2.6 0Z" fill="rgb(227,73,2)" fill-opacity="0.3"></path>
<path d="M144.6 271l2.6 0l0 -118.4l-2.6 0Z" fill="rgb(227,73,2)" fill-opacity="0.3"></path>
<path d="M148.3 271l2.6 0l0 -113.9l-2.6 0Z" fill="rgb(227,73,2)" fill-opacity="0.3"></path>
<path d="M152.1 271l2.6 0l0 -109.3l-2.6 0Z" fill="rgb(227,73,2)" fill-opacity="0.3"></path>
<path d="M155.8 271l2.6 0l0 -106l-2.6 0Z" fill="rgb(227,73,2)" fill-opacity="0.3"></path>
<path d="M159.5 271l2.6 0l0 -102l-2.6 0Z" fill="rgb(227,73,2)" fill-opacity="0.3"></path>
<path d="M163.3 271l2.6 0l0 -96.8l-2.6 0Z" fill="rgb(227,73,2)" fill-opacity="0.3"></path>
<path d="M167 271l2.6 0l0 -93.8l-2.6 0Z" fill="rgb(227,73,2)" fill-opacity="0.3"></path>
<path d="M170.7 271l2.6 0l0 -87.7l-2.6 0Z" fill="rgb(227,73,2)" fill-opacity="0.3"></path>
<path d="M174.5 271l2.6 0l0 -80.2l-2.6 0Z" fill="rgb(227,73,2)" fill-opacity="0.3"></path>
<path d="M178.2 271l2.6 0l0 -76l-2.6 0Z" fill="rgb(227,73,2)" fill-opacity="0.3"></path>
<path d="M182 271l2.6 0l0 -72.7l-2.6 0Z" fill="rgb(227,73,2)" fill-opacity="0.3"></path>
<path d="M185.7 271l2.6 0l0 -70.6l-2.6 0Z" fill="rgb(227,73,2)" fill-opacity="0.3"></path>
<path d="M189.4 271l2.6 0l0 -67.5l-2.6 0Z" fill="rgb(227,73,2)" fill-opacity="0.3"></path>
<path d="M193.2 271l2.6 0l0 -66.3l-2.6 0Z" fill="rgb(227,73,2)" fill-opacity="0.3"></path>
<path d="M196.9 271l2.6 0l0 -64.7l-2.6 0Z" fill="rgb(227,73,2)" fill-opacity="0.3"></path>
<path d="M200.6 271l2.6 0l0 -63.8l-2.6 0Z" fill="rgb(227,73,2)" fill-opacity="0.3"></path>
<path d="M204.4 271l2.6 0l0 -62.8l-2.6 0Z" fill="rgb(227,73,2)" fill-opacity="0.3"></path>
<path d="M208.1 271l2.6 0l0 -61l-2.6 0Z" fill="rgb(227,73,2)" fill-opacity="0.3"></path>
<path d="M211.8 271l2.6 0l0 -59.5l-2.6 0Z" fill="rgb(227,73,2)" fill-opacity="0.3"></path>
<path d="M215.6 271l2.6 0l0 -56.3l-2.6 0Z" fill="rgb(227,73,2)" fill-opacity="0.3"></path>
<path d="M219.3 271l2.6 0l0 -54.9l-2.6 0Z" fill="rgb(227,73,2)" fill-opacity="0.3"></path>
<path d="M223 271l2.6 0l0 -53.2l-2.6 0Z" fill="rgb(227,73,2)" fill-opacity="0.3"></path>
<path d="M226.8 271l2.6 0l0 -51.1l-2.6 0Z" fill="rgb(227,73,2)" fill-opacity="0.3"></path>
<path d="M230.5 271l2.6 0l0 -49l-2.6 0Z" fill="rgb(227,73,2)" fill-opacity="0.3"></path>
<path d="M234.2 271l2.6 0l0 -47.4l-2.6 0Z" fill="rgb(227,73,2)" fill-opacity="0.3"></path>
<path d="M238 271l2.6 0l0 -46.2l-2.6 0Z" fill="rgb(227,73,2)" fill-opacity="0.3"></path>
<path d="M241.7 271l2.6 0l0 -45.2l-2.6 0Z" fill="rgb(227,73,2)" fill-opacity="0.3"></path>
<path d="M245.4 271l2.6 0l0 -42.9l-2.6 0Z" fill="rgb(227,73,2)" fill-opacity="0.3"></path>
<path d="M249.2 271l2.6 0l0 -42l-2.6 0Z" fill="rgb(227,73,2)" fill-opacity="0.3"></path>
<path d="M252.9 271l2.6 0l0 -41l-2.6 0Z" fill="rgb(227,73,2)" fill-opacity="0.3"></path>
<path d="M256.6 271l2.6 0l0 -39.6l-2.6 0Z" fill="rgb(227,73,2)" fill-opacity="0.3"></path>
<path d="M260.4 271l2.6 0l0 -38.7l-2.6 0Z" fill="rgb(227,73,2)" fill-opacity="0.3"></path>
<path d="M264.1 271l2.6 0l0 -37.5l-2.6 0Z" fill="rgb(227,73,2)" fill-opacity="0.3"></path>
<path d="M267.8 271l2.6 0l0 -36.8l-2.6 0Z" fill="rgb(227,73,2)" fill-opacity="0.3"></path>
<path d="M271.6 271l2.6 0l0 -36.8l-2.6 0Z" fill="rgb(227,73,2)" fill-opacity="0.3"></path>
<path d="M275.3 271l2.6 0l0 -35.6l-2.6 0Z" fill="rgb(227,73,2)" fill-opacity="0.3"></path>
<path d="M279 271l2.6 0l0 -34.9l-2.6 0Z" fill="rgb(227,73,2)" fill-opacity="0.3"></path>
<path d="M282.8 271l2.6 0l0 -33.8l-2.6 0Z" fill="rgb(227,73,2)" fill-opacity="0.3"></path>
<path d="M286.5 271l2.6 0l0 -32.4l-2.6 0Z" fill="rgb(227,73,2)" fill-opacity="0.3"></path>
<path d="M290.2 271l2.6 0l0 -31.7l-2.6 0Z" fill="rgb(227,73,2)" fill-opacity="0.3"></path>
<path d="M294 271l2.6 0l0 -30.7l-2.6 0Z" fill="rgb(227,73,2)" fill-opacity="0.3"></path>
<path d="M297.7 271l2.6 0l0 -29.5l-2.6 0Z" fill="rgb(227,73,2)" fill-opacity="0.3"></path>
<path d="M301.4 271l2.6 0l0 -29.1l-2.6 0Z" fill="rgb(227,73,2)" fill-opacity="0.3"></path>
<path d="M305.2 271l2.6 0l0 -28.6l-2.6 0Z" fill="rgb(227,73,2)" fill-opacity="0.3"></path>
<path d="M308.9 271l2.6 0l0 -28.6l-2.6 0Z" fill="rgb(227,73,2)" fill-opacity="0.3"></path>
<path d="M312.6 271l2.6 0l0 -27.2l-2.6 0Z" fill="rgb(227,73,2)" fill-opacity="0.3"></path>
<path d="M316.4 271l2.6 0l0 -26.5l-2.6 0Z" fill="rgb(227,73,2)" fill-opacity="0.3"></path>
<path d="M320.1 271l2.6 0l0 -26l-2.6 0Z" fill="rgb(227,73,2)" fill-opacity="0.3"></path>
<path d="M323.8 271l2.6 0l0 -25.6l-2.6 0Z" fill="rgb(227,73,2)" fill-opacity="0.3"></path>
<path d="M327.6 271l2.6 0l0 -25.1l-2.6 0Z" fill="rgb(227,73,2)" fill-opacity="0.3"></path>
<path d="M331.3 271l2.6 0l0 -24.9l-2.6 0Z" fill="rgb(227,73,2)" fill-opacity="0.3"></path>
<path d="M335 271l2.6 0l0 -24.4l-2.6 0Z" fill="rgb(227,73,2)" fill-opacity="0.3"></path>
<path d="M338.8 271l2.6 0l0 -22.7l-2.6 0Z" fill="rgb(227,73,2)" fill-opacity="0.3"></path>
<path d="M342.5 271l2.6 0l0 -22.5l-2.6 0Z" fill="rgb(227,73,2)" fill-opacity="0.3"></path>
<path d="M346.2 271l2.6 0l0 -21.6l-2.6 0Z" fill="rgb(227,73,2)" fill-opacity="0.3"></path>
<path d="M350 271l2.6 0l0 -21.3l-2.6 0Z" fill="rgb(227,73,2)" fill-opacity="0.3"></path>
<path d="M353.7 271l2.6 0l0 -20.9l-2.6 0Z" fill="rgb(227,73,2)" fill-opacity="0.3"></path>
<path d="M357.4 271l2.6 0l0 -20.2l-2.6 0Z" fill="rgb(227,73,2)" fill-opacity="0.3"></path>
<path d="M361.2 271l2.6 0l0 -19.5l-2.6 0Z" fill="rgb(227,73,2)" fill-opacity="0.8"></path>
<path d="M364.9 271l2.6 0l0 -18.5l-2.6 0Z" fill="rgb(227,73,2)" fill-opacity="0.3"></path>
<path d="M368.6 271l2.6 0l0 -17.6l-2.6 0Z" fill="rgb(227,73,2)" fill-opacity="0.3"></path>
<path d="M372.4 271l2.6 0l0 -16.9l-2.6 0Z" fill="rgb(227,73,2)" fill-opacity="0.3"></path>
<path d="M376.1 271l2.6 0l0 -16.4l-2.6 0Z" fill="rgb(227,73,2)" fill-opacity="0.3"></path>
<path d="M379.8 271l2.6 0l0 -15.7l-2.6 0Z" fill="rgb(227,73,2)" fill-opacity="0.3"></path>
<path d="M383.6 271l2.6 0l0 -14.8l-2.6 0Z" fill="rgb(227,73,2)" fill-opacity="0.3"></path>
<path d="M387.3 271l2.6 0l0 -14.3l-2.6 0Z" fill="rgb(227,73,2)" fill-opacity="0.3"></path>
<path d="M391 271l2.6 0l0 -13.8l-2.6 0Z" fill="rgb(227,73,2)" fill-opacity="0.3"></path>
<path d="M394.8 271l2.6 0l0 -13.4l-2.6 0Z" fill="rgb(227,73,2)" fill-opacity="0.3"></path>
<path d="M398.5 271l2.6 0l0 -12.9l-2.6 0Z" fill="rgb(227,73,2)" fill-opacity="0.3"></path>
<path d="M402.2 271l2.6 0l0 -12l-2.6 0Z" fill="rgb(227,73,2)" fill-opacity="0.3"></path>
<path d="M406 271l2.6 0l0 -11.3l-2.6 0Z" fill="rgb(227,73,2)" fill-opacity="0.3"></path>
<path d="M409.7 271l2.6 0l0 -10.6l-2.6 0Z" fill="rgb(227,73,2)" fill-opacity="0.3"></path>
<path d="M413.4 271l2.6 0l0 -10.6l-2.6 0Z" fill="rgb(227,73,2)" fill-opacity="0.3"></path>
<path d="M417.2 271l2.6 0l0 -10.6l-2.6 0Z" fill="rgb(227,73,2)" fill-opacity="0.3"></path>
<path d="M420.9 271l2.6 0l0 -10.3l-2.6 0Z" fill="rgb(227,73,2)" fill-opacity="0.3"></path>
<path d="M424.6 271l2.6 0l0 -9.8l-2.6 0Z" fill="rgb(227,73,2)" fill-opacity="0.3"></path>
<path d="M428.4 271l2.6 0l0 -9.8l-2.6 0Z" fill="rgb(227,73,2)" fill-opacity="0.3"></path>
<path d="M432.1 271l2.6 0l0 -7.7l-2.6 0Z" fill="rgb(227,73,2)" fill-opacity="0.3"></path>
<path d="M435.8 271l2.6 0l0 -6.8l-2.6 0Z" fill="rgb(227,73,2)" fill-opacity="0.3"></path>
<path d="M439.6 271l2.6 0l0 -6.6l-2.6 0Z" fill="rgb(227,73,2)" fill-opacity="0.3"></path>
<path d="M443.3 271l2.6 0l0 -6.1l-2.6 0Z" fill="rgb(227,73,2)" fill-opacity="0.3"></path>
<path d="M447 271l2.6 0l0 -5.9l-2.6 0Z" fill="rgb(227,73,2)" fill-opacity="0.3"></path>
<path d="M450.8 271l2.6 0l0 -5.9l-2.6 0Z" fill="rgb(227,73,2)" fill-opacity="0.3"></path>
<path d="M454.5 271l2.6 0l0 -5.2l-2.6 0Z" fill="rgb(227,73,2)" fill-opacity="0.3"></path>
<path d="M458.2 271l2.6 0l0 -5.2l-2.6 0Z" fill="rgb(227,73,2)" fill-opacity="0.3"></path>
<path d="M462 271l2.6 0l0 -5.2l-2.6 0Z" fill="rgb(227,73,2)" fill-opacity="0.3"></path>
<path d="M465.7 271l2.6 0l0 -4.9l-2.6 0Z" fill="rgb(227,73,2)" fill-opacity="0.3"></path>
<path d="M469.4 271l2.6 0l0 -4.7l-2.6 0Z" fill="rgb(227,73,2)" fill-opacity="0.3"></path>
<path d="M473.2 271l2.6 0l0 -4.5l-2.6 0Z" fill="rgb(227,73,2)" fill-opacity="0.3"></path>
<path d="M476.9 271l2.6 0l0 -4l-2.6 0Z" fill="rgb(227,73,2)" fill-opacity="0.3"></path>
<path d="M480.6 271l2.6 0l0 -3.8l-2.6 0Z" fill="rgb(227,73,2)" fill-opacity="0.3"></path>
<path d="M484.4 271l2.6 0l0 -3.8l-2.6 0Z" fill="rgb(227,73,2)" fill-opacity="0.3"></path>
<path d="M488.1 271l2.6 0l0 -3.5l-2.6 0Z" fill="rgb(227,73,2)" fill-opacity="0.3"></path>
<path d="M491.8 271l2.6 0l0 -3.5l-2.6 0Z" fill="rgb(227,73,2)" fill-opacity="0.3"></path>
<path d="M495.6 271l2.6 0l0 -3.5l-2.6 0Z" fill="rgb(227,73,2)" fill-opacity="0.3"></path>
<path d="M499.3 271l2.6 0l0 -3l-2.6 0Z" fill="rgb(227,73,2)" fill-opacity="0.3"></path>
<path d="M503 271l2.6 0l0 -3l-2.6 0Z" fill="rgb(227,73,2)" fill-opacity="0.3"></path>
<path d="M506.8 271l2.6 0l0 -3l-2.6 0Z" fill="rgb(227,73,2)" fill-opacity="0.3"></path>
<path d="M510.5 271l2.6 0l0 -3l-2.6 0Z" fill="rgb(227,73,2)" fill-opacity="0.3"></path>
<path d="M514.2 271l2.6 0l0 -3l-2.6 0Z" fill="rgb(227,73,2)" fill-opacity="0.3"></path>
<path d="M518 271l2.6 0l0 -3l-2.6 0Z" fill="rgb(227,73,2)" fill-opacity="0.3"></path>
<path d="M521.7 271l2.6 0l0 -3l-2.6 0Z" fill="rgb(227,73,2)" fill-opacity="0.3"></path>
<path d="M525.4 271l2.6 0l0 -2.8l-2.6 0Z" fill="rgb(227,73,2)" fill-opacity="0.3"></path>
<path d="M529.2 271l2.6 0l0 -2.8l-2.6 0Z" fill="rgb(227,73,2)" fill-opacity="0.3"></path>
<path d="M532.9 271l2.6 0l0 -2.8l-2.6 0Z" fill="rgb(227,73,2)" fill-opacity="0.3"></path>
<path d="M536.6 271l2.6 0l0 -2.6l-2.6 0Z" fill="rgb(227,73,2)" fill-opacity="0.3"></path>
<path d="M540.4 271l2.6 0l0 -2.6l-2.6 0Z" fill="rgb(227,73,2)" fill-opacity="0.3"></path>
<path d="M544.1 271l2.6 0l0 -2.6l-2.6 0Z" fill="rgb(227,73,2)" fill-opacity="0.3"></path>
<path d="M547.9 271l2.6 0l0 -2.6l-2.6 0Z" fill="rgb(227,73,2)" fill-opacity="0.3"></path>
<path d="M551.6 271l2.6 0l0 -2.6l-2.6 0Z" fill="rgb(227,73,2)" fill-opacity="0.3"></path>
<path d="M555.3 271l2.6 0l0 -2.3l-2.6 0Z" fill="rgb(227,73,2)" fill-opacity="0.3"></path>
<path d="M559.1 271l2.6 0l0 -2.3l-2.6 0Z" fill="rgb(227,73,2)" fill-opacity="0.3"></path>
<path d="M562.8 271l2.6 0l0 -2.3l-2.6 0Z" fill="rgb(227,73,2)" fill-opacity="0.3"></path>
<path d="M566.5 271l2.6 0l0 -2.3l-2.6 0Z" fill="rgb(227,73,2)" fill-opacity="0.3"></path>
<path d="M570.3 271l2.6 0l0 -2.1l-2.6 0Z" fill="rgb(227,73,2)" fill-opacity="0.3"></path>
<path d="M574 271l2.6 0l0 -2.1l-2.6 0Z" fill="rgb(227,73,2)" fill-opacity="0.3"></path>
<path d="M577.7 271l2.6 0l0 -2.1l-2.6 0Z" fill="rgb(227,73,2)" fill-opacity="0.3"></path>
<path d="M581.5 271l2.6 0l0 -1.9l-2.6 0Z" fill="rgb(227,73,2)" fill-opacity="0.3"></path>
<path d="M585.2 271l2.6 0l0 -1.9l-2.6 0Z" fill="rgb(227,73,2)" fill-opacity="0.3"></path>
<path d="M588.9 271l2.6 0l0 -1.9l-2.6 0Z" fill="rgb(227,73,2)" fill-opacity="0.3"></path>
<path d="M592.7 271l2.6 0l0 -1.9l-2.6 0Z" fill="rgb(227,73,2)" fill-opacity="0.3"></path>
<path d="M596.4 271l2.6 0l0 -1.9l-2.6 0Z" fill="rgb(227,73,2)" fill-opacity="0.3"></path>
<path d="M600.1 271l2.6 0l0 -1.9l-2.6 0Z" fill="rgb(227,73,2)" fill-opacity="0.3"></path>
<path d="M603.9 271l2.6 0l0 -1.9l-2.6 0Z" fill="rgb(227,73,2)" fill-opacity="0.3"></path>
<path d="M607.6 271l2.6 0l0 -1.9l-2.6 0Z" fill="rgb(227,73,2)" fill-opacity="0.3"></path>
<path d="M611.3 271l2.6 0l0 -1.9l-2.6 0Z" fill="rgb(227,73,2)" fill-opacity="0.3"></path>
<path d="M615.1 271l2.6 0l0 -1.9l-2.6 0Z" fill="rgb(227,73,2)" fill-opacity="0.3"></path>
<path d="M618.8 271l2.6 0l0 -1.6l-2.6 0Z" fill="rgb(227,73,2)" fill-opacity="0.3"></path>
<path d="M622.5 271l2.6 0l0 -1.6l-2.6 0Z" fill="rgb(227,73,2)" fill-opacity="0.3"></path>
<path d="M626.3 271l2.6 0l0 -1.4l-2.6 0Z" fill="rgb(227,73,2)" fill-opacity="0.3"></path>
<path d="M630 271l2.6 0l0 -1.4l-2.6 0Z" fill="rgb(227,73,2)" fill-opacity="0.3"></path>
<path d="M633.7 271l2.6 0l0 -1.4l-2.6 0Z" fill="rgb(227,73,2)" fill-opacity="0.3"></path>
<path d="M637.5 271l2.6 0l0 -1.4l-2.6 0Z" fill="rgb(227,73,2)" fill-opacity="0.3"></path>
<path d="M641.2 271l2.6 0l0 -1.4l-2.6 0Z" fill="rgb(227,73,2)" fill-opacity="0.3"></path>
<path d="M644.9 271l2.6 0l0 -1.4l-2.6 0Z" fill="rgb(227,73,2)" fill-opacity="0.3"></path>
<path d="M648.7 271l2.6 0l0 -1.4l-2.6 0Z" fill="rgb(227,73,2)" fill-opacity="0.3"></path>
<path d="M652.4 271l2.6 0l0 -1.4l-2.6 0Z" fill="rgb(227,73,2)" fill-opacity="0.3"></path>
<path d="M656.1 271l2.6 0l0 -1.2l-2.6 0Z" fill="rgb(227,73,2)" fill-opacity="0.3"></path>
<path d="M659.9 271l2.6 0l0 -1.2l-2.6 0Z" fill="rgb(227,73,2)" fill-opacity="0.3"></path>
<path d="M663.6 271l2.6 0l0 -1.2l-2.6 0Z" fill="rgb(227,73,2)" fill-opacity="0.3"></path>
<path d="M667.3 271l2.6 0l0 -1.2l-2.6 0Z" fill="rgb(227,73,2)" fill-opacity="0.3"></path>
<path d="M671.1 271l2.6 0l0 -1.2l-2.6 0Z" fill="rgb(227,73,2)" fill-opacity="0.3"></path>
<path d="M674.8 271l2.6 0l0 -1.2l-2.6 0Z" fill="rgb(227,73,2)" fill-opacity="0.3"></path>
<path d="M678.5 271l2.6 0l0 -1.2l-2.6 0Z" fill="rgb(227,73,2)" fill-opacity="0.3"></path>
<path d="M682.3 271l2.6 0l0 -1.2l-2.6 0Z" fill="rgb(227,73,2)" fill-opacity="0.3"></path>
<path d="M686 271l2.6 0l0 -1.2l-2.6 0Z" fill="rgb(227,73,2)" fill-opacity="0.3"></path>
<path d="M689.7 271l2.6 0l0 -1.2l-2.6 0Z" fill="rgb(227,73,2)" fill-opacity="0.3"></path>
<path d="M693.5 271l2.6 0l0 -1.2l-2.6 0Z" fill="rgb(227,73,2)" fill-opacity="0.3"></path>
<path d="M697.2 271l2.6 0l0 -1.2l-2.6 0Z" fill="rgb(227,73,2)" fill-opacity="0.3"></path>
<path d="M700.9 271l2.6 0l0 -1.2l-2.6 0Z" fill="rgb(227,73,2)" fill-opacity="0.3"></path>
<path d="M704.7 271l2.6 0l0 -1.2l-2.6 0Z" fill="rgb(227,73,2)" fill-opacity="0.3"></path>
<path d="M708.4 271l2.6 0l0 -1.2l-2.6 0Z" fill="rgb(227,73,2)" fill-opacity="0.3"></path>
<path d="M712.1 271l2.6 0l0 -1.2l-2.6 0Z" fill="rgb(227,73,2)" fill-opacity="0.3"></path>
<path d="M715.9 271l2.6 0l0 -1.2l-2.6 0Z" fill="rgb(227,73,2)" fill-opacity="0.3"></path>
<path d="M719.6 271l2.6 0l0 -1.2l-2.6 0Z" fill="rgb(227,73,2)" fill-opacity="0.3"></path>
<path d="M723.3 271l2.6 0l0 -1.2l-2.6 0Z" fill="rgb(227,73,2)" fill-opacity="0.3"></path>
<path d="M727.1 271l2.6 0l0 -1.2l-2.6 0Z" fill="rgb(227,73,2)" fill-opacity="0.3"></path>
<path d="M730.8 271l2.6 0l0 -0.9l-2.6 0Z" fill="rgb(227,73,2)" fill-opacity="0.3"></path>
<path d="M734.5 271l2.6 0l0 -0.9l-2.6 0Z" fill="rgb(227,73,2)" fill-opacity="0.3"></path>
<path d="M738.3 271l2.6 0l0 -0.9l-2.6 0Z" fill="rgb(227,73,2)" fill-opacity="0.3"></path>
<path d="M742 271l2.6 0l0 -0.9l-2.6 0Z" fill="rgb(227,73,2)" fill-opacity="0.3"></path>
<path d="M745.7 271l2.6 0l0 -0.9l-2.6 0Z" fill="rgb(227,73,2)" fill-opacity="0.3"></path>
<path d="M749.5 271l2.6 0l0 -0.9l-2.6 0Z" fill="rgb(227,73,2)" fill-opacity="0.3"></path>
<path d="M753.2 271l2.6 0l0 -0.9l-2.6 0Z" fill="rgb(227,73,2)" fill-opacity="0.3"></path>
<path d="M756.9 271l2.6 0l0 -0.9l-2.6 0Z" fill="rgb(227,73,2)" fill-opacity="0.3"></path>
<path d="M760.7 271l2.6 0l0 -0.9l-2.6 0Z" fill="rgb(227,73,2)" fill-opacity="0.3"></path>
<path d="M764.4 271l2.6 0l0 -0.7l-2.6 0Z" fill="rgb(227,73,2)" fill-opacity="0.3"></path>
<path d="M768.1 271l2.6 0l0 -0.7l-2.6 0Z" fill="rgb(227,73,2)" fill-opacity="0.3"></path>
<path d="M771.9 271l2.6 0l0 -0.7l-2.6 0Z" fill="rgb(227,73,2)" fill-opacity="0.3"></path>
<path d="M775.6 271l2.6 0l0 -0.7l-2.6 0Z" fill="rgb(227,73,2)" fill-opacity="0.3"></path>
<path d="M779.3 271l2.6 0l0 -0.7l-2.6 0Z" fill="rgb(227,73,2)" fill-opacity="0.3"></path>
<path d="M783.1 271l2.6 0l0 -0.7l-2.6 0Z" fill="rgb(227,73,2)" fill-opacity="0.3"></path>
<path d="M786.8 271l2.6 0l0 -0.7l-2.6 0Z" fill="rgb(227,73,2)" fill-opacity="0.3"></path>
<path d="M790.5 271l2.6 0l0 -0.7l-2.6 0Z" fill="rgb(227,73,2)" fill-opacity="0.3"></path>
<path d="M794.3 271l2.6 0l0 -0.7l-2.6 0Z" fill="rgb(227,73,2)" fill-opacity="0.3"></path>
<path d="M798 271l2.6 0l0 -0.7l-2.6 0Z" fill="rgb(227,73,2)" fill-opacity="0.3"></path>
<path d="M801.7 271l2.6 0l0 -0.7l-2.6 0Z" fill="rgb(227,73,2)" fill-opacity="0.3"></path>
<path d="M805.5 271l2.6 0l0 -0.7l-2.6 0Z" fill="rgb(227,73,2)" fill-opacity="0.3"></path>
<path d="M809.2 271l2.6 0l0 -0.5l-2.6 0Z" fill="rgb(227,73,2)" fill-opacity="0.3"></path>
<path d="M812.9 271l2.6 0l0 -0.5l-2.6 0Z" fill="rgb(227,73,2)" fill-opacity="0.3"></path>
<path d="M816.7 271l2.6 0l0 -0.5l-2.6 0Z" fill="rgb(227,73,2)" fill-opacity="0.3"></path>
<path d="M820.4 271l2.6 0l0 -0.5l-2.6 0Z" fill="rgb(227,73,2)" fill-opacity="0.3"></path>
<path d="M824.1 271l2.6 0l0 -0.5l-2.6 0Z" fill="rgb(227,73,2)" fill-opacity="0.3"></path>
<path d="M827.9 271l2.6 0l0 -0.5l-2.6 0Z" fill="rgb(227,73,2)" fill-opacity="0.3"></path>
<path d="M831.6 271l2.6 0l0 -0.5l-2.6 0Z" fill="rgb(227,73,2)" fill-opacity="0.3"></path>
<path d="M835.3 271l2.6 0l0 -0.5l-2.6 0Z" fill="rgb(227,73,2)" fill-opacity="0.3"></path>
<path d="M839.1 271l2.6 0l0 -0.5l-2.6 0Z" fill="rgb(227,73,2)" fill-opacity="0.3"></path>
<path d="M842.8 271l2.6 0l0 -0.5l-2.6 0Z" fill="rgb(227,73,2)" fill-opacity="0.3"></path>
<path d="M846.5 271l2.6 0l0 -0.5l-2.6 0Z" fill="rgb(227,73,2)" fill-opacity="0.3"></path>
<path d="M850.3 271l2.6 0l0 -0.5l-2.6 0Z" fill="rgb(227,73,2)" fill-opacity="0.3"></path>
<path d="M854 271l2.6 0l0 -0.5l-2.6 0Z" fill="rgb(227,73,2)" fill-opacity="0.3"></path>
<path d="M857.7 271l2.6 0l0 -0.5l-2.6 0Z" fill="rgb(227,73,2)" fill-opacity="0.3"></path>
<path d="M861.5 271l2.6 0l0 -0.5l-2.6 0Z" fill="rgb(227,73,2)" fill-opacity="0.3"></path>
<path d="M865.2 271l2.6 0l0 -0.5l-2.6 0Z" fill="rgb(227,73,2)" fill-opacity="0.3"></path>
<path d="M868.9 271l2.6 0l0 -0.5l-2.6 0Z" fill="rgb(227,73,2)" fill-opacity="0.3"></path>
<path d="M872.7 271l2.6 0l0 -0.5l-2.6 0Z" fill="rgb(227,73,2)" fill-opacity="0.3"></path>
<path d="M876.4 271l2.6 0l0 -0.5l-2.6 0Z" fill="rgb(227,73,2)" fill-opacity="0.3"></path>
<path d="M880.1 271l2.6 0l0 -0.5l-2.6 0Z" fill="rgb(227,73,2)" fill-opacity="0.3"></path>
<path d="M883.9 271l2.6 0l0 -0.5l-2.6 0Z" fill="rgb(227,73,2)" fill-opacity="0.3"></path>
<path d="M887.6 271l2.6 0l0 -0.2l-2.6 0Z" fill="rgb(227,73,2)" fill-opacity="0.3"></path>
<path d="M891.3 271l2.6 0l0 -0.2l-2.6 0Z" fill="rgb(227,73,2)" fill-opacity="0.3"></path>
<path d="M895.1 271l2.6 0l0 -0.2l-2.6 0Z" fill="rgb(227,73,2)" fill-opacity="0.3"></path>
<path d="M898.8 271l2.6 0l0 -0.2l-2.6 0Z" fill="rgb(227,73,2)" fill-opacity="0.3"></path>
<path d="M902.5 271l2.6 0l0 -0.2l-2.6 0Z" fill="rgb(227,73,2)" fill-opacity="0.3"></path>
<path d="M906.3 271l2.6 0l0 -0.2l-2.6 0Z" fill="rgb(227,73,2)" fill-opacity="0.3"></path>
<path d="M910 271l2.6 0l0 -0.2l-2.6 0Z" fill="rgb(227,73,2)" fill-opacity="0.3"></path>
<path d="M913.8 271l2.6 0l0 -0.2l-2.6 0Z" fill="rgb(227,73,2)" fill-opacity="0.3"></path>
<path d="M917.5 271l2.6 0l0 -0.2l-2.6 0Z" fill="rgb(227,73,2)" fill-opacity="0.3"></path>
<path d="M921.2 271l2.6 0l0 -0.2l-2.6 0Z" fill="rgb(227,73,2)" fill-opacity="0.3"></path>
<path d="M925 271l2.6 0l0 -0.2l-2.6 0Z" fill="rgb(227,73,2)" fill-opacity="0.3"></path>
<path d="M928.7 271l2.6 0l0 -0.2l-2.6 0Z" fill="rgb(227,73,2)" fill-opacity="0.3"></path>
<path d="M-5 -5l226.9 0l0 24l-226.9 0Z" transform="translate(391.54 5)" fill="rgb(0,0,0)" fill-opacity="0" stroke="#ccc" stroke-width="0"></path>
<path d="M3.5 0L21.5 0A3.5 3.5 0 0 1 25 3.5L25 10.5A3.5 3.5 0 0 1 21.5 14L3.5 14A3.5 3.5 0 0 1 0 10.5L0 3.5A3.5 3.5 0 0 1 3.5 0" transform="translate(391.54 5)" fill="rgb(227,73,2)" fill-opacity="0.3"></path>
<text dominant-baseline="central" text-anchor="start" style="font-size:12px;font-family:sans-serif;" xml:space="preserve" x="30" y="7" transform="translate(391.54 5)" fill="#333">Times completed</text>
<path d="M0 7L25 7" transform="translate(524.1 5)" fill="#000" stroke="#E34902" stroke-width="2" stroke-linecap="butt" stroke-miterlimit="10"></path>
<path d="M18.1 7A5.6 5.6 0 1 1 18.1 6.4A5.6 5.6 0 0 1 18.1 7" transform="translate(524.1 5)" fill="#fff" stroke="#E34902" stroke-width="2" stroke-linecap="butt" stroke-miterlimit="10"></path>
<text dominant-baseline="central" text-anchor="start" style="font-size:12px;font-family:sans-serif;" x="30" y="7" transform="translate(524.1 5)" fill="#333">Eddington</text>
<path d="M-0.54 -0.89A0.6 0.6 0 1 1 0.54 -0.89C0.39 -0.56 0 -0.42 0 0C0 -0.42 -0.39 -0.56 -0.54 -0.89Z" transform="matrix(25,0,0,25,362.4545,246.7756)" fill="rgb(227,73,2)" fill-opacity="0.8"></path>
<text dominant-baseline="central" text-anchor="middle" style="font-size:12px;font-family:sans-serif;" transform="translate(362.4545 220.6327)" fill="#eee" stroke="rgb(227,73,2)" stroke-width="2" paint-order="stroke" stroke-opacity="0.8" stroke-miterlimit="2">82</text>
<g clip-path="url(#zr0-c0)">
<path d="M60 270.8L63.8 270.5L67.5 270.3L71.2 270.1L75 269.8L78.7 269.6L82.4 269.4L86.2 269.1L89.9 268.9L93.6 268.7L97.4 268.4L101.1 268.2L104.8 268L108.6 267.7L112.3 267.5L116 267.2L119.8 267L123.5 266.8L127.2 266.5L131 266.3L134.7 266.1L138.4 265.8L142.2 265.6L145.9 265.4L149.6 265.1L153.4 264.9L157.1 264.7L160.8 264.4L164.6 264.2L168.3 264L172 263.7L175.8 263.5L179.5 263.3L183.2 263L187 262.8L190.7 262.6L194.4 262.3L198.2 262.1L201.9 261.9L205.6 261.6L209.4 261.4L213.1 261.2L216.8 260.9L220.6 260.7L224.3 260.5L228 260.2L231.8 260L235.5 259.7L239.2 259.5L243 259.3L246.7 259L250.4 258.8L254.2 258.6L257.9 258.3L261.6 258.1L265.4 257.9L269.1 257.6L272.8 257.4L276.6 257.2L280.3 256.9L284 256.7L287.8 256.5L291.5 256.2L295.2 256L299 255.8L302.7 255.5L306.4 255.3L310.2 255.1L313.9 254.8L317.7 254.6L321.4 254.4L325.1 254.1L328.9 253.9L332.6 253.7L336.3 253.4L340.1 253.2L343.8 252.9L347.5 252.7L351.3 252.5L355 252.2L358.7 252L362.5 251.8L366.2 251.5L369.9 251.3L373.7 251.1L377.4 250.8L381.1 250.6L384.9 250.4L388.6 250.1L392.3 249.9L396.1 249.7L399.8 249.4L403.5 249.2L407.3 249L411 248.7L414.7 248.5L418.5 248.3L422.2 248L425.9 247.8L429.7 247.6L433.4 247.3L437.1 247.1L440.9 246.9L444.6 246.6L448.3 246.4L452.1 246.1L455.8 245.9L459.5 245.7L463.3 245.4L467 245.2L470.7 245L474.5 244.7L478.2 244.5L481.9 244.3L485.7 244L489.4 243.8L493.1 243.6L496.9 243.3L500.6 243.1L504.3 242.9L508.1 242.6L511.8 242.4L515.5 242.2L519.3 241.9L523 241.7L526.7 241.5L530.5 241.2L534.2 241L537.9 240.8L541.7 240.5L545.4 240.3L549.1 240.1L552.9 239.8L556.6 239.6L560.3 239.4L564.1 239.1L567.8 238.9L571.5 238.6L575.3 238.4L579 238.2L582.7 237.9L586.5 237.7L590.2 237.5L593.9 237.2L597.7 237L601.4 236.8L605.1 236.5L608.9 236.3L612.6 236.1L616.3 235.8L620.1 235.6L623.8 235.4L627.5 235.1L631.3 234.9L635 234.7L638.7 234.4L642.5 234.2L646.2 234L649.9 233.7L653.7 233.5L657.4 233.3L661.1 233L664.9 232.8L668.6 232.6L672.3 232.3L676.1 232.1L679.8 231.8L683.6 231.6L687.3 231.4L691 231.1L694.8 230.9L698.5 230.7L702.2 230.4L706 230.2L709.7 230L713.4 229.7L717.2 229.5L720.9 229.3L724.6 229L728.4 228.8L732.1 228.6L735.8 228.3L739.6 228.1L743.3 227.9L747 227.6L750.8 227.4L754.5 227.2L758.2 226.9L762 226.7L765.7 226.5L769.4 226.2L773.2 226L776.9 225.8L780.6 225.5L784.4 225.3L788.1 225L791.8 224.8L795.6 224.6L799.3 224.3L803 224.1L806.8 223.9L810.5 223.6L814.2 223.4L818 223.2L821.7 222.9L825.4 222.7L829.2 222.5L832.9 222.2L836.6 222L840.4 221.8L844.1 221.5L847.8 221.3L851.6 221.1L855.3 220.8L859 220.6L862.8 220.4L866.5 220.1L870.2 219.9L874 219.7L877.7 219.4L881.4 219.2L885.2 219L888.9 218.7L892.6 218.5L896.4 218.3L900.1 218L903.8 217.8L907.6 217.5L911.3 217.3L915 217.1L918.8 216.8L922.5 216.6L926.2 216.4L930 216.1" fill="none" stroke="#E34902" stroke-width="2" stroke-linejoin="bevel"></path>
</g>
<defs >
<clipPath id="zr0-c0">
<path d="M57 59l876 0l0 213l-876 0Z" fill="#000"></path>
</clipPath>
</defs>
</svg>