<svg width="1000" height="300" xmlns="http://www.w3.org/2000/svg" xmlns:xlink="http://www.w3.org/1999/xlink" version="1.1" baseProfile="full" viewBox="0 0 1000 300">
<rect width="1000" height="300" x="0" y="0" id="0" fill="#ffffff"></rect>
<path d="M87.5 60L87.5 271" fill="none" stroke="#E0E6F1"></path>
<path d="M175.5 60L175.5 271" fill="none" stroke="#E0E6F1"></path>
<path d="M262.5 60L262.5 271" fill="none" stroke="#E0E6F1"></path>
<path d="M349.5 60L349.5 271" fill="none" stroke="#E0E6F1"></path>
<path d="M436.5 60L436.5 271" fill="none" stroke="#E0E6F1"></path>
<path d="M524.5 60L524.5 271" fill="none" stroke="#E0E6F1"></path>
<path d="M611.5 60L611.5 271" fill="none" stroke="#E0E6F1"></path>
<path d="M698.5 60L698.5 271" fill="none" stroke="#E0E6F1"></path>
<path d="M785.5 60L785.5 271" fill="none" stroke="#E0E6F1"></path>
<path d="M873.5 60L873.5 271" fill="none" stroke="#E0E6F1"></path>
<path d="M960.5 60L960.5 271" fill="none" stroke="#E0E6F1"></path>
<path d="M87.6 271.5L960 271.5" fill="none" stroke="#6E7079" stroke-linecap="round"></path>
<text dominant-baseline="central" text-anchor="end" style="font-size:12px;font-family:sans-serif;" xml:space="preserve" transform="translate(79.56 271)" fill="#6E7079">0 km</text>
<text dominant-baseline="central" text-anchor="end" style="font-size:12px;font-family:sans-serif;" xml:space="preserve" transform="translate(79.56 235.8333)" fill="#6E7079">200 km</text>
<text dominant-baseline="central" text-anchor="end" style="font-size:12px;font-family:sans-serif;" xml:space="preserve" transform="translate(79.56 200.6667)" fill="#6E7079">400 km</text>
<text dominant-baseline="central" text-anchor="end" style="font-size:12px;font-family:sans-serif;" xml:space="preserve" transform="translate(79.56 165.5)" fill="#6E7079">600 km</text>
<text dominant-baseline="central" text-anchor="end" style="font-size:12px;font-family:sans-serif;" xml:space="preserve" transform="translate(79.56 130.3333)" fill="#6E7079">800 km</text>
<text dominant-baseline="central" text-anchor="end" style="font-size:12px;font-family:sans-serif;" xml:space="preserve" transform="translate(79.56 95.1667)" fill="#6E7079">1,000 km</text>
<text dominant-baseline="central" text-anchor="end" style="font-size:12px;font-family:sans-serif;" xml:space="preserve" transform="translate(79.56 60)" fill="#6E7079">1,200 km</text>
<text dominant-baseline="central" text-anchor="middle" style="font-size:12px;font-family:sans-serif;" xml:space="preserve" y="6" transform="translate(174.804 279)" fill="#6E7079">Jun 2024</text>
<text dominant-baseline="central" text-anchor="middle" style="font-size:12px;font-family:sans-serif;" xml:space="preserve" y="6" transform="translate(436.536 279)" fill="#6E7079">Jul 2024</text>
<text dominant-baseline="central" text-anchor="middle" style="font-size:12px;font-family:sans-serif;" xml:space="preserve" y="6" transform="translate(872.756 279)" fill="#6E7079">Aug 2024</text>
<g clip-path="url(#zr5-c0)">
<path d="M87.6 233.4L174.8 231.8L262 247.1L349.3 66.7L436.5 263.3L523.8 257.3L611 240.4L698.3 271L785.5 271L872.8 271L960 236.9L960 271L872.8 271L785.5 271L698.3 271L611 271L523.8 271L436.5 271L349.3 271L262 271L174.8 271L87.6 271Z" fill="rgb(227,73,2)" fill-opacity="0.09"></path>
<path d="M87.6 233.4L174.8 231.8L262 247.1L349.3 66.7L436.5 263.3L523.8 257.3L611 240.4L698.3 271L785.5 271L872.8 271L960 236.9" fill="none" stroke="#E34902" stroke-linejoin="bevel"></path>
</g>
<path d="M1 0A1 1 0 1 1 1 -0.1A1 1 0 0 1 1 0" transform="matrix(3,0,0,3,87.56,233.3717)" fill="#fff" stroke="#E34902" stroke-width="0.6666666666666666"></path>
<path d="M1 0A1 1 0 1 1 1 -0.1A1 1 0 0 1 1 0" transform="matrix(3,0,0,3,174.804,231.7892)" fill="#fff" stroke="#E34902" stroke-width="0.6666666666666666"></path>
<path d="M1 0A1 1 0 1 1 1 -0.1A1 1 0 0 1 1 0" transform="matrix(3,0,0,3,262.048,247.0867)" fill="#fff" stroke="#E34902" stroke-width="0.6666666666666666"></path>
<path d="M1 0A1 1 0 1 1 1 -0.1A1 1 0 0 1 1 0" transform="matrix(3,0,0,3,349.292,66.6817)" fill="#fff" stroke="#E34902" stroke-width="0.6666666666666666"></path>
<path d="M1 0A1 1 0 1 1 1 -0.1A1 1 0 0 1 1 0" transform="matrix(3,0,0,3,436.536,263.2633)" fill="#fff" stroke="#E34902" stroke-width="0.6666666666666666"></path>
<path d="M1 0A1 1 0 1 1 1 -0.1A1 1 0 0 1 1 0" transform="matrix(3,0,0,3,523.78,257.285)" fill="#fff" stroke="#E34902" stroke-width="0.6666666666666666"></path>
<path d="M1 0A1 1 0 1 1 1 -0.1A1 1 0 0 1 1 0" transform="matrix(3,0,0,3,611.024,240.405)" fill="#fff" stroke="#E34902" stroke-width="0.6666666666666666"></path>
<path d="M1 0A1 1 0 1 1 1 -0.1A1 1 0 0 1 1 0" transform="matrix(3,0,0,3,698.268,271)" fill="#fff" stroke="#E34902" stroke-width="0.6666666666666666"></path>
<path d="M1 0A1 1 0 1 1 1 -0.1A1 1 0 0 1 1 0" transform="matrix(3,0,0,3,785.512,271)" fill="#fff" stroke="#E34902" stroke-width="0.6666666666666666"></path>
<path d="M1 0A1 1 0 1 1 1 -0.1A1 1 0 0 1 1 0" transform="matrix(3,0,0,3,872.756,271)" fill="#fff" stroke="#E34902" stroke-width="0.6666666666666666"></path>
<path d="M1 0A1 1 0 1 1 1 -0.1A1 1 0 0 1 1 0" transform="matrix(3,0,0,3,960,236.8883)" fill="#fff" stroke="#E34902" stroke-width="0.6666666666666666"></path>
<text dominant-baseline="central" text-anchor="middle" style="font-size:12px;font-family:sans-serif;" xml:space="preserve" y="-6" transform="matrix(0.707,0.707,-0.707,0.707,87.56,224.3717)" fill="#333" stroke="rgb(255,255,255)" stroke-width="2" paint-order="stroke" stroke-miterlimit="2">214 km</text>
<text dominant-baseline="central" text-anchor="middle" style="font-size:12px;font-family:sans-serif;" xml:space="preserve" y="-6" transform="matrix(0.707,0.707,-0.707,0.707,174.804,222.7892)" fill="#333" stroke="rgb(255,255,255)" stroke-width="2" paint-order="stroke" stroke-miterlimit="2">223 km</text>
<text dominant-baseline="central" text-anchor="middle" style="font-size:12px;font-family:sans-serif;" xml:space="preserve" y="-6" transform="matrix(0.707,0.707,-0.707,0.707,262.048,238.0867)" fill="#333" stroke="rgb(255,255,255)" stroke-width="2" paint-order="stroke" stroke-miterlimit="2">136 km</text>
<text dominant-baseline="central" text-anchor="middle" style="font-size:12px;font-family:sans-serif;" xml:space="preserve" y="-6" transform="matrix(0.707,0.707,-0.707,0.707,349.292,57.6817)" fill="#333" stroke="rgb(255,255,255)" stroke-width="2" paint-order="stroke" stroke-miterlimit="2">1162 km</text>
<text dominant-baseline="central" text-anchor="middle" style="font-size:12px;font-family:sans-serif;" xml:space="preserve" y="-6" transform="matrix(0.707,0.707,-0.707,0.707,436.536,254.2633)" fill="#333" stroke="rgb(255,255,255)" stroke-width="2" paint-order="stroke" stroke-miterlimit="2">44 km</text>
<text dominant-baseline="central" text-anchor="middle" style="font-size:12px;font-family:sans-serif;" xml:space="preserve" y="-6" transform="matrix(0.707,0.707,-0.707,0.707,523.78,248.285)" fill="#333" stroke="rgb(255,255,255)" stroke-width="2" paint-order="stroke" stroke-miterlimit="2">78 km</text>
<text dominant-baseline="central" text-anchor="middle" style="font-size:12px;font-family:sans-serif;" xml:space="preserve" y="-6" transform="matrix(0.707,0.707,-0.707,0.707,611.024,231.405)" fill="#333" stroke="rgb(255,255,255)" stroke-width="2" paint-order="stroke" stroke-miterlimit="2">174 km</text>
<text dominant-baseline="central" text-anchor="middle" style="font-size:12px;font-family:sans-serif;" xml:space="preserve" y="-6" transform="matrix(0.707,0.707,-0.707,0.707,698.268,262)" fill="#333" stroke="rgb(255,255,255)" stroke-width="2" paint-order="stroke" stroke-miterlimit="2">0 km</text>
<text dominant-baseline="central" text-anchor="middle" style="font-size:12px;font-family:sans-serif;" xml:space="preserve" y="-6" transform="matrix(0.707,0.707,-0.707,0.707,785.512,262)" fill="#333" stroke="rgb(255,255,255)" stroke-width="2" paint-order="stroke" stroke-miterlimit="2">0 km</text>
<text dominant-baseline="central" text-anchor="middle" style="font-size:12px;font-family:sans-serif;" xml:space="preserve" y="-6" transform="matrix(0.707,0.707,-0.707,0.707,872.756,262)" fill="#333" stroke="rgb(255,255,255)" stroke-width="2" paint-order="stroke" stroke-miterlimit="2">0 km</text>
<text dominant-baseline="central" text-anchor="middle" style="font-size:12px;font-family:sans-serif;" xml:space="preserve" y="-6" transform="matrix(0.707,0.707,-0.707,0.707,960,227.8883)" fill="#333" stroke="rgb(255,255,255)" stroke-width="2" paint-order="stroke" stroke-miterlimit="2">194 km</text>
<defs >
<clipPath id="zr5-c0">
<path d="M87 59.5l873 0l0 212l-873 0Z" fill="#000"></path>
</clipPath>
</defs>
</svg>