<svg width="1000" height="300" xmlns="http://www.w3.org/2000/svg" xmlns:xlink="http://www.w3.org/1999/xlink" version="1.1" baseProfile="full" viewBox="0 0 1000 300">
<rect width="1000" height="300" x="0" y="0" id="0" fill="#ffffff"></rect>
<path d="M58.2 271.5L931.8 271.5" fill="none" stroke="#E0E6F1"></path>
<path d="M58.2 223.5L931.8 223.5" fill="none" stroke="#E0E6F1"></path>
<path d="M58.2 175.5L931.8 175.5" fill="none" stroke="#E0E6F1"></path>
<path d="M58.2 128.5L931.8 128.5" fill="none" stroke="#E0E6F1"></path>
<path d="M58.2 80.5L931.8 80.5" fill="none" stroke="#E0E6F1"></path>
<path d="M58.2 60.5L931.8 60.5" fill="none" stroke="#E0E6F1"></path>
<path d="M58.2 271.5L931.8 271.5" fill="none" stroke="#6E7079" stroke-linecap="round"></path>
<path d="M60.5 271L60.5 276" fill="none" stroke="#6E7079"></path>
<path d="M108.5 271L108.5 276" fill="none" stroke="#6E7079"></path>
<path d="M157.5 271L157.5 276" fill="none" stroke="#6E7079"></path>
<path d="M205.5 271L205.5 276" fill="none" stroke="#6E7079"></path>
<path d="M254.5 271L254.5 276" fill="none" stroke="#6E7079"></path>
<path d="M302.5 271L302.5 276" fill="none" stroke="#6E7079"></path>
<path d="M351.5 271L351.5 276" fill="none" stroke="#6E7079"></path>
<path d="M400.5 271L400.5 276" fill="none" stroke="#6E7079"></path>
<path d="M448.5 271L448.5 276" fill="none" stroke="#6E7079"></path>
<path d="M497.5 271L497.5 276" fill="none" stroke="#6E7079"></path>
<path d="M545.5 271L545.5 276" fill="none" stroke="#6E7079"></path>
<path d="M594.5 271L594.5 276" fill="none" stroke="#6E7079"></path>
<path d="M642.5 271L642.5 276" fill="none" stroke="#6E7079"></path>
<path d="M691.5 271L691.5 276" fill="none" stroke="#6E7079"></path>
<path d="M739.5 271L739.5 276" fill="none" stroke="#6E7079"></path>
<path d="M788.5 271L788.5 276" fill="none" stroke="#6E7079"></path>
<path d="M836.5 271L836.5 276" fill="none" stroke="#6E7079"></path>
<path d="M885.5 271L885.5 276" fill="none" stroke="#6E7079"></path>
<text dominant-baseline="central" text-anchor="end" style="font-size:12px;font-family:sans-serif;" transform="translate(50.16 271)" fill="#6E7079">0</text>
<text dominant-baseline="central" text-anchor="end" style="font-size:12px;font-family:sans-serif;" transform="translate(50.16 223.3548)" fill="#6E7079">210</text>
<text dominant-baseline="central" text-anchor="end" style="font-size:12px;font-family:sans-serif;" transform="translate(50.16 175.7097)" fill="#6E7079">420</text>
<text dominant-baseline="central" text-anchor="end" style="font-size:12px;font-family:sans-serif;" transform="translate(50.16 128.0645)" fill="#6E7079">630</text>
<text dominant-baseline="central" text-anchor="end" style="font-size:12px;font-family:sans-serif;" transform="translate(50.16 80.4194)" fill="#6E7079">840</text>
<text dominant-baseline="central" text-anchor="end" style="font-size:12px;font-family:sans-serif;" transform="translate(50.16 60)" fill="#6E7079">930</text>
<text dominant-baseline="central" text-anchor="start" style="font-size:12px;font-family:sans-serif;" transform="translate(939.84 271)" fill="#6E7079">0</text>
<text dominant-baseline="central" text-anchor="start" style="font-size:12px;font-family:sans-serif;" transform="translate(939.84 223.3548)" fill="#6E7079">210</text>
<text dominant-baseline="central" text-anchor="start" style="font-size:12px;font-family:sans-serif;" transform="translate(939.84 175.7097)" fill="#6E7079">420</text>
<text dominant-baseline="central" text-anchor="start" style="font-size:12px;font-family:sans-serif;" transform="translate(939.84 128.0645)" fill="#6E7079">630</text>
<text dominant-baseline="central" text-anchor="start" style="font-size:12px;font-family:sans-serif;" transform="translate(939.84 80.4194)" fill="#6E7079">840</text>
<text dominant-baseline="central" text-anchor="start" style="font-size:12px;font-family:sans-serif;" transform="translate(939.84 60)" fill="#6E7079">930</text>
<text dominant-baseline="central" text-anchor="middle" style="font-size:12px;font-family:sans-serif;" y="6" transform="translate(60.0268 279)" fill="#6E7079">1km</text>
<text dominant-baseline="central" text-anchor="middle" style="font-size:12px;font-family:sans-serif;" y="6" transform="translate(108.5646 279)" fill="#6E7079">14km</text>
<text dominant-baseline="central" text-anchor="middle" style="font-size:12px;font-family:sans-serif;" y="6" transform="translate(157.1024 279)" fill="#6E7079">27km</text>
<text dominant-baseline="central" text-anchor="middle" style="font-size:12px;font-family:sans-serif;" y="6" transform="translate(205.6402 279)" fill="#6E7079">40km</text>
<text dominant-baseline="central" text-anchor="middle" style="font-size:12px;font-family:sans-serif;" y="6" transform="translate(254.1779 279)" fill="#6E7079">53km</text>
<text dominant-baseline="central" text-anchor="middle" style="font-size:12px;font-family:sans-serif;" y="6" transform="translate(302.7157 279)" fill="#6E7079">66km</text>
<text dominant-baseline="central" text-anchor="middle" style="font-size:12px;font-family:sans-serif;" y="6" transform="translate(351.2535 279)" fill="#6E7079">79km</text>
<text dominant-baseline="central" text-anchor="middle" style="font-size:12px;font-family:sans-serif;" y="6" transform="translate(399.7913 279)" fill="#6E7079">92km</text>
<text dominant-baseline="central" text-anchor="middle" style="font-size:12px;font-family:sans-serif;" y="6" transform="translate(448.3291 279)" fill="#6E7079">105km</text>
<text dominant-baseline="central" text-anchor="middle" style="font-size:12px;font-family:sans-serif;" y="6" transform="translate(496.8668 279)" fill="#6E7079">118km</text>
<text dominant-baseline="central" text-anchor="middle" style="font-size:12px;font-family:sans-serif;" y="6" transform="translate(545.4046 279)" fill="#6E7079">131km</text>
<text dominant-baseline="central" text-anchor="middle" style="font-size:12px;font-family:sans-serif;" y="6" transform="translate(593.9424 279)" fill="#6E7079">144km</text>
<text dominant-baseline="central" text-anchor="middle" style="font-size:12px;font-family:sans-serif;" y="6" transform="translate(642.4802 279)" fill="#6E7079">157km</text>
<text dominant-baseline="central" text-anchor="middle" style="font-size:12px;font-family:sans-serif;" y="6" transform="translate(691.0179 279)" fill="#6E7079">170km</text>
<text dominant-baseline="central" text-anchor="middle" style="font-size:12px;font-family:sans-serif;" y="6" transform="translate(739.5557 279)" fill="#6E7079">183km</text>
<text dominant-baseline="central" text-anchor="middle" style="font-size:12px;font-family:sans-serif;" y="6" transform="translate(788.0935 279)" fill="#6E7079">196km</text>
<text dominant-baseline="central" text-anchor="middle" style="font-size:12px;font-family:sans-serif;" y="6" transform="translate(836.6313 279)" fill="#6E7079">209km</text>
<text dominant-baseline="central" text-anchor="middle" style="font-size:12px;font-family:sans-serif;" y="6" transform="translate(885.1691 279)" fill="#6E7079">222km</text>
<path d="M58.7 271l2.6 0l0 -209.6l-2.6 0Z" fill="rgb(227,73,2)" fill-opacity="0.3"></path>
<path d="M62.5 271l2.6 0l0 -209.6l-2.6 0Z" fill="rgb(227,73,2)" fill-opacity="0.3"></path>
<path d="M66.2 271l2.6 0l0 -209.2l-2.6 0Z" fill="rgb(227,73,2)" fill-opacity="0.3"></path>
<path d="M69.9 271l2.6 0l0 -209l-2.6 0Z" fill="rgb(227,73,2)" fill-opacity="0.3"></path>
<path d="M73.7 271l2.6 0l0 -207.8l-2.6 0Z" fill="rgb(227,73,2)" fill-opacity="0.3"></path>
<path d="M77.4 271l2.6 0l0 -207.4l-2.6 0Z" fill="rgb(227,73,2)" fill-opacity="0.3"></path>
<path d="M81.1 271l2.6 0l0 -206l-2.6 0Z" fill="rgb(227,73,2)" fill-opacity="0.3"></path>
<path d="M84.9 271l2.6 0l0 -204.9l-2.6 0Z" fill="rgb(227,73,2)" fill-opacity="0.3"></path>
<path d="M88.6 271l2.6 0l0 -203.7l-2.6 0Z" fill="rgb(227,73,2)" fill-opacity="0.3"></path>
<path d="M92.3 271l2.6 0l0 -202.8l-2.6 0Z" fill="rgb(227,73,2)" fill-opacity="0.3"></path>
<path d="M96.1 271l2.6 0l0 -201.5l-2.6 0Z" fill="rgb(227,73,2)" fill-opacity="0.3"></path>
<path d="M99.8 271l2.6 0l0 -200.6l-2.6 0Z" fill="rgb(227,73,2)" fill-opacity="0.3"></path>
<path d="M103.5 271l2.6 0l0 -199.4l-2.6 0Z" fill="rgb(227,73,2)" fill-opacity="0.3"></path>
<path d="M107.3 271l2.6 0l0 -197.4l-2.6 0Z" fill="rgb(227,73,2)" fill-opacity="0.3"></path>
<path d="M111 271l2.6 0l0 -194.7l-2.6 0Z" fill="rgb(227,73,2)" fill-opacity="0.3"></path>
<path d="M114.7 271l2.6 0l0 -185.1l-2.6 0Z" fill="rgb(227,73,2)" fill-opacity="0.3"></path>
<path d="M118.5 271l2.6 0l0 -170.8l-2.6 0Z" fill="rgb(227,73,2)" fill-opacity="0.3"></path>
<path d="M122.2 271l2.6 0l0 -144.5l-2.6 0Z" fill="rgb(227,73,2)" fill-opacity="0.3"></path>
<path d="M125.9 271l2.6 0l0 -133.4l-2.6 0Z" fill="rgb(227,73,2)" fill-opacity="0.3"></path>
<path d="M129.7 271l2.6 0l0 -128.6l-2.6 0Z" fill="rgb(227,73,2)" fill-opacity="0.3"></path>
<path d="M133.4 271l2.6 0l0 -125.7l-2.6 0Z" fill="rgb(227,73,2)" fill-opacity="0.3"></path>
<path d="M137.1 271l2.6 0l0 -122.7l-2.6 0Z" fill="rgb(227,73,2)" fill-opacity="0.3"></path>
<path d="M140.9 271l2.6 0l0 -120.5l-2.6 0Z" fill="rgb(227,73,2)" fill-opacity="0.3"></path>
<path d="M144.6 271l2.6 0l0 -118.7l-2.6 0Z" fill="rgb(227,73,2)" fill-opacity="0.3"></path>
<path d="M148.3 271l2.6 0l0 -114.3l-2.6 0Z" fill="rgb(227,73,2)" fill-opacity="0.3"></path>
<path d="M152.1 271l2.6 0l0 -109.8l-2.6 0Z" fill="rgb(227,73,2)" fill-opacity="0.3"></path>
<path d="M155.8 271l2.6 0l0 -106.6l-2.6 0Z" fill="rgb(227,73,2)" fill-opacity="0.3"></path>
<path d="M159.5 271l2.6 0l0 -102.3l-2.6 0Z" fill="rgb(227,73,2)" fill-opacity="0.3"></path>
<path d="M163.3 271l2.6 0l0 -97.1l-2.6 0Z" fill="rgb(227,73,2)" fill-opacity="0.3"></path>
<path d="M167 271l2.6 0l0 -94.2l-2.6 0Z" fill="rgb(227,73,2)" fill-opacity="0.3"></path>
<path d="M170.7 271l2.6 0l0 -88l-2.6 0Z" fill="rgb(227,73,2)" fill-opacity="0.3"></path>
<path d="M174.5 271l2.6 0l0 -80.8l-2.6 0Z" fill="rgb(227,73,2)" fill-opacity="0.3"></path>
<path d="M178.2 271l2.6 0l0 -76.7l-2.6 0Z" fill="rgb(227,73,2)" fill-opacity="0.3"></path>
<path d="M182 271l2.6 0l0 -73.1l-2.6 0Z" fill="rgb(227,73,2)" fill-opacity="0.3"></path>
<path d="M185.7 271l2.6 0l0 -70.8l-2.6 0Z" fill="rgb(227,73,2)" fill-opacity="0.3"></path>
<path d="M189.4 271l2.6 0l0 -67.8l-2.6 0Z" fill="rgb(227,73,2)" fill-opacity="0.3"></path>
<path d="M193.2 271l2.6 0l0 -66.7l-2.6 0Z" fill="rgb(227,73,2)" fill-opacity="0.3"></path>
<path d="M196.9 271l2.6 0l0 -65.1l-2.6 0Z" fill="rgb(227,73,2)" fill-opacity="0.3"></path>
<path d="M200.6 271l2.6 0l0 -64.2l-2.6 0Z" fill="rgb(227,73,2)" fill-opacity="0.3"></path>
<path d="M204.4 271l2.6 0l0 -63.3l-2.6 0Z" fill="rgb(227,73,2)" fill-opacity="0.3"></path>
<path d="M208.1 271l2.6 0l0 -61l-2.6 0Z" fill="rgb(227,73,2)" fill-opacity="0.3"></path>
<path d="M211.8 271l2.6 0l0 -59.7l-2.6 0Z" fill="rgb(227,73,2)" fill-opacity="0.3"></path>
<path d="M215.6 271l2.6 0l0 -56.3l-2.6 0Z" fill="rgb(227,73,2)" fill-opacity="0.3"></path>
<path d="M219.3 271l2.6 0l0 -54.7l-2.6 0Z" fill="rgb(227,73,2)" fill-opacity="0.3"></path>
<path d="M223 271l2.6 0l0 -53.1l-2.6 0Z" fill="rgb(227,73,2)" fill-opacity="0.3"></path>
<path d="M226.8 271l2.6 0l0 -51l-2.6 0Z" fill="rgb(227,73,2)" fill-opacity="0.3"></path>
<path d="M230.5 271l2.6 0l0 -49l-2.6 0Z" fill="rgb(227,73,2)" fill-opacity="0.3"></path>
<path d="M234.2 271l2.6 0l0 -47.4l-2.6 0Z" fill="rgb(227,73,2)" fill-opacity="0.3"></path>
<path d="M238 271l2.6 0l0 -46.3l-2.6 0Z" fill="rgb(227,73,2)" fill-opacity="0.3"></path>
<path d="M241.7 271l2.6 0l0 -45.4l-2.6 0Z" fill="rgb(227,73,2)" fill-opacity="0.3"></path>
<path d="M245.4 271l2.6 0l0 -42.9l-2.6 0Z" fill="rgb(227,73,2)" fill-opacity="0.3"></path>
<path d="M249.2 271l2.6 0l0 -42l-2.6 0Z" fill="rgb(227,73,2)" fill-opacity="0.3"></path>
<path d="M252.9 271l2.6 0l0 -41.1l-2.6 0Z" fill="rgb(227,73,2)" fill-opacity="0.3"></path>
<path d="M256.6 271l2.6 0l0 -39.7l-2.6 0Z" fill="rgb(227,73,2)" fill-opacity="0.3"></path>
<path d="M260.4 271l2.6 0l0 -38.8l-2.6 0Z" fill="rgb(227,73,2)" fill-opacity="0.3"></path>
<path d="M264.1 271l2.6 0l0 -37.7l-2.6 0Z" fill="rgb(227,73,2)" fill-opacity="0.3"></path>
<path d="M267.8 271l2.6 0l0 -37l-2.6 0Z" fill="rgb(227,73,2)" fill-opacity="0.3"></path>
<path d="M271.6 271l2.6 0l0 -37l-2.6 0Z" fill="rgb(227,73,2)" fill-opacity="0.3"></path>
<path d="M275.3 271l2.6 0l0 -35.8l-2.6 0Z" fill="rgb(227,73,2)" fill-opacity="0.3"></path>
<path d="M279 271l2.6 0l0 -35.2l-2.6 0Z" fill="rgb(227,73,2)" fill-opacity="0.3"></path>
<path d="M282.8 271l2.6 0l0 -34l-2.6 0Z" fill="rgb(227,73,2)" fill-opacity="0.3"></path>
<path d="M286.5 271l2.6 0l0 -32.7l-2.6 0Z" fill="rgb(227,73,2)" fill-opacity="0.3"></path>
<path d="M290.2 271l2.6 0l0 -32l-2.6 0Z" fill="rgb(227,73,2)" fill-opacity="0.3"></path>
<path d="M294 271l2.6 0l0 -31.1l-2.6 0Z" fill="rgb(227,73,2)" fill-opacity="0.3"></path>
<path d="M297.7 271l2.6 0l0 -29.9l-2.6 0Z" fill="rgb(227,73,2)" fill-opacity="0.3"></path>
<path d="M301.4 271l2.6 0l0 -29.5l-2.6 0Z" fill="rgb(227,73,2)" fill-opacity="0.3"></path>
<path d="M305.2 271l2.6 0l0 -29l-2.6 0Z" fill="rgb(227,73,2)" fill-opacity="0.3"></path>
<path d="M308.9 271l2.6 0l0 -29l-2.6 0Z" fill="rgb(227,73,2)" fill-opacity="0.3"></path>
<path d="M312.6 271l2.6 0l0 -27.7l-2.6 0Z" fill="rgb(227,73,2)" fill-opacity="0.3"></path>
<path d="M316.4 271l2.6 0l0 -27l-2.6 0Z" fill="rgb(227,73,2)" fill-opacity="0.3"></path>
<path d="M320.1 271l2.6 0l0 -26.5l-2.6 0Z" fill="rgb(227,73,2)" fill-opacity="0.3"></path>
<path d="M323.8 271l2.6 0l0 -26.1l-2.6 0Z" fill="rgb(227,73,2)" fill-opacity="0.3"></path>
<path d="M327.6 271l2.6 0l0 -25.6l-2.6 0Z" fill="rgb(227,73,2)" fill-opacity="0.3"></path>
<path d="M331.3 271l2.6 0l0 -25.4l-2.6 0Z" fill="rgb(227,73,2)" fill-opacity="0.3"></path>
<path d="M335 271l2.6 0l0 -25l-2.6 0Z" fill="rgb(227,73,2)" fill-opacity="0.3"></path>
<path d="M338.8 271l2.6 0l0 -23.4l-2.6 0Z" fill="rgb(227,73,2)" fill-opacity="0.3"></path>
<path d="M342.5 271l2.6 0l0 -22.9l-2.6 0Z" fill="rgb(227,73,2)" fill-opacity="0.3"></path>
<path d="M346.2 271l2.6 0l0 -22l-2.6 0Z" fill="rgb(227,73,2)" fill-opacity="0.3"></path>
<path d="M350 271l2.6 0l0 -21.8l-2.6 0Z" fill="rgb(227,73,2)" fill-opacity="0.3"></path>
<path d="M353.7 271l2.6 0l0 -21.3l-2.6 0Z" fill="rgb(227,73,2)" fill-opacity="0.3"></path>
<path d="M357.4 271l2.6 0l0 -20.4l-2.6 0Z" fill="rgb(227,73,2)" fill-opacity="0.3"></path>
<path d="M361.2 271l2.6 0l0 -19.7l-2.6 0Z" fill="rgb(227,73,2)" fill-opacity="0.3"></path>
<path d="M364.9 271l2.6 0l0 -18.8l-2.6 0Z" fill="rgb(227,73,2)" fill-opacity="0.8"></path>
<path d="M368.6 271l2.6 0l0 -17.9l-2.6 0Z" fill="rgb(227,73,2)" fill-opacity="0.3"></path>
<path d="M372.4 271l2.6 0l0 -16.8l-2.6 0Z" fill="rgb(227,73,2)" fill-opacity="0.3"></path>
<path d="M376.1 271l2.6 0l0 -16.3l-2.6 0Z" fill="rgb(227,73,2)" fill-opacity="0.3"></path>
<path d="M379.8 271l2.6 0l0 -15.7l-2.6 0Z" fill="rgb(227,73,2)" fill-opacity="0.3"></path>
<path d="M383.6 271l2.6 0l0 -14.7l-2.6 0Z" fill="rgb(227,73,2)" fill-opacity="0.3"></path>
<path d="M387.3 271l2.6 0l0 -14.3l-2.6 0Z" fill="rgb(227,73,2)" fill-opacity="0.3"></path>
<path d="M391 271l2.6 0l0 -13.8l-2.6 0Z" fill="rgb(227,73,2)" fill-opacity="0.3"></path>
<path d="M394.8 271l2.6 0l0 -13.4l-2.6 0Z" fill="rgb(227,73,2)" fill-opacity="0.3"></path>
<path d="M398.5 271l2.6 0l0 -12.9l-2.6 0Z" fill="rgb(227,73,2)" fill-opacity="0.3"></path>
<path d="M402.2 271l2.6 0l0 -12l-2.6 0Z" fill="rgb(227,73,2)" fill-opacity="0.3"></path>
<path d="M406 271l2.6 0l0 -11.3l-2.6 0Z" fill="rgb(227,73,2)" fill-opacity="0.3"></path>
<path d="M409.7 271l2.6 0l0 -10.7l-2.6 0Z" fill="rgb(227,73,2)" fill-opacity="0.3"></path>
<path d="M413.4 271l2.6 0l0 -10.7l-2.6 0Z" fill="rgb(227,73,2)" fill-opacity="0.3"></path>
<path d="M417.2 271l2.6 0l0 -10.7l-2.6 0Z" fill="rgb(227,73,2)" fill-opacity="0.3"></path>
<path d="M420.9 271l2.6 0l0 -10.4l-2.6 0Z" fill="rgb(227,73,2)" fill-opacity="0.3"></path>
<path d="M424.6 271l2.6 0l0 -10l-2.6 0Z" fill="rgb(227,73,2)" fill-opacity="0.3"></path>
<path d="M428.4 271l2.6 0l0 -10l-2.6 0Z" fill="rgb(227,73,2)" fill-opacity="0.3"></path>
<path d="M432.1 271l2.6 0l0 -7.9l-2.6 0Z" fill="rgb(227,73,2)" fill-opacity="0.3"></path>
<path d="M435.8 271l2.6 0l0 -7l-2.6 0Z" fill="rgb(227,73,2)" fill-opacity="0.3"></path>
<path d="M439.6 271l2.6 0l0 -6.8l-2.6 0Z" fill="rgb(227,73,2)" fill-opacity="0.3"></path>
<path d="M443.3 271l2.6 0l0 -6.4l-2.6 0Z" fill="rgb(227,73,2)" fill-opacity="0.3"></path>
<path d="M447 271l2.6 0l0 -6.1l-2.6 0Z" fill="rgb(227,73,2)" fill-opacity="0.3"></path>
<path d="M450.8 271l2.6 0l0 -6.1l-2.6 0Z" fill="rgb(227,73,2)" fill-opacity="0.3"></path>
<path d="M454.5 271l2.6 0l0 -5.4l-2.6 0Z" fill="rgb(227,73,2)" fill-opacity="0.3"></path>
<path d="M458.2 271l2.6 0l0 -5.4l-2.6 0Z" fill="rgb(227,73,2)" fill-opacity="0.3"></path>
<path d="M462 271l2.6 0l0 -5.4l-2.6 0Z" fill="rgb(227,73,2)" fill-opacity="0.3"></path>
<path d="M465.7 271l2.6 0l0 -5.2l-2.6 0Z" fill="rgb(227,73,2)" fill-opacity="0.3"></path>
<path d="M469.4 271l2.6 0l0 -5l-2.6 0Z" fill="rgb(227,73,2)" fill-opacity="0.3"></path>
<path d="M473.2 271l2.6 0l0 -4.5l-2.6 0Z" fill="rgb(227,73,2)" fill-opacity="0.3"></path>
<path d="M476.9 271l2.6 0l0 -4.1l-2.6 0Z" fill="rgb(227,73,2)" fill-opacity="0.3"></path>
<path d="M480.6 271l2.6 0l0 -3.9l-2.6 0Z" fill="rgb(227,73,2)" fill-opacity="0.3"></path>
<path d="M484.4 271l2.6 0l0 -3.9l-2.6 0Z" fill="rgb(227,73,2)" fill-opacity="0.3"></path>
<path d="M488.1 271l2.6 0l0 -3.6l-2.6 0Z" fill="rgb(227,73,2)" fill-opacity="0.3"></path>
<path d="M491.8 271l2.6 0l0 -3.6l-2.6 0Z" fill="rgb(227,73,2)" fill-opacity="0.3"></path>
<path d="M495.6 271l2.6 0l0 -3.6l-2.6 0Z" fill="rgb(227,73,2)" fill-opacity="0.3"></path>
<path d="M499.3 271l2.6 0l0 -3.2l-2.6 0Z" fill="rgb(227,73,2)" fill-opacity="0.3"></path>
<path d="M503 271l2.6 0l0 -3.2l-2.6 0Z" fill="rgb(227,73,2)" fill-opacity="0.3"></path>
<path d="M506.8 271l2.6 0l0 -3.2l-2.6 0Z" fill="rgb(227,73,2)" fill-opacity="0.3"></path>
<path d="M510.5 271l2.6 0l0 -2.9l-2.6 0Z" fill="rgb(227,73,2)" fill-opacity="0.3"></path>
<path d="M514.2 271l2.6 0l0 -2.9l-2.6 0Z" fill="rgb(227,73,2)" fill-opacity="0.3"></path>
<path d="M518 271l2.6 0l0 -2.9l-2.6 0Z" fill="rgb(227,73,2)" fill-opacity="0.3"></path>
<path d="M521.7 271l2.6 0l0 -2.9l-2.6 0Z" fill="rgb(227,73,2)" fill-opacity="0.3"></path>
<path d="M525.4 271l2.6 0l0 -2.7l-2.6 0Z" fill="rgb(227,73,2)" fill-opacity="0.3"></path>
<path d="M529.2 271l2.6 0l0 -2.7l-2.6 0Z" fill="rgb(227,73,2)" fill-opacity="0.3"></path>
<path d="M532.9 271l2.6 0l0 -2.7l-2.6 0Z" fill="rgb(227,73,2)" fill-opacity="0.3"></path>
<path d="M536.6 271l2.6 0l0 -2.5l-2.6 0Z" fill="rgb(227,73,2)" fill-opacity="0.3"></path>
<path d="M540.4 271l2.6 0l0 -2.5l-2.6 0Z" fill="rgb(227,73,2)" fill-opacity="0.3"></path>
<path d="M544.1 271l2.6 0l0 -2.5l-2.6 0Z" fill="rgb(227,73,2)" fill-opacity="0.3"></path>
<path d="M547.9 271l2.6 0l0 -2.5l-2.6 0Z" fill="rgb(227,73,2)" fill-opacity="0.3"></path>
<path d="M551.6 271l2.6 0l0 -2.5l-2.6 0Z" fill="rgb(227,73,2)" fill-opacity="0.3"></path>
<path d="M555.3 271l2.6 0l0 -2.3l-2.6 0Z" fill="rgb(227,73,2)" fill-opacity="0.3"></path>
<path d="M559.1 271l2.6 0l0 -2.3l-2.6 0Z" fill="rgb(227,73,2)" fill-opacity="0.3"></path>
<path d="M562.8 271l2.6 0l0 -2.3l-2.6 0Z" fill="rgb(227,73,2)" fill-opacity="0.3"></path>
<path d="M566.5 271l2.6 0l0 -2.3l-2.6 0Z" fill="rgb(227,73,2)" fill-opacity="0.3"></path>
<path d="M570.3 271l2.6 0l0 -2l-2.6 0Z" fill="rgb(227,73,2)" fill-opacity="0.3"></path>
<path d="M574 271l2.6 0l0 -2l-2.6 0Z" fill="rgb(227,73,2)" fill-opacity="0.3"></path>
<path d="M577.7 271l2.6 0l0 -2l-2.6 0Z" fill="rgb(227,73,2)" fill-opacity="0.3"></path>
<path d="M581.5 271l2.6 0l0 -1.8l-2.6 0Z" fill="rgb(227,73,2)" fill-opacity="0.3"></path>
<path d="M585.2 271l2.6 0l0 -1.8l-2.6 0Z" fill="rgb(227,73,2)" fill-opacity="0.3"></path>
<path d="M588.9 271l2.6 0l0 -1.8l-2.6 0Z" fill="rgb(227,73,2)" fill-opacity="0.3"></path>
<path d="M592.7 271l2.6 0l0 -1.8l-2.6 0Z" fill="rgb(227,73,2)" fill-opacity="0.3"></path>
<path d="M596.4 271l2.6 0l0 -1.8l-2.6 0Z" fill="rgb(227,73,2)" fill-opacity="0.3"></path>
<path d="M600.1 271l2.6 0l0 -1.8l-2.6 0Z" fill="rgb(227,73,2)" fill-opacity="0.3"></path>
<path d="M603.9 271l2.6 0l0 -1.8l-2.6 0Z" fill="rgb(227,73,2)" fill-opacity="0.3"></path>
<path d="M607.6 271l2.6 0l0 -1.8l-2.6 0Z" fill="rgb(227,73,2)" fill-opacity="0.3"></path>
<path d="M611.3 271l2.6 0l0 -1.8l-2.6 0Z" fill="rgb(227,73,2)" fill-opacity="0.3"></path>
<path d="M615.1 271l2.6 0l0 -1.8l-2.6 0Z" fill="rgb(227,73,2)" fill-opacity="0.3"></path>
<path d="M618.8 271l2.6 0l0 -1.6l-2.6 0Z" fill="rgb(227,73,2)" fill-opacity="0.3"></path>
<path d="M622.5 271l2.6 0l0 -1.6l-2.6 0Z" fill="rgb(227,73,2)" fill-opacity="0.3"></path>
<path d="M626.3 271l2.6 0l0 -1.4l-2.6 0Z" fill="rgb(227,73,2)" fill-opacity="0.3"></path>
<path d="M630 271l2.6 0l0 -1.4l-2.6 0Z" fill="rgb(227,73,2)" fill-opacity="0.3"></path>
<path d="M633.7 271l2.6 0l0 -1.4l-2.6 0Z" fill="rgb(227,73,2)" fill-opacity="0.3"></path>
<path d="M637.5 271l2.6 0l0 -1.4l-2.6 0Z" fill="rgb(227,73,2)" fill-opacity="0.3"></path>
<path d="M641.2 271l2.6 0l0 -1.4l-2.6 0Z" fill="rgb(227,73,2)" fill-opacity="0.3"></path>
<path d="M644.9 271l2.6 0l0 -1.4l-2.6 0Z" fill="rgb(227,73,2)" fill-opacity="0.3"></path>
<path d="M648.7 271l2.6 0l0 -1.4l-2.6 0Z" fill="rgb(227,73,2)" fill-opacity="0.3"></path>
<path d="M652.4 271l2.6 0l0 -1.4l-2.6 0Z" fill="rgb(227,73,2)" fill-opacity="0.3"></path>
<path d="M656.1 271l2.6 0l0 -1.1l-2.6 0Z" fill="rgb(227,73,2)" fill-opacity="0.3"></path>
<path d="M659.9 271l2.6 0l0 -1.1l-2.6 0Z" fill="rgb(227,73,2)" fill-opacity="0.3"></path>
<path d="M663.6 271l2.6 0l0 -1.1l-2.6 0Z" fill="rgb(227,73,2)" fill-opacity="0.3"></path>
<path d="M667.3 271l2.6 0l0 -1.1l-2.6 0Z" fill="rgb(227,73,2)" fill-opacity="0.3"></path>
<path d="M671.1 271l2.6 0l0 -1.1l-2.6 0Z" fill="rgb(227,73,2)" fill-opacity="0.3"></path>
<path d="M674.8 271l2.6 0l0 -1.1l-2.6 0Z" fill="rgb(227,73,2)" fill-opacity="0.3"></path>
<path d="M678.5 271l2.6 0l0 -1.1l-2.6 0Z" fill="rgb(227,73,2)" fill-opacity="0.3"></path>
<path d="M682.3 271l2.6 0l0 -1.1l-2.6 0Z" fill="rgb(227,73,2)" fill-opacity="0.3"></path>
<path d="M686 271l2.6 0l0 -1.1l-2.6 0Z" fill="rgb(227,73,2)" fill-opacity="0.3"></path>
<path d="M689.7 271l2.6 0l0 -1.1l-2.6 0Z" fill="rgb(227,73,2)" fill-opacity="0.3"></path>
<path d="M693.5 271l2.6 0l0 -1.1l-2.6 0Z" fill="rgb(227,73,2)" fill-opacity="0.3"></path>
<path d="M697.2 271l2.6 0l0 -1.1l-2.6 0Z" fill="rgb(227,73,2)" fill-opacity="0.3"></path>
<path d="M700.9 271l2.6 0l0 -1.1l-2.6 0Z" fill="rgb(227,73,2)" fill-opacity="0.3"></path>
<path d="M704.7 271l2.6 0l0 -1.1l-2.6 0Z" fill="rgb(227,73,2)" fill-opacity="0.3"></path>
<path d="M708.4 271l2.6 0l0 -1.1l-2.6 0Z" fill="rgb(227,73,2)" fill-opacity="0.3"></path>
<path d="M712.1 271l2.6 0l0 -1.1l-2.6 0Z" fill="rgb(227,73,2)" fill-opacity="0.3"></path>
<path d="M715.9 271l2.6 0l0 -1.1l-2.6 0Z" fill="rgb(227,73,2)" fill-opacity="0.3"></path>
<path d="M719.6 271l2.6 0l0 -1.1l-2.6 0Z" fill="rgb(227,73,2)" fill-opacity="0.3"></path>
<path d="M723.3 271l2.6 0l0 -1.1l-2.6 0Z" fill="rgb(227,73,2)" fill-opacity="0.3"></path>
<path d="M727.1 271l2.6 0l0 -1.1l-2.6 0Z" fill="rgb(227,73,2)" fill-opacity="0.3"></path>
<path d="M730.8 271l2.6 0l0 -0.9l-2.6 0Z" fill="rgb(227,73,2)" fill-opacity="0.3"></path>
<path d="M734.5 271l2.6 0l0 -0.9l-2.6 0Z" fill="rgb(227,73,2)" fill-opacity="0.3"></path>
<path d="M738.3 271l2.6 0l0 -0.9l-2.6 0Z" fill="rgb(227,73,2)" fill-opacity="0.3"></path>
<path d="M742 271l2.6 0l0 -0.9l-2.6 0Z" fill="rgb(227,73,2)" fill-opacity="0.3"></path>
<path d="M745.7 271l2.6 0l0 -0.9l-2.6 0Z" fill="rgb(227,73,2)" fill-opacity="0.3"></path>
<path d="M749.5 271l2.6 0l0 -0.9l-2.6 0Z" fill="rgb(227,73,2)" fill-opacity="0.3"></path>
<path d="M753.2 271l2.6 0l0 -0.9l-2.6 0Z" fill="rgb(227,73,2)" fill-opacity="0.3"></path>
<path d="M756.9 271l2.6 0l0 -0.9l-2.6 0Z" fill="rgb(227,73,2)" fill-opacity="0.3"></path>
<path d="M760.7 271l2.6 0l0 -0.9l-2.6 0Z" fill="rgb(227,73,2)" fill-opacity="0.3"></path>
<path d="M764.4 271l2.6 0l0 -0.7l-2.6 0Z" fill="rgb(227,73,2)" fill-opacity="0.3"></path>
<path d="M768.1 271l2.6 0l0 -0.7l-2.6 0Z" fill="rgb(227,73,2)" fill-opacity="0.3"></path>
<path d="M771.9 271l2.6 0l0 -0.7l-2.6 0Z" fill="rgb(227,73,2)" fill-opacity="0.3"></path>
<path d="M775.6 271l2.6 0l0 -0.7l-2.6 0Z" fill="rgb(227,73,2)" fill-opacity="0.3"></path>
<path d="M779.3 271l2.6 0l0 -0.7l-2.6 0Z" fill="rgb(227,73,2)" fill-opacity="0.3"></path>
<path d="M783.1 271l2.6 0l0 -0.7l-2.6 0Z" fill="rgb(227,73,2)" fill-opacity="0.3"></path>
<path d="M786.8 271l2.6 0l0 -0.7l-2.6 0Z" fill="rgb(227,73,2)" fill-opacity="0.3"></path>
<path d="M790.5 271l2.6 0l0 -0.7l-2.6 0Z" fill="rgb(227,73,2)" fill-opacity="0.3"></path>
<path d="M794.3 271l2.6 0l0 -0.7l-2.6 0Z" fill="rgb(227,73,2)" fill-opacity="0.3"></path>
<path d="M798 271l2.6 0l0 -0.7l-2.6 0Z" fill="rgb(227,73,2)" fill-opacity="0.3"></path>
<path d="M801.7 271l2.6 0l0 -0.7l-2.6 0Z" fill="rgb(227,73,2)" fill-opacity="0.3"></path>
<path d="M805.5 271l2.6 0l0 -0.7l-2.6 0Z" fill="rgb(227,73,2)" fill-opacity="0.3"></path>
<path d="M809.2 271l2.6 0l0 -0.5l-2.6 0Z" fill="rgb(227,73,2)" fill-opacity="0.3"></path>
<path d="M812.9 271l2.6 0l0 -0.5l-2.6 0Z" fill="rgb(227,73,2)" fill-opacity="0.3"></path>
<path d="M816.7 271l2.6 0l0 -0.5l-2.6 0Z" fill="rgb(227,73,2)" fill-opacity="0.3"></path>
<path d="M820.4 271l2.6 0l0 -0.5l-2.6 0Z" fill="rgb(227,73,2)" fill-opacity="0.3"></path>
<path d="M824.1 271l2.6 0l0 -0.5l-2.6 0Z" fill="rgb(227,73,2)" fill-opacity="0.3"></path>
<path d="M827.9 271l2.6 0l0 -0.5l-2.6 0Z" fill="rgb(227,73,2)" fill-opacity="0.3"></path>
<path d="M831.6 271l2.6 0l0 -0.5l-2.6 0Z" fill="rgb(227,73,2)" fill-opacity="0.3"></path>
<path d="M835.3 271l2.6 0l0 -0.5l-2.6 0Z" fill="rgb(227,73,2)" fill-opacity="0.3"></path>
<path d="M839.1 271l2.6 0l0 -0.5l-2.6 0Z" fill="rgb(227,73,2)" fill-opacity="0.3"></path>
<path d="M842.8 271l2.6 0l0 -0.5l-2.6 0Z" fill="rgb(227,73,2)" fill-opacity="0.3"></path>
<path d="M846.5 271l2.6 0l0 -0.5l-2.6 0Z" fill="rgb(227,73,2)" fill-opacity="0.3"></path>
<path d="M850.3 271l2.6 0l0 -0.5l-2.6 0Z" fill="rgb(227,73,2)" fill-opacity="0.3"></path>
<path d="M854 271l2.6 0l0 -0.5l-2.6 0Z" fill="rgb(227,73,2)" fill-opacity="0.3"></path>
<path d="M857.7 271l2.6 0l0 -0.5l-2.6 0Z" fill="rgb(227,73,2)" fill-opacity="0.3"></path>
<path d="M861.5 271l2.6 0l0 -0.5l-2.6 0Z" fill="rgb(227,73,2)" fill-opacity="0.3"></path>
<path d="M865.2 271l2.6 0l0 -0.5l-2.6 0Z" fill="rgb(227,73,2)" fill-opacity="0.3"></path>
<path d="M868.9 271l2.6 0l0 -0.5l-2.6 0Z" fill="rgb(227,73,2)" fill-opacity="0.3"></path>
<path d="M872.7 271l2.6 0l0 -0.5l-2.6 0Z" fill="rgb(227,73,2)" fill-opacity="0.3"></path>
<path d="M876.4 271l2.6 0l0 -0.5l-2.6 0Z" fill="rgb(227,73,2)" fill-opacity="0.3"></path>
<path d="M880.1 271l2.6 0l0 -0.5l-2.6 0Z" fill="rgb(227,73,2)" fill-opacity="0.3"></path>
<path d="M883.9 271l2.6 0l0 -0.5l-2.6 0Z" fill="rgb(227,73,2)" fill-opacity="0.3"></path>
<path d="M887.6 271l2.6 0l0 -0.2l-2.6 0Z" fill="rgb(227,73,2)" fill-opacity="0.3"></path>
<path d="M891.3 271l2.6 0l0 -0.2l-2.6 0Z" fill="rgb(227,73,2)" fill-opacity="0.3"></path>
<path d="M895.1 271l2.6 0l0 -0.2l-2.6 0Z" fill="rgb(227,73,2)" fill-opacity="0.3"></path>
<path d="M898.8 271l2.6 0l0 -0.2l-2.6 0Z" fill="rgb(227,73,2)" fill-opacity="0.3"></path>
<path d="M902.5 271l2.6 0l0 -0.2l-2.6 0Z" fill="rgb(227,73,2)" fill-opacity="0.3"></path>
<path d="M906.3 271l2.6 0l0 -0.2l-2.6 0Z" fill="rgb(227,73,2)" fill-opacity="0.3"></path>
<path d="M910 271l2.6 0l0 -0.2l-2.6 0Z" fill="rgb(227,73,2)" fill-opacity="0.3"></path>
<path d="M913.8 271l2.6 0l0 -0.2l-2.6 0Z" fill="rgb(227,73,2)" fill-opacity="0.3"></path>
<path d="M917.5 271l2.6 0l0 -0.2l-2.6 0Z" fill="rgb(227,73,2)" fill-opacity="0.3"></path>
<path d="M921.2 271l2.6 0l0 -0.2l-2.6 0Z" fill="rgb(227,73,2)" fill-opacity="0.3"></path>
<path d="M925 271l2.6 0l0 -0.2l-2.6 0Z" fill="rgb(227,73,2)" fill-opacity="0.3"></path>
<path d="M928.7 271l2.6 0l0 -0.2l-2.6 0Z" fill="rgb(227,73,2)" fill-opacity="0.3"></path>
<path d="M-5 -5l226.9 0l0 24l-226.9 0Z" transform="translate(391.54 5)" fill="rgb(0,0,0)" fill-opacity="0" stroke="#ccc" stroke-width="0"></path>
<path d="M3.5 0L21.5 0A3.5 3.5 0 0 1 25 3.5L25 10.5A3.5 3.5 0 0 1 21.5 14L3.5 14A3.5 3.5 0 0 1 0 10.5L0 3.5A3.5 3.5 0 0 1 3.5 0" transform="translate(391.54 5)" fill="rgb(227,73,2)" fill-opacity="0.3"></path>
<text dominant-baseline="central" text-anchor="start" style="font-size:12px;font-family:sans-serif;" xml:space="preserve" x="30" y="7" transform="translate(391.54 5)" fill="#333">Times completed</text>
<path d="M0 7L25 7" transform="translate(524.1 5)" fill="#000" stroke="#E34902" stroke-width="2" stroke-linecap="butt" stroke-miterlimit="10"></path>
<path d="M18.1 7A5.6 5.6 0 1 1 18.1 6.4A5.6 5.6 0 0 1 18.1 7" transform="translate(524.1 5)" fill="#fff" stroke="#E34902" stroke-width="2" stroke-linecap="butt" stroke-miterlimit="10"></path>
<text dominant-baseline="central" text-anchor="start" style="font-size:12px;font-family:sans-serif;" x="30" y="7" transform="translate(524.1 5)" fill="#333">Eddington</text>
<path d="M-0.54 -0.89A0.6 0.6 0 1 1 0.54 -0.89C0.39 -0.56 0 -0.42 0 0C0 -0.42 -0.39 -0.56 -0.54 -0.89Z" transform="matrix(25,0,0,25,366.1882,247.3957)" fill="rgb(227,73,2)" fill-opacity="0.8"></path>
<text dominant-baseline="central" text-anchor="middle" style="font-size:12px;font-family:sans-serif;" transform="translate(366.1882 221.2528)" fill="#eee" stroke="rgb(227,73,2)" stroke-width="2" paint-order="stroke" stroke-opacity="0.8" stroke-miterlimit="2">83</text>
<g clip-path="url(#zr0-c0)">
<path d="M60 270.8L63.8 270.5L67.5 270.3L71.2 270.1L75 269.9L78.7 269.6L82.4 269.4L86.2 269.2L89.9 269L93.6 268.7L97.4 268.5L101.1 268.3L104.8 268.1L108.6 267.8L112.3 267.6L116 267.4L119.8 267.1L123.5 266.9L127.2 266.7L131 266.5L134.7 266.2L138.4 266L142.2 265.8L145.9 265.6L149.6 265.3L153.4 265.1L157.1 264.9L160.8 264.6L164.6 264.4L168.3 264.2L172 264L175.8 263.7L179.5 263.5L183.2 263.3L187 263.1L190.7 262.8L194.4 262.6L198.2 262.4L201.9 262.2L205.6 261.9L209.4 261.7L213.1 261.5L216.8 261.2L220.6 261L224.3 260.8L228 260.6L231.8 260.3L235.5 260.1L239.2 259.9L243 259.7L246.7 259.4L250.4 259.2L254.2 259L257.9 258.7L261.6 258.5L265.4 258.3L269.1 258.1L272.8 257.8L276.6 257.6L280.3 257.4L284 257.2L287.8 256.9L291.5 256.7L295.2 256.5L299 256.3L302.7 256L306.4 255.8L310.2 255.6L313.9 255.3L317.7 255.1L321.4 254.9L325.1 254.7L328.9 254.4L332.6 254.2L336.3 254L340.1 253.8L343.8 253.5L347.5 253.3L351.3 253.1L355 252.8L358.7 252.6L362.5 252.4L366.2 252.2L369.9 251.9L373.7 251.7L377.4 251.5L381.1 251.3L384.9 251L388.6 250.8L392.3 250.6L396.1 250.4L399.8 250.1L403.5 249.9L407.3 249.7L411 249.4L414.7 249.2L418.5 249L422.2 248.8L425.9 248.5L429.7 248.3L433.4 248.1L437.1 247.9L440.9 247.6L444.6 247.4L448.3 247.2L452.1 247L455.8 246.7L459.5 246.5L463.3 246.3L467 246L470.7 245.8L474.5 245.6L478.2 245.4L481.9 245.1L485.7 244.9L489.4 244.7L493.1 244.5L496.9 244.2L500.6 244L504.3 243.8L508.1 243.5L511.8 243.3L515.5 243.1L519.3 242.9L523 242.6L526.7 242.4L530.5 242.2L534.2 242L537.9 241.7L541.7 241.5L545.4 241.3L549.1 241.1L552.9 240.8L556.6 240.6L560.3 240.4L564.1 240.1L567.8 239.9L571.5 239.7L575.3 239.5L579 239.2L582.7 239L586.5 238.8L590.2 238.6L593.9 238.3L597.7 238.1L601.4 237.9L605.1 237.6L608.9 237.4L612.6 237.2L616.3 237L620.1 236.7L623.8 236.5L627.5 236.3L631.3 236.1L635 235.8L638.7 235.6L642.5 235.4L646.2 235.2L649.9 234.9L653.7 234.7L657.4 234.5L661.1 234.2L664.9 234L668.6 233.8L672.3 233.6L676.1 233.3L679.8 233.1L683.6 232.9L687.3 232.7L691 232.4L694.8 232.2L698.5 232L702.2 231.7L706 231.5L709.7 231.3L713.4 231.1L717.2 230.8L720.9 230.6L724.6 230.4L728.4 230.2L732.1 229.9L735.8 229.7L739.6 229.5L743.3 229.3L747 229L750.8 228.8L754.5 228.6L758.2 228.3L762 228.1L765.7 227.9L769.4 227.7L773.2 227.4L776.9 227.2L780.6 227L784.4 226.8L788.1 226.5L791.8 226.3L795.6 226.1L799.3 225.9L803 225.6L806.8 225.4L810.5 225.2L814.2 224.9L818 224.7L821.7 224.5L825.4 224.3L829.2 224L832.9 223.8L836.6 223.6L840.4 223.4L844.1 223.1L847.8 222.9L851.6 222.7L855.3 222.4L859 222.2L862.8 222L866.5 221.8L870.2 221.5L874 221.3L877.7 221.1L881.4 220.9L885.2 220.6L888.9 220.4L892.6 220.2L896.4 220L900.1 219.7L903.8 219.5L907.6 219.3L911.3 219L915 218.8L918.8 218.6L922.5 218.4L926.2 218.1L930 217.9" fill="none" stroke="#E34902" stroke-width="2" stroke-linejoin="bevel"></path>
</g>
<defs >
<clipPath id="zr0-c0">
<path d="M57 59l876 0l0 213l-876 0Z" fill="#000"></path>
</clipPath>
</defs>
</svg>