<svg width="1000" height="300" xmlns="http://www.w3.org/2000/svg" xmlns:xlink="http://www.w3.org/1999/xlink" version="1.1" baseProfile="full" viewBox="0 0 1000 300">
<rect width="1000" height="300" x="0" y="0" id="0" fill="#ffffff"></rect>
<path d="M58.2 271.5L931.8 271.5" fill="none" stroke="#E0E6F1"></path>
<path d="M58.2 226.5L931.8 226.5" fill="none" stroke="#E0E6F1"></path>
<path d="M58.2 181.5L931.8 181.5" fill="none" stroke="#E0E6F1"></path>
<path d="M58.2 136.5L931.8 136.5" fill="none" stroke="#E0E6F1"></path>
<path d="M58.2 92.5L931.8 92.5" fill="none" stroke="#E0E6F1"></path>
<path d="M58.2 60.5L931.8 60.5" fill="none" stroke="#E0E6F1"></path>
<path d="M58.2 271.5L931.8 271.5" fill="none" stroke="#6E7079" stroke-linecap="round"></path>
<path d="M60.5 271L60.5 276" fill="none" stroke="#6E7079"></path>
<path d="M108.5 271L108.5 276" fill="none" stroke="#6E7079"></path>
<path d="M157.5 271L157.5 276" fill="none" stroke="#6E7079"></path>
<path d="M205.5 271L205.5 276" fill="none" stroke="#6E7079"></path>
<path d="M254.5 271L254.5 276" fill="none" stroke="#6E7079"></path>
<path d="M302.5 271L302.5 276" fill="none" stroke="#6E7079"></path>
<path d="M351.5 271L351.5 276" fill="none" stroke="#6E7079"></path>
<path d="M400.5 271L400.5 276" fill="none" stroke="#6E7079"></path>
<path d="M448.5 271L448.5 276" fill="none" stroke="#6E7079"></path>
<path d="M497.5 271L497.5 276" fill="none" stroke="#6E7079"></path>
<path d="M545.5 271L545.5 276" fill="none" stroke="#6E7079"></path>
<path d="M594.5 271L594.5 276" fill="none" stroke="#6E7079"></path>
<path d="M642.5 271L642.5 276" fill="none" stroke="#6E7079"></path>
<path d="M691.5 271L691.5 276" fill="none" stroke="#6E7079"></path>
<path d="M739.5 271L739.5 276" fill="none" stroke="#6E7079"></path>
<path d="M788.5 271L788.5 276" fill="none" stroke="#6E7079"></path>
<path d="M836.5 271L836.5 276" fill="none" stroke="#6E7079"></path>
<path d="M885.5 271L885.5 276" fill="none" stroke="#6E7079"></path>
<text dominant-baseline="central" text-anchor="end" style="font-size:12px;font-family:sans-serif;" transform="translate(50.16 271)" fill="#6E7079">0</text>
<text dominant-baseline="central" text-anchor="end" style="font-size:12px;font-family:sans-serif;" transform="translate(50.16 226.2424)" fill="#6E7079">210</text>
<text dominant-baseline="central" text-anchor="end" style="font-size:12px;font-family:sans-serif;" transform="translate(50.16 181.4848)" fill="#6E7079">420</text>
<text dominant-baseline="central" text-anchor="end" style="font-size:12px;font-family:sans-serif;" transform="translate(50.16 136.7273)" fill="#6E7079">630</text>
<text dominant-baseline="central" text-anchor="end" style="font-size:12px;font-family:sans-serif;" transform="translate(50.16 91.9697)" fill="#6E7079">840</text>
<text dominant-baseline="central" text-anchor="end" style="font-size:12px;font-family:sans-serif;" transform="translate(50.16 60)" fill="#6E7079">990</text>
<text dominant-baseline="central" text-anchor="start" style="font-size:12px;font-family:sans-serif;" transform="translate(939.84 271)" fill="#6E7079">0</text>
<text dominant-baseline="central" text-anchor="start" style="font-size:12px;font-family:sans-serif;" transform="translate(939.84 226.2424)" fill="#6E7079">210</text>
<text dominant-baseline="central" text-anchor="start" style="font-size:12px;font-family:sans-serif;" transform="translate(939.84 181.4848)" fill="#6E7079">420</text>
<text dominant-baseline="central" text-anchor="start" style="font-size:12px;font-family:sans-serif;" transform="translate(939.84 136.7273)" fill="#6E7079">630</text>
<text dominant-baseline="central" text-anchor="start" style="font-size:12px;font-family:sans-serif;" transform="translate(939.84 91.9697)" fill="#6E7079">840</text>
<text dominant-baseline="central" text-anchor="start" style="font-size:12px;font-family:sans-serif;" transform="translate(939.84 60)" fill="#6E7079">990</text>
<text dominant-baseline="central" text-anchor="middle" style="font-size:12px;font-family:sans-serif;" y="6" transform="translate(60.0268 279)" fill="#6E7079">1km</text>
<text dominant-baseline="central" text-anchor="middle" style="font-size:12px;font-family:sans-serif;" y="6" transform="translate(108.5646 279)" fill="#6E7079">14km</text>
<text dominant-baseline="central" text-anchor="middle" style="font-size:12px;font-family:sans-serif;" y="6" transform="translate(157.1024 279)" fill="#6E7079">27km</text>
<text dominant-baseline="central" text-anchor="middle" style="font-size:12px;font-family:sans-serif;" y="6" transform="translate(205.6402 279)" fill="#6E7079">40km</text>
<text dominant-baseline="central" text-anchor="middle" style="font-size:12px;font-family:sans-serif;" y="6" transform="translate(254.1779 279)" fill="#6E7079">53km</text>
<text dominant-baseline="central" text-anchor="middle" style="font-size:12px;font-family:sans-serif;" y="6" transform="translate(302.7157 279)" fill="#6E7079">66km</text>
<text dominant-baseline="central" text-anchor="middle" style="font-size:12px;font-family:sans-serif;" y="6" transform="translate(351.2535 279)" fill="#6E7079">79km</text>
<text dominant-baseline="central" text-anchor="middle" style="font-size:12px;font-family:sans-serif;" y="6" transform="translate(399.7913 279)" fill="#6E7079">92km</text>
<text dominant-baseline="central" text-anchor="middle" style="font-size:12px;font-family:sans-serif;" y="6" transform="translate(448.3291 279)" fill="#6E7079">105km</text>
<text dominant-baseline="central" text-anchor="middle" style="font-size:12px;font-family:sans-serif;" y="6" transform="translate(496.8668 279)" fill="#6E7079">118km</text>
<text dominant-baseline="central" text-anchor="middle" style="font-size:12px;font-family:sans-serif;" y="6" transform="translate(545.4046 279)" fill="#6E7079">131km</text>
<text dominant-baseline="central" text-anchor="middle" style="font-size:12px;font-family:sans-serif;" y="6" transform="translate(593.9424 279)" fill="#6E7079">144km</text>
<text dominant-baseline="central" text-anchor="middle" style="font-size:12px;font-family:sans-serif;" y="6" transform="translate(642.4802 279)" fill="#6E7079">157km</text>
<text dominant-baseline="central" text-anchor="middle" style="font-size:12px;font-family:sans-serif;" y="6" transform="translate(691.0179 279)" fill="#6E7079">170km</text>
<text dominant-baseline="central" text-anchor="middle" style="font-size:12px;font-family:sans-serif;" y="6" transform="translate(739.5557 279)" fill="#6E7079">183km</text>
<text dominant-baseline="central" text-anchor="middle" style="font-size:12px;font-family:sans-serif;" y="6" transform="translate(788.0935 279)" fill="#6E7079">196km</text>
<text dominant-baseline="central" text-anchor="middle" style="font-size:12px;font-family:sans-serif;" y="6" transform="translate(836.6313 279)" fill="#6E7079">209km</text>
<text dominant-baseline="central" text-anchor="middle" style="font-size:12px;font-family:sans-serif;" y="6" transform="translate(885.1691 279)" fill="#6E7079">222km</text>
<path d="M58.7 271l2.6 0l0 -204.8l-2.6 0Z" fill="rgb(227,73,2)" fill-opacity="0.3"></path>
<path d="M62.5 271l2.6 0l0 -204.8l-2.6 0Z" fill="rgb(227,73,2)" fill-opacity="0.3"></path>
<path d="M66.2 271l2.6 0l0 -204.4l-2.6 0Z" fill="rgb(227,73,2)" fill-opacity="0.3"></path>
<path d="M69.9 271l2.6 0l0 -204.2l-2.6 0Z" fill="rgb(227,73,2)" fill-opacity="0.3"></path>
<path d="M73.7 271l2.6 0l0 -203.1l-2.6 0Z" fill="rgb(227,73,2)" fill-opacity="0.3"></path>
<path d="M77.4 271l2.6 0l0 -202.7l-2.6 0Z" fill="rgb(227,73,2)" fill-opacity="0.3"></path>
<path d="M81.1 271l2.6 0l0 -201.4l-2.6 0Z" fill="rgb(227,73,2)" fill-opacity="0.3"></path>
<path d="M84.9 271l2.6 0l0 -200.3l-2.6 0Z" fill="rgb(227,73,2)" fill-opacity="0.3"></path>
<path d="M88.6 271l2.6 0l0 -199.3l-2.6 0Z" fill="rgb(227,73,2)" fill-opacity="0.3"></path>
<path d="M92.3 271l2.6 0l0 -198.4l-2.6 0Z" fill="rgb(227,73,2)" fill-opacity="0.3"></path>
<path d="M96.1 271l2.6 0l0 -197.1l-2.6 0Z" fill="rgb(227,73,2)" fill-opacity="0.3"></path>
<path d="M99.8 271l2.6 0l0 -196.3l-2.6 0Z" fill="rgb(227,73,2)" fill-opacity="0.3"></path>
<path d="M103.5 271l2.6 0l0 -195.2l-2.6 0Z" fill="rgb(227,73,2)" fill-opacity="0.3"></path>
<path d="M107.3 271l2.6 0l0 -193.1l-2.6 0Z" fill="rgb(227,73,2)" fill-opacity="0.3"></path>
<path d="M111 271l2.6 0l0 -190.5l-2.6 0Z" fill="rgb(227,73,2)" fill-opacity="0.3"></path>
<path d="M114.7 271l2.6 0l0 -181.4l-2.6 0Z" fill="rgb(227,73,2)" fill-opacity="0.3"></path>
<path d="M118.5 271l2.6 0l0 -167.1l-2.6 0Z" fill="rgb(227,73,2)" fill-opacity="0.3"></path>
<path d="M122.2 271l2.6 0l0 -142.2l-2.6 0Z" fill="rgb(227,73,2)" fill-opacity="0.3"></path>
<path d="M125.9 271l2.6 0l0 -131.7l-2.6 0Z" fill="rgb(227,73,2)" fill-opacity="0.3"></path>
<path d="M129.7 271l2.6 0l0 -127.2l-2.6 0Z" fill="rgb(227,73,2)" fill-opacity="0.3"></path>
<path d="M133.4 271l2.6 0l0 -124.3l-2.6 0Z" fill="rgb(227,73,2)" fill-opacity="0.3"></path>
<path d="M137.1 271l2.6 0l0 -121.5l-2.6 0Z" fill="rgb(227,73,2)" fill-opacity="0.3"></path>
<path d="M140.9 271l2.6 0l0 -119.1l-2.6 0Z" fill="rgb(227,73,2)" fill-opacity="0.3"></path>
<path d="M144.6 271l2.6 0l0 -117.4l-2.6 0Z" fill="rgb(227,73,2)" fill-opacity="0.3"></path>
<path d="M148.3 271l2.6 0l0 -113.4l-2.6 0Z" fill="rgb(227,73,2)" fill-opacity="0.3"></path>
<path d="M152.1 271l2.6 0l0 -108.9l-2.6 0Z" fill="rgb(227,73,2)" fill-opacity="0.3"></path>
<path d="M155.8 271l2.6 0l0 -105.5l-2.6 0Z" fill="rgb(227,73,2)" fill-opacity="0.3"></path>
<path d="M159.5 271l2.6 0l0 -101.5l-2.6 0Z" fill="rgb(227,73,2)" fill-opacity="0.3"></path>
<path d="M163.3 271l2.6 0l0 -96.5l-2.6 0Z" fill="rgb(227,73,2)" fill-opacity="0.3"></path>
<path d="M167 271l2.6 0l0 -93.8l-2.6 0Z" fill="rgb(227,73,2)" fill-opacity="0.3"></path>
<path d="M170.7 271l2.6 0l0 -88l-2.6 0Z" fill="rgb(227,73,2)" fill-opacity="0.3"></path>
<path d="M174.5 271l2.6 0l0 -81l-2.6 0Z" fill="rgb(227,73,2)" fill-opacity="0.3"></path>
<path d="M178.2 271l2.6 0l0 -76.5l-2.6 0Z" fill="rgb(227,73,2)" fill-opacity="0.3"></path>
<path d="M182 271l2.6 0l0 -72.7l-2.6 0Z" fill="rgb(227,73,2)" fill-opacity="0.3"></path>
<path d="M185.7 271l2.6 0l0 -70.3l-2.6 0Z" fill="rgb(227,73,2)" fill-opacity="0.3"></path>
<path d="M189.4 271l2.6 0l0 -67.6l-2.6 0Z" fill="rgb(227,73,2)" fill-opacity="0.3"></path>
<path d="M193.2 271l2.6 0l0 -66.5l-2.6 0Z" fill="rgb(227,73,2)" fill-opacity="0.3"></path>
<path d="M196.9 271l2.6 0l0 -65l-2.6 0Z" fill="rgb(227,73,2)" fill-opacity="0.3"></path>
<path d="M200.6 271l2.6 0l0 -63.9l-2.6 0Z" fill="rgb(227,73,2)" fill-opacity="0.3"></path>
<path d="M204.4 271l2.6 0l0 -63.1l-2.6 0Z" fill="rgb(227,73,2)" fill-opacity="0.3"></path>
<path d="M208.1 271l2.6 0l0 -61l-2.6 0Z" fill="rgb(227,73,2)" fill-opacity="0.3"></path>
<path d="M211.8 271l2.6 0l0 -59.7l-2.6 0Z" fill="rgb(227,73,2)" fill-opacity="0.3"></path>
<path d="M215.6 271l2.6 0l0 -56.5l-2.6 0Z" fill="rgb(227,73,2)" fill-opacity="0.3"></path>
<path d="M219.3 271l2.6 0l0 -55l-2.6 0Z" fill="rgb(227,73,2)" fill-opacity="0.3"></path>
<path d="M223 271l2.6 0l0 -53.3l-2.6 0Z" fill="rgb(227,73,2)" fill-opacity="0.3"></path>
<path d="M226.8 271l2.6 0l0 -51.4l-2.6 0Z" fill="rgb(227,73,2)" fill-opacity="0.3"></path>
<path d="M230.5 271l2.6 0l0 -49.2l-2.6 0Z" fill="rgb(227,73,2)" fill-opacity="0.3"></path>
<path d="M234.2 271l2.6 0l0 -47.5l-2.6 0Z" fill="rgb(227,73,2)" fill-opacity="0.3"></path>
<path d="M238 271l2.6 0l0 -46.5l-2.6 0Z" fill="rgb(227,73,2)" fill-opacity="0.3"></path>
<path d="M241.7 271l2.6 0l0 -45.4l-2.6 0Z" fill="rgb(227,73,2)" fill-opacity="0.3"></path>
<path d="M245.4 271l2.6 0l0 -42.6l-2.6 0Z" fill="rgb(227,73,2)" fill-opacity="0.3"></path>
<path d="M249.2 271l2.6 0l0 -41.8l-2.6 0Z" fill="rgb(227,73,2)" fill-opacity="0.3"></path>
<path d="M252.9 271l2.6 0l0 -40.7l-2.6 0Z" fill="rgb(227,73,2)" fill-opacity="0.3"></path>
<path d="M256.6 271l2.6 0l0 -39.4l-2.6 0Z" fill="rgb(227,73,2)" fill-opacity="0.3"></path>
<path d="M260.4 271l2.6 0l0 -38.6l-2.6 0Z" fill="rgb(227,73,2)" fill-opacity="0.3"></path>
<path d="M264.1 271l2.6 0l0 -37.5l-2.6 0Z" fill="rgb(227,73,2)" fill-opacity="0.3"></path>
<path d="M267.8 271l2.6 0l0 -36.9l-2.6 0Z" fill="rgb(227,73,2)" fill-opacity="0.3"></path>
<path d="M271.6 271l2.6 0l0 -36.9l-2.6 0Z" fill="rgb(227,73,2)" fill-opacity="0.3"></path>
<path d="M275.3 271l2.6 0l0 -35.6l-2.6 0Z" fill="rgb(227,73,2)" fill-opacity="0.3"></path>
<path d="M279 271l2.6 0l0 -35l-2.6 0Z" fill="rgb(227,73,2)" fill-opacity="0.3"></path>
<path d="M282.8 271l2.6 0l0 -33.9l-2.6 0Z" fill="rgb(227,73,2)" fill-opacity="0.3"></path>
<path d="M286.5 271l2.6 0l0 -32.6l-2.6 0Z" fill="rgb(227,73,2)" fill-opacity="0.3"></path>
<path d="M290.2 271l2.6 0l0 -32l-2.6 0Z" fill="rgb(227,73,2)" fill-opacity="0.3"></path>
<path d="M294 271l2.6 0l0 -31.1l-2.6 0Z" fill="rgb(227,73,2)" fill-opacity="0.3"></path>
<path d="M297.7 271l2.6 0l0 -30.1l-2.6 0Z" fill="rgb(227,73,2)" fill-opacity="0.3"></path>
<path d="M301.4 271l2.6 0l0 -29.6l-2.6 0Z" fill="rgb(227,73,2)" fill-opacity="0.3"></path>
<path d="M305.2 271l2.6 0l0 -29.2l-2.6 0Z" fill="rgb(227,73,2)" fill-opacity="0.3"></path>
<path d="M308.9 271l2.6 0l0 -29.2l-2.6 0Z" fill="rgb(227,73,2)" fill-opacity="0.3"></path>
<path d="M312.6 271l2.6 0l0 -27.9l-2.6 0Z" fill="rgb(227,73,2)" fill-opacity="0.3"></path>
<path d="M316.4 271l2.6 0l0 -27.3l-2.6 0Z" fill="rgb(227,73,2)" fill-opacity="0.3"></path>
<path d="M320.1 271l2.6 0l0 -26.9l-2.6 0Z" fill="rgb(227,73,2)" fill-opacity="0.3"></path>
<path d="M323.8 271l2.6 0l0 -26.4l-2.6 0Z" fill="rgb(227,73,2)" fill-opacity="0.3"></path>
<path d="M327.6 271l2.6 0l0 -26l-2.6 0Z" fill="rgb(227,73,2)" fill-opacity="0.3"></path>
<path d="M331.3 271l2.6 0l0 -25.8l-2.6 0Z" fill="rgb(227,73,2)" fill-opacity="0.3"></path>
<path d="M335 271l2.6 0l0 -25.4l-2.6 0Z" fill="rgb(227,73,2)" fill-opacity="0.3"></path>
<path d="M338.8 271l2.6 0l0 -23.7l-2.6 0Z" fill="rgb(227,73,2)" fill-opacity="0.3"></path>
<path d="M342.5 271l2.6 0l0 -23.2l-2.6 0Z" fill="rgb(227,73,2)" fill-opacity="0.3"></path>
<path d="M346.2 271l2.6 0l0 -22.2l-2.6 0Z" fill="rgb(227,73,2)" fill-opacity="0.3"></path>
<path d="M350 271l2.6 0l0 -22l-2.6 0Z" fill="rgb(227,73,2)" fill-opacity="0.3"></path>
<path d="M353.7 271l2.6 0l0 -21.5l-2.6 0Z" fill="rgb(227,73,2)" fill-opacity="0.3"></path>
<path d="M357.4 271l2.6 0l0 -20.5l-2.6 0Z" fill="rgb(227,73,2)" fill-opacity="0.3"></path>
<path d="M361.2 271l2.6 0l0 -19.8l-2.6 0Z" fill="rgb(227,73,2)" fill-opacity="0.3"></path>
<path d="M364.9 271l2.6 0l0 -19l-2.6 0Z" fill="rgb(227,73,2)" fill-opacity="0.3"></path>
<path d="M368.6 271l2.6 0l0 -18.1l-2.6 0Z" fill="rgb(227,73,2)" fill-opacity="0.8"></path>
<path d="M372.4 271l2.6 0l0 -17.1l-2.6 0Z" fill="rgb(227,73,2)" fill-opacity="0.3"></path>
<path d="M376.1 271l2.6 0l0 -16.4l-2.6 0Z" fill="rgb(227,73,2)" fill-opacity="0.3"></path>
<path d="M379.8 271l2.6 0l0 -15.8l-2.6 0Z" fill="rgb(227,73,2)" fill-opacity="0.3"></path>
<path d="M383.6 271l2.6 0l0 -14.9l-2.6 0Z" fill="rgb(227,73,2)" fill-opacity="0.3"></path>
<path d="M387.3 271l2.6 0l0 -14.5l-2.6 0Z" fill="rgb(227,73,2)" fill-opacity="0.3"></path>
<path d="M391 271l2.6 0l0 -14.1l-2.6 0Z" fill="rgb(227,73,2)" fill-opacity="0.3"></path>
<path d="M394.8 271l2.6 0l0 -13.6l-2.6 0Z" fill="rgb(227,73,2)" fill-opacity="0.3"></path>
<path d="M398.5 271l2.6 0l0 -13.2l-2.6 0Z" fill="rgb(227,73,2)" fill-opacity="0.3"></path>
<path d="M402.2 271l2.6 0l0 -12.4l-2.6 0Z" fill="rgb(227,73,2)" fill-opacity="0.3"></path>
<path d="M406 271l2.6 0l0 -11.7l-2.6 0Z" fill="rgb(227,73,2)" fill-opacity="0.3"></path>
<path d="M409.7 271l2.6 0l0 -11.1l-2.6 0Z" fill="rgb(227,73,2)" fill-opacity="0.3"></path>
<path d="M413.4 271l2.6 0l0 -11.1l-2.6 0Z" fill="rgb(227,73,2)" fill-opacity="0.3"></path>
<path d="M417.2 271l2.6 0l0 -11.1l-2.6 0Z" fill="rgb(227,73,2)" fill-opacity="0.3"></path>
<path d="M420.9 271l2.6 0l0 -10.9l-2.6 0Z" fill="rgb(227,73,2)" fill-opacity="0.3"></path>
<path d="M424.6 271l2.6 0l0 -10.4l-2.6 0Z" fill="rgb(227,73,2)" fill-opacity="0.3"></path>
<path d="M428.4 271l2.6 0l0 -10.2l-2.6 0Z" fill="rgb(227,73,2)" fill-opacity="0.3"></path>
<path d="M432.1 271l2.6 0l0 -8.3l-2.6 0Z" fill="rgb(227,73,2)" fill-opacity="0.3"></path>
<path d="M435.8 271l2.6 0l0 -7.5l-2.6 0Z" fill="rgb(227,73,2)" fill-opacity="0.3"></path>
<path d="M439.6 271l2.6 0l0 -7.2l-2.6 0Z" fill="rgb(227,73,2)" fill-opacity="0.3"></path>
<path d="M443.3 271l2.6 0l0 -6.8l-2.6 0Z" fill="rgb(227,73,2)" fill-opacity="0.3"></path>
<path d="M447 271l2.6 0l0 -6.6l-2.6 0Z" fill="rgb(227,73,2)" fill-opacity="0.3"></path>
<path d="M450.8 271l2.6 0l0 -6.6l-2.6 0Z" fill="rgb(227,73,2)" fill-opacity="0.3"></path>
<path d="M454.5 271l2.6 0l0 -6l-2.6 0Z" fill="rgb(227,73,2)" fill-opacity="0.3"></path>
<path d="M458.2 271l2.6 0l0 -6l-2.6 0Z" fill="rgb(227,73,2)" fill-opacity="0.3"></path>
<path d="M462 271l2.6 0l0 -6l-2.6 0Z" fill="rgb(227,73,2)" fill-opacity="0.3"></path>
<path d="M465.7 271l2.6 0l0 -5.8l-2.6 0Z" fill="rgb(227,73,2)" fill-opacity="0.3"></path>
<path d="M469.4 271l2.6 0l0 -5.5l-2.6 0Z" fill="rgb(227,73,2)" fill-opacity="0.3"></path>
<path d="M473.2 271l2.6 0l0 -5.1l-2.6 0Z" fill="rgb(227,73,2)" fill-opacity="0.3"></path>
<path d="M476.9 271l2.6 0l0 -4.5l-2.6 0Z" fill="rgb(227,73,2)" fill-opacity="0.3"></path>
<path d="M480.6 271l2.6 0l0 -4.3l-2.6 0Z" fill="rgb(227,73,2)" fill-opacity="0.3"></path>
<path d="M484.4 271l2.6 0l0 -4.3l-2.6 0Z" fill="rgb(227,73,2)" fill-opacity="0.3"></path>
<path d="M488.1 271l2.6 0l0 -4l-2.6 0Z" fill="rgb(227,73,2)" fill-opacity="0.3"></path>
<path d="M491.8 271l2.6 0l0 -4l-2.6 0Z" fill="rgb(227,73,2)" fill-opacity="0.3"></path>
<path d="M495.6 271l2.6 0l0 -4l-2.6 0Z" fill="rgb(227,73,2)" fill-opacity="0.3"></path>
<path d="M499.3 271l2.6 0l0 -3.6l-2.6 0Z" fill="rgb(227,73,2)" fill-opacity="0.3"></path>
<path d="M503 271l2.6 0l0 -3.6l-2.6 0Z" fill="rgb(227,73,2)" fill-opacity="0.3"></path>
<path d="M506.8 271l2.6 0l0 -3.6l-2.6 0Z" fill="rgb(227,73,2)" fill-opacity="0.3"></path>
<path d="M510.5 271l2.6 0l0 -3.4l-2.6 0Z" fill="rgb(227,73,2)" fill-opacity="0.3"></path>
<path d="M514.2 271l2.6 0l0 -3.4l-2.6 0Z" fill="rgb(227,73,2)" fill-opacity="0.3"></path>
<path d="M518 271l2.6 0l0 -3.4l-2.6 0Z" fill="rgb(227,73,2)" fill-opacity="0.3"></path>
<path d="M521.7 271l2.6 0l0 -3.4l-2.6 0Z" fill="rgb(227,73,2)" fill-opacity="0.3"></path>
<path d="M525.4 271l2.6 0l0 -3.2l-2.6 0Z" fill="rgb(227,73,2)" fill-opacity="0.3"></path>
<path d="M529.2 271l2.6 0l0 -3.2l-2.6 0Z" fill="rgb(227,73,2)" fill-opacity="0.3"></path>
<path d="M532.9 271l2.6 0l0 -3.2l-2.6 0Z" fill="rgb(227,73,2)" fill-opacity="0.3"></path>
<path d="M536.6 271l2.6 0l0 -3l-2.6 0Z" fill="rgb(227,73,2)" fill-opacity="0.3"></path>
<path d="M540.4 271l2.6 0l0 -3l-2.6 0Z" fill="rgb(227,73,2)" fill-opacity="0.3"></path>
<path d="M544.1 271l2.6 0l0 -3l-2.6 0Z" fill="rgb(227,73,2)" fill-opacity="0.3"></path>
<path d="M547.9 271l2.6 0l0 -3l-2.6 0Z" fill="rgb(227,73,2)" fill-opacity="0.3"></path>
<path d="M551.6 271l2.6 0l0 -3l-2.6 0Z" fill="rgb(227,73,2)" fill-opacity="0.3"></path>
<path d="M555.3 271l2.6 0l0 -2.8l-2.6 0Z" fill="rgb(227,73,2)" fill-opacity="0.3"></path>
<path d="M559.1 271l2.6 0l0 -2.8l-2.6 0Z" fill="rgb(227,73,2)" fill-opacity="0.3"></path>
<path d="M562.8 271l2.6 0l0 -2.8l-2.6 0Z" fill="rgb(227,73,2)" fill-opacity="0.3"></path>
<path d="M566.5 271l2.6 0l0 -2.8l-2.6 0Z" fill="rgb(227,73,2)" fill-opacity="0.3"></path>
<path d="M570.3 271l2.6 0l0 -2.6l-2.6 0Z" fill="rgb(227,73,2)" fill-opacity="0.3"></path>
<path d="M574 271l2.6 0l0 -2.3l-2.6 0Z" fill="rgb(227,73,2)" fill-opacity="0.3"></path>
<path d="M577.7 271l2.6 0l0 -2.3l-2.6 0Z" fill="rgb(227,73,2)" fill-opacity="0.3"></path>
<path d="M581.5 271l2.6 0l0 -2.1l-2.6 0Z" fill="rgb(227,73,2)" fill-opacity="0.3"></path>
<path d="M585.2 271l2.6 0l0 -2.1l-2.6 0Z" fill="rgb(227,73,2)" fill-opacity="0.3"></path>
<path d="M588.9 271l2.6 0l0 -2.1l-2.6 0Z" fill="rgb(227,73,2)" fill-opacity="0.3"></path>
<path d="M592.7 271l2.6 0l0 -2.1l-2.6 0Z" fill="rgb(227,73,2)" fill-opacity="0.3"></path>
<path d="M596.4 271l2.6 0l0 -2.1l-2.6 0Z" fill="rgb(227,73,2)" fill-opacity="0.3"></path>
<path d="M600.1 271l2.6 0l0 -2.1l-2.6 0Z" fill="rgb(227,73,2)" fill-opacity="0.3"></path>
<path d="M603.9 271l2.6 0l0 -2.1l-2.6 0Z" fill="rgb(227,73,2)" fill-opacity="0.3"></path>
<path d="M607.6 271l2.6 0l0 -2.1l-2.6 0Z" fill="rgb(227,73,2)" fill-opacity="0.3"></path>
<path d="M611.3 271l2.6 0l0 -2.1l-2.6 0Z" fill="rgb(227,73,2)" fill-opacity="0.3"></path>
<path d="M615.1 271l2.6 0l0 -2.1l-2.6 0Z" fill="rgb(227,73,2)" fill-opacity="0.3"></path>
<path d="M618.8 271l2.6 0l0 -1.9l-2.6 0Z" fill="rgb(227,73,2)" fill-opacity="0.3"></path>
<path d="M622.5 271l2.6 0l0 -1.9l-2.6 0Z" fill="rgb(227,73,2)" fill-opacity="0.3"></path>
<path d="M626.3 271l2.6 0l0 -1.7l-2.6 0Z" fill="rgb(227,73,2)" fill-opacity="0.3"></path>
<path d="M630 271l2.6 0l0 -1.7l-2.6 0Z" fill="rgb(227,73,2)" fill-opacity="0.3"></path>
<path d="M633.7 271l2.6 0l0 -1.7l-2.6 0Z" fill="rgb(227,73,2)" fill-opacity="0.3"></path>
<path d="M637.5 271l2.6 0l0 -1.7l-2.6 0Z" fill="rgb(227,73,2)" fill-opacity="0.3"></path>
<path d="M641.2 271l2.6 0l0 -1.7l-2.6 0Z" fill="rgb(227,73,2)" fill-opacity="0.3"></path>
<path d="M644.9 271l2.6 0l0 -1.7l-2.6 0Z" fill="rgb(227,73,2)" fill-opacity="0.3"></path>
<path d="M648.7 271l2.6 0l0 -1.7l-2.6 0Z" fill="rgb(227,73,2)" fill-opacity="0.3"></path>
<path d="M652.4 271l2.6 0l0 -1.7l-2.6 0Z" fill="rgb(227,73,2)" fill-opacity="0.3"></path>
<path d="M656.1 271l2.6 0l0 -1.3l-2.6 0Z" fill="rgb(227,73,2)" fill-opacity="0.3"></path>
<path d="M659.9 271l2.6 0l0 -1.3l-2.6 0Z" fill="rgb(227,73,2)" fill-opacity="0.3"></path>
<path d="M663.6 271l2.6 0l0 -1.3l-2.6 0Z" fill="rgb(227,73,2)" fill-opacity="0.3"></path>
<path d="M667.3 271l2.6 0l0 -1.3l-2.6 0Z" fill="rgb(227,73,2)" fill-opacity="0.3"></path>
<path d="M671.1 271l2.6 0l0 -1.3l-2.6 0Z" fill="rgb(227,73,2)" fill-opacity="0.3"></path>
<path d="M674.8 271l2.6 0l0 -1.3l-2.6 0Z" fill="rgb(227,73,2)" fill-opacity="0.3"></path>
<path d="M678.5 271l2.6 0l0 -1.3l-2.6 0Z" fill="rgb(227,73,2)" fill-opacity="0.3"></path>
<path d="M682.3 271l2.6 0l0 -1.3l-2.6 0Z" fill="rgb(227,73,2)" fill-opacity="0.3"></path>
<path d="M686 271l2.6 0l0 -1.3l-2.6 0Z" fill="rgb(227,73,2)" fill-opacity="0.3"></path>
<path d="M689.7 271l2.6 0l0 -1.1l-2.6 0Z" fill="rgb(227,73,2)" fill-opacity="0.3"></path>
<path d="M693.5 271l2.6 0l0 -1.1l-2.6 0Z" fill="rgb(227,73,2)" fill-opacity="0.3"></path>
<path d="M697.2 271l2.6 0l0 -1.1l-2.6 0Z" fill="rgb(227,73,2)" fill-opacity="0.3"></path>
<path d="M700.9 271l2.6 0l0 -1.1l-2.6 0Z" fill="rgb(227,73,2)" fill-opacity="0.3"></path>
<path d="M704.7 271l2.6 0l0 -1.1l-2.6 0Z" fill="rgb(227,73,2)" fill-opacity="0.3"></path>
<path d="M708.4 271l2.6 0l0 -1.1l-2.6 0Z" fill="rgb(227,73,2)" fill-opacity="0.3"></path>
<path d="M712.1 271l2.6 0l0 -1.1l-2.6 0Z" fill="rgb(227,73,2)" fill-opacity="0.3"></path>
<path d="M715.9 271l2.6 0l0 -1.1l-2.6 0Z" fill="rgb(227,73,2)" fill-opacity="0.3"></path>
<path d="M719.6 271l2.6 0l0 -1.1l-2.6 0Z" fill="rgb(227,73,2)" fill-opacity="0.3"></path>
<path d="M723.3 271l2.6 0l0 -1.1l-2.6 0Z" fill="rgb(227,73,2)" fill-opacity="0.3"></path>
<path d="M727.1 271l2.6 0l0 -1.1l-2.6 0Z" fill="rgb(227,73,2)" fill-opacity="0.3"></path>
<path d="M730.8 271l2.6 0l0 -0.9l-2.6 0Z" fill="rgb(227,73,2)" fill-opacity="0.3"></path>
<path d="M734.5 271l2.6 0l0 -0.9l-2.6 0Z" fill="rgb(227,73,2)" fill-opacity="0.3"></path>
<path d="M738.3 271l2.6 0l0 -0.9l-2.6 0Z" fill="rgb(227,73,2)" fill-opacity="0.3"></path>
<path d="M742 271l2.6 0l0 -0.9l-2.6 0Z" fill="rgb(227,73,2)" fill-opacity="0.3"></path>
<path d="M745.7 271l2.6 0l0 -0.9l-2.6 0Z" fill="rgb(227,73,2)" fill-opacity="0.3"></path>
<path d="M749.5 271l2.6 0l0 -0.9l-2.6 0Z" fill="rgb(227,73,2)" fill-opacity="0.3"></path>
<path d="M753.2 271l2.6 0l0 -0.9l-2.6 0Z" fill="rgb(227,73,2)" fill-opacity="0.3"></path>
<path d="M756.9 271l2.6 0l0 -0.9l-2.6 0Z" fill="rgb(227,73,2)" fill-opacity="0.3"></path>
<path d="M760.7 271l2.6 0l0 -0.9l-2.6 0Z" fill="rgb(227,73,2)" fill-opacity="0.3"></path>
<path d="M764.4 271l2.6 0l0 -0.6l-2.6 0Z" fill="rgb(227,73,2)" fill-opacity="0.3"></path>
<path d="M768.1 271l2.6 0l0 -0.6l-2.6 0Z" fill="rgb(227,73,2)" fill-opacity="0.3"></path>
<path d="M771.9 271l2.6 0l0 -0.6l-2.6 0Z" fill="rgb(227,73,2)" fill-opacity="0.3"></path>
<path d="M775.6 271l2.6 0l0 -0.6l-2.6 0Z" fill="rgb(227,73,2)" fill-opacity="0.3"></path>
<path d="M779.3 271l2.6 0l0 -0.6l-2.6 0Z" fill="rgb(227,73,2)" fill-opacity="0.3"></path>
<path d="M783.1 271l2.6 0l0 -0.6l-2.6 0Z" fill="rgb(227,73,2)" fill-opacity="0.3"></path>
<path d="M786.8 271l2.6 0l0 -0.6l-2.6 0Z" fill="rgb(227,73,2)" fill-opacity="0.3"></path>
<path d="M790.5 271l2.6 0l0 -0.6l-2.6 0Z" fill="rgb(227,73,2)" fill-opacity="0.3"></path>
<path d="M794.3 271l2.6 0l0 -0.6l-2.6 0Z" fill="rgb(227,73,2)" fill-opacity="0.3"></path>
<path d="M798 271l2.6 0l0 -0.6l-2.6 0Z" fill="rgb(227,73,2)" fill-opacity="0.3"></path>
<path d="M801.7 271l2.6 0l0 -0.6l-2.6 0Z" fill="rgb(227,73,2)" fill-opacity="0.3"></path>
<path d="M805.5 271l2.6 0l0 -0.6l-2.6 0Z" fill="rgb(227,73,2)" fill-opacity="0.3"></path>
<path d="M809.2 271l2.6 0l0 -0.4l-2.6 0Z" fill="rgb(227,73,2)" fill-opacity="0.3"></path>
<path d="M812.9 271l2.6 0l0 -0.4l-2.6 0Z" fill="rgb(227,73,2)" fill-opacity="0.3"></path>
<path d="M816.7 271l2.6 0l0 -0.4l-2.6 0Z" fill="rgb(227,73,2)" fill-opacity="0.3"></path>
<path d="M820.4 271l2.6 0l0 -0.4l-2.6 0Z" fill="rgb(227,73,2)" fill-opacity="0.3"></path>
<path d="M824.1 271l2.6 0l0 -0.4l-2.6 0Z" fill="rgb(227,73,2)" fill-opacity="0.3"></path>
<path d="M827.9 271l2.6 0l0 -0.4l-2.6 0Z" fill="rgb(227,73,2)" fill-opacity="0.3"></path>
<path d="M831.6 271l2.6 0l0 -0.4l-2.6 0Z" fill="rgb(227,73,2)" fill-opacity="0.3"></path>
<path d="M835.3 271l2.6 0l0 -0.4l-2.6 0Z" fill="rgb(227,73,2)" fill-opacity="0.3"></path>
<path d="M839.1 271l2.6 0l0 -0.4l-2.6 0Z" fill="rgb(227,73,2)" fill-opacity="0.3"></path>
<path d="M842.8 271l2.6 0l0 -0.4l-2.6 0Z" fill="rgb(227,73,2)" fill-opacity="0.3"></path>
<path d="M846.5 271l2.6 0l0 -0.4l-2.6 0Z" fill="rgb(227,73,2)" fill-opacity="0.3"></path>
<path d="M850.3 271l2.6 0l0 -0.4l-2.6 0Z" fill="rgb(227,73,2)" fill-opacity="0.3"></path>
<path d="M854 271l2.6 0l0 -0.4l-2.6 0Z" fill="rgb(227,73,2)" fill-opacity="0.3"></path>
<path d="M857.7 271l2.6 0l0 -0.4l-2.6 0Z" fill="rgb(227,73,2)" fill-opacity="0.3"></path>
<path d="M861.5 271l2.6 0l0 -0.4l-2.6 0Z" fill="rgb(227,73,2)" fill-opacity="0.3"></path>
<path d="M865.2 271l2.6 0l0 -0.4l-2.6 0Z" fill="rgb(227,73,2)" fill-opacity="0.3"></path>
<path d="M868.9 271l2.6 0l0 -0.4l-2.6 0Z" fill="rgb(227,73,2)" fill-opacity="0.3"></path>
<path d="M872.7 271l2.6 0l0 -0.4l-2.6 0Z" fill="rgb(227,73,2)" fill-opacity="0.3"></path>
<path d="M876.4 271l2.6 0l0 -0.4l-2.6 0Z" fill="rgb(227,73,2)" fill-opacity="0.3"></path>
<path d="M880.1 271l2.6 0l0 -0.4l-2.6 0Z" fill="rgb(227,73,2)" fill-opacity="0.3"></path>
<path d="M883.9 271l2.6 0l0 -0.4l-2.6 0Z" fill="rgb(227,73,2)" fill-opacity="0.3"></path>
<path d="M887.6 271l2.6 0l0 -0.2l-2.6 0Z" fill="rgb(227,73,2)" fill-opacity="0.3"></path>
<path d="M891.3 271l2.6 0l0 -0.2l-2.6 0Z" fill="rgb(227,73,2)" fill-opacity="0.3"></path>
<path d="M895.1 271l2.6 0l0 -0.2l-2.6 0Z" fill="rgb(227,73,2)" fill-opacity="0.3"></path>
<path d="M898.8 271l2.6 0l0 -0.2l-2.6 0Z" fill="rgb(227,73,2)" fill-opacity="0.3"></path>
<path d="M902.5 271l2.6 0l0 -0.2l-2.6 0Z" fill="rgb(227,73,2)" fill-opacity="0.3"></path>
<path d="M906.3 271l2.6 0l0 -0.2l-2.6 0Z" fill="rgb(227,73,2)" fill-opacity="0.3"></path>
<path d="M910 271l2.6 0l0 -0.2l-2.6 0Z" fill="rgb(227,73,2)" fill-opacity="0.3"></path>
<path d="M913.8 271l2.6 0l0 -0.2l-2.6 0Z" fill="rgb(227,73,2)" fill-opacity="0.3"></path>
<path d="M917.5 271l2.6 0l0 -0.2l-2.6 0Z" fill="rgb(227,73,2)" fill-opacity="0.3"></path>
<path d="M921.2 271l2.6 0l0 -0.2l-2.6 0Z" fill="rgb(227,73,2)" fill-opacity="0.3"></path>
<path d="M925 271l2.6 0l0 -0.2l-2.6 0Z" fill="rgb(227,73,2)" fill-opacity="0.3"></path>
<path d="M928.7 271l2.6 0l0 -0.2l-2.6 0Z" fill="rgb(227,73,2)" fill-opacity="0.3"></path>
<path d="M-5 -5l226.9 0l0 24l-226.9 0Z" transform="translate(391.54 5)" fill="rgb(0,0,0)" fill-opacity="0" stroke="#ccc" stroke-width="0"></path>
<path d="M3.5 0L21.5 0A3.5 3.5 0 0 1 25 3.5L25 10.5A3.5 3.5 0 0 1 21.5 14L3.5 14A3.5 3.5 0 0 1 0 10.5L0 3.5A3.5 3.5 0 0 1 3.5 0" transform="translate(391.54 5)" fill="rgb(227,73,2)" fill-opacity="0.3"></path>
<text dominant-baseline="central" text-anchor="start" style="font-size:12px;font-family:sans-serif;" xml:space="preserve" x="30" y="7" transform="translate(391.54 5)" fill="#333">Times completed</text>
<path d="M0 7L25 7" transform="translate(524.1 5)" fill="#000" stroke="#E34902" stroke-width="2" stroke-linecap="butt" stroke-miterlimit="10"></path>
<path d="M18.1 7A5.6 5.6 0 1 1 18.1 6.4A5.6 5.6 0 0 1 18.1 7" transform="translate(524.1 5)" fill="#fff" stroke="#E34902" stroke-width="2" stroke-linecap="butt" stroke-miterlimit="10"></path>
<text dominant-baseline="central" text-anchor="start" style="font-size:12px;font-family:sans-serif;" x="30" y="7" transform="translate(524.1 5)" fill="#333">Eddington</text>
<path d="M-0.54 -0.89A0.6 0.6 0 1 1 0.54 -0.89C0.39 -0.56 0 -0.42 0 0C0 -0.42 -0.39 -0.56 -0.54 -0.89Z" transform="matrix(25,0,0,25,369.9219,248.097)" fill="rgb(227,73,2)" fill-opacity="0.8"></path>
<text dominant-baseline="central" text-anchor="middle" style="font-size:12px;font-family:sans-serif;" transform="translate(369.9219 221.9541)" fill="#eee" stroke="rgb(227,73,2)" stroke-width="2" paint-order="stroke" stroke-opacity="0.8" stroke-miterlimit="2">84</text>
<g clip-path="url(#zr0-c0)">
<path d="M60 270.8L63.8 270.6L67.5 270.4L71.2 270.1L75 269.9L78.7 269.7L82.4 269.5L86.2 269.3L89.9 269.1L93.6 268.9L97.4 268.7L101.1 268.4L104.8 268.2L108.6 268L112.3 267.8L116 267.6L119.8 267.4L123.5 267.2L127.2 267L131 266.7L134.7 266.5L138.4 266.3L142.2 266.1L145.9 265.9L149.6 265.7L153.4 265.5L157.1 265.2L160.8 265L164.6 264.8L168.3 264.6L172 264.4L175.8 264.2L179.5 264L183.2 263.8L187 263.5L190.7 263.3L194.4 263.1L198.2 262.9L201.9 262.7L205.6 262.5L209.4 262.3L213.1 262L216.8 261.8L220.6 261.6L224.3 261.4L228 261.2L231.8 261L235.5 260.8L239.2 260.6L243 260.3L246.7 260.1L250.4 259.9L254.2 259.7L257.9 259.5L261.6 259.3L265.4 259.1L269.1 258.9L272.8 258.6L276.6 258.4L280.3 258.2L284 258L287.8 257.8L291.5 257.6L295.2 257.4L299 257.1L302.7 256.9L306.4 256.7L310.2 256.5L313.9 256.3L317.7 256.1L321.4 255.9L325.1 255.7L328.9 255.4L332.6 255.2L336.3 255L340.1 254.8L343.8 254.6L347.5 254.4L351.3 254.2L355 253.9L358.7 253.7L362.5 253.5L366.2 253.3L369.9 253.1L373.7 252.9L377.4 252.7L381.1 252.5L384.9 252.2L388.6 252L392.3 251.8L396.1 251.6L399.8 251.4L403.5 251.2L407.3 251L411 250.8L414.7 250.5L418.5 250.3L422.2 250.1L425.9 249.9L429.7 249.7L433.4 249.5L437.1 249.3L440.9 249L444.6 248.8L448.3 248.6L452.1 248.4L455.8 248.2L459.5 248L463.3 247.8L467 247.6L470.7 247.3L474.5 247.1L478.2 246.9L481.9 246.7L485.7 246.5L489.4 246.3L493.1 246.1L496.9 245.9L500.6 245.6L504.3 245.4L508.1 245.2L511.8 245L515.5 244.8L519.3 244.6L523 244.4L526.7 244.1L530.5 243.9L534.2 243.7L537.9 243.5L541.7 243.3L545.4 243.1L549.1 242.9L552.9 242.7L556.6 242.4L560.3 242.2L564.1 242L567.8 241.8L571.5 241.6L575.3 241.4L579 241.2L582.7 240.9L586.5 240.7L590.2 240.5L593.9 240.3L597.7 240.1L601.4 239.9L605.1 239.7L608.9 239.5L612.6 239.2L616.3 239L620.1 238.8L623.8 238.6L627.5 238.4L631.3 238.2L635 238L638.7 237.8L642.5 237.5L646.2 237.3L649.9 237.1L653.7 236.9L657.4 236.7L661.1 236.5L664.9 236.3L668.6 236L672.3 235.8L676.1 235.6L679.8 235.4L683.6 235.2L687.3 235L691 234.8L694.8 234.6L698.5 234.3L702.2 234.1L706 233.9L709.7 233.7L713.4 233.5L717.2 233.3L720.9 233.1L724.6 232.8L728.4 232.6L732.1 232.4L735.8 232.2L739.6 232L743.3 231.8L747 231.6L750.8 231.4L754.5 231.1L758.2 230.9L762 230.7L765.7 230.5L769.4 230.3L773.2 230.1L776.9 229.9L780.6 229.7L784.4 229.4L788.1 229.2L791.8 229L795.6 228.8L799.3 228.6L803 228.4L806.8 228.2L810.5 227.9L814.2 227.7L818 227.5L821.7 227.3L825.4 227.1L829.2 226.9L832.9 226.7L836.6 226.5L840.4 226.2L844.1 226L847.8 225.8L851.6 225.6L855.3 225.4L859 225.2L862.8 225L866.5 224.8L870.2 224.5L874 224.3L877.7 224.1L881.4 223.9L885.2 223.7L888.9 223.5L892.6 223.3L896.4 223L900.1 222.8L903.8 222.6L907.6 222.4L911.3 222.2L915 222L918.8 221.8L922.5 221.6L926.2 221.3L930 221.1" fill="none" stroke="#E34902" stroke-width="2" stroke-linejoin="bevel"></path>
</g>
<defs >
<clipPath id="zr0-c0">
<path d="M57 59l876 0l0 213l-876 0Z" fill="#000"></path>
</clipPath>
</defs>
</svg>