<svg width="1000" height="300" xmlns="http://www.w3.org/2000/svg" xmlns:xlink="http://www.w3.org/1999/xlink" version="1.1" baseProfile="full" viewBox="0 0 1000 300">
<rect width="1000" height="300" x="0" y="0" id="0" fill="#ffffff"></rect>
<path d="M58.2 271.5L931.8 271.5" fill="none" stroke="#E0E6F1"></path>
<path d="M58.2 225.5L931.8 225.5" fill="none" stroke="#E0E6F1"></path>
<path d="M58.2 178.5L931.8 178.5" fill="none" stroke="#E0E6F1"></path>
<path d="M58.2 132.5L931.8 132.5" fill="none" stroke="#E0E6F1"></path>
<path d="M58.2 86.5L931.8 86.5" fill="none" stroke="#E0E6F1"></path>
<path d="M58.2 60.5L931.8 60.5" fill="none" stroke="#E0E6F1"></path>
<path d="M58.2 271.5L931.8 271.5" fill="none" stroke="#6E7079" stroke-linecap="round"></path>
<path d="M60.5 271L60.5 276" fill="none" stroke="#6E7079"></path>
<path d="M108.5 271L108.5 276" fill="none" stroke="#6E7079"></path>
<path d="M157.5 271L157.5 276" fill="none" stroke="#6E7079"></path>
<path d="M205.5 271L205.5 276" fill="none" stroke="#6E7079"></path>
<path d="M254.5 271L254.5 276" fill="none" stroke="#6E7079"></path>
<path d="M302.5 271L302.5 276" fill="none" stroke="#6E7079"></path>
<path d="M351.5 271L351.5 276" fill="none" stroke="#6E7079"></path>
<path d="M400.5 271L400.5 276" fill="none" stroke="#6E7079"></path>
<path d="M448.5 271L448.5 276" fill="none" stroke="#6E7079"></path>
<path d="M497.5 271L497.5 276" fill="none" stroke="#6E7079"></path>
<path d="M545.5 271L545.5 276" fill="none" stroke="#6E7079"></path>
<path d="M594.5 271L594.5 276" fill="none" stroke="#6E7079"></path>
<path d="M642.5 271L642.5 276" fill="none" stroke="#6E7079"></path>
<path d="M691.5 271L691.5 276" fill="none" stroke="#6E7079"></path>
<path d="M739.5 271L739.5 276" fill="none" stroke="#6E7079"></path>
<path d="M788.5 271L788.5 276" fill="none" stroke="#6E7079"></path>
<path d="M836.5 271L836.5 276" fill="none" stroke="#6E7079"></path>
<path d="M885.5 271L885.5 276" fill="none" stroke="#6E7079"></path>
<text dominant-baseline="central" text-anchor="end" style="font-size:12px;font-family:sans-serif;" transform="translate(50.16 271)" fill="#6E7079">0</text>
<text dominant-baseline="central" text-anchor="end" style="font-size:12px;font-family:sans-serif;" transform="translate(50.16 224.8438)" fill="#6E7079">210</text>
<text dominant-baseline="central" text-anchor="end" style="font-size:12px;font-family:sans-serif;" transform="translate(50.16 178.6875)" fill="#6E7079">420</text>
<text dominant-baseline="central" text-anchor="end" style="font-size:12px;font-family:sans-serif;" transform="translate(50.16 132.5313)" fill="#6E7079">630</text>
<text dominant-baseline="central" text-anchor="end" style="font-size:12px;font-family:sans-serif;" transform="translate(50.16 86.375)" fill="#6E7079">840</text>
<text dominant-baseline="central" text-anchor="end" style="font-size:12px;font-family:sans-serif;" transform="translate(50.16 60)" fill="#6E7079">960</text>
<text dominant-baseline="central" text-anchor="start" style="font-size:12px;font-family:sans-serif;" transform="translate(939.84 271)" fill="#6E7079">0</text>
<text dominant-baseline="central" text-anchor="start" style="font-size:12px;font-family:sans-serif;" transform="translate(939.84 224.8438)" fill="#6E7079">210</text>
<text dominant-baseline="central" text-anchor="start" style="font-size:12px;font-family:sans-serif;" transform="translate(939.84 178.6875)" fill="#6E7079">420</text>
<text dominant-baseline="central" text-anchor="start" style="font-size:12px;font-family:sans-serif;" transform="translate(939.84 132.5313)" fill="#6E7079">630</text>
<text dominant-baseline="central" text-anchor="start" style="font-size:12px;font-family:sans-serif;" transform="translate(939.84 86.375)" fill="#6E7079">840</text>
<text dominant-baseline="central" text-anchor="start" style="font-size:12px;font-family:sans-serif;" transform="translate(939.84 60)" fill="#6E7079">960</text>
<text dominant-baseline="central" text-anchor="middle" style="font-size:12px;font-family:sans-serif;" y="6" transform="translate(60.0268 279)" fill="#6E7079">1km</text>
<text dominant-baseline="central" text-anchor="middle" style="font-size:12px;font-family:sans-serif;" y="6" transform="translate(108.5646 279)" fill="#6E7079">14km</text>
<text dominant-baseline="central" text-anchor="middle" style="font-size:12px;font-family:sans-serif;" y="6" transform="translate(157.1024 279)" fill="#6E7079">27km</text>
<text dominant-baseline="central" text-anchor="middle" style="font-size:12px;font-family:sans-serif;" y="6" transform="translate(205.6402 279)" fill="#6E7079">40km</text>
<text dominant-baseline="central" text-anchor="middle" style="font-size:12px;font-family:sans-serif;" y="6" transform="translate(254.1779 279)" fill="#6E7079">53km</text>
<text dominant-baseline="central" text-anchor="middle" style="font-size:12px;font-family:sans-serif;" y="6" transform="translate(302.7157 279)" fill="#6E7079">66km</text>
<text dominant-baseline="central" text-anchor="middle" style="font-size:12px;font-family:sans-serif;" y="6" transform="translate(351.2535 279)" fill="#6E7079">79km</text>
<text dominant-baseline="central" text-anchor="middle" style="font-size:12px;font-family:sans-serif;" y="6" transform="translate(399.7913 279)" fill="#6E7079">92km</text>
<text dominant-baseline="central" text-anchor="middle" style="font-size:12px;font-family:sans-serif;" y="6" transform="translate(448.3291 279)" fill="#6E7079">105km</text>
<text dominant-baseline="central" text-anchor="middle" style="font-size:12px;font-family:sans-serif;" y="6" transform="translate(496.8668 279)" fill="#6E7079">118km</text>
<text dominant-baseline="central" text-anchor="middle" style="font-size:12px;font-family:sans-serif;" y="6" transform="translate(545.4046 279)" fill="#6E7079">131km</text>
<text dominant-baseline="central" text-anchor="middle" style="font-size:12px;font-family:sans-serif;" y="6" transform="translate(593.9424 279)" fill="#6E7079">144km</text>
<text dominant-baseline="central" text-anchor="middle" style="font-size:12px;font-family:sans-serif;" y="6" transform="translate(642.4802 279)" fill="#6E7079">157km</text>
<text dominant-baseline="central" text-anchor="middle" style="font-size:12px;font-family:sans-serif;" y="6" transform="translate(691.0179 279)" fill="#6E7079">170km</text>
<text dominant-baseline="central" text-anchor="middle" style="font-size:12px;font-family:sans-serif;" y="6" transform="translate(739.5557 279)" fill="#6E7079">183km</text>
<text dominant-baseline="central" text-anchor="middle" style="font-size:12px;font-family:sans-serif;" y="6" transform="translate(788.0935 279)" fill="#6E7079">196km</text>
<text dominant-baseline="central" text-anchor="middle" style="font-size:12px;font-family:sans-serif;" y="6" transform="translate(836.6313 279)" fill="#6E7079">209km</text>
<text dominant-baseline="central" text-anchor="middle" style="font-size:12px;font-family:sans-serif;" y="6" transform="translate(885.1691 279)" fill="#6E7079">222km</text>
<path d="M58.7 271l2.6 0l0 -205.3l-2.6 0Z" fill="rgb(227,73,2)" fill-opacity="0.3"></path>
<path d="M62.5 271l2.6 0l0 -205.3l-2.6 0Z" fill="rgb(227,73,2)" fill-opacity="0.3"></path>
<path d="M66.2 271l2.6 0l0 -204.8l-2.6 0Z" fill="rgb(227,73,2)" fill-opacity="0.3"></path>
<path d="M69.9 271l2.6 0l0 -204.6l-2.6 0Z" fill="rgb(227,73,2)" fill-opacity="0.3"></path>
<path d="M73.7 271l2.6 0l0 -203.5l-2.6 0Z" fill="rgb(227,73,2)" fill-opacity="0.3"></path>
<path d="M77.4 271l2.6 0l0 -203.1l-2.6 0Z" fill="rgb(227,73,2)" fill-opacity="0.3"></path>
<path d="M81.1 271l2.6 0l0 -201.8l-2.6 0Z" fill="rgb(227,73,2)" fill-opacity="0.3"></path>
<path d="M84.9 271l2.6 0l0 -200.7l-2.6 0Z" fill="rgb(227,73,2)" fill-opacity="0.3"></path>
<path d="M88.6 271l2.6 0l0 -199.6l-2.6 0Z" fill="rgb(227,73,2)" fill-opacity="0.3"></path>
<path d="M92.3 271l2.6 0l0 -198.7l-2.6 0Z" fill="rgb(227,73,2)" fill-opacity="0.3"></path>
<path d="M96.1 271l2.6 0l0 -197.4l-2.6 0Z" fill="rgb(227,73,2)" fill-opacity="0.3"></path>
<path d="M99.8 271l2.6 0l0 -196.5l-2.6 0Z" fill="rgb(227,73,2)" fill-opacity="0.3"></path>
<path d="M103.5 271l2.6 0l0 -195.4l-2.6 0Z" fill="rgb(227,73,2)" fill-opacity="0.3"></path>
<path d="M107.3 271l2.6 0l0 -193.2l-2.6 0Z" fill="rgb(227,73,2)" fill-opacity="0.3"></path>
<path d="M111 271l2.6 0l0 -190.6l-2.6 0Z" fill="rgb(227,73,2)" fill-opacity="0.3"></path>
<path d="M114.7 271l2.6 0l0 -181.3l-2.6 0Z" fill="rgb(227,73,2)" fill-opacity="0.3"></path>
<path d="M118.5 271l2.6 0l0 -167.3l-2.6 0Z" fill="rgb(227,73,2)" fill-opacity="0.3"></path>
<path d="M122.2 271l2.6 0l0 -141.8l-2.6 0Z" fill="rgb(227,73,2)" fill-opacity="0.3"></path>
<path d="M125.9 271l2.6 0l0 -131l-2.6 0Z" fill="rgb(227,73,2)" fill-opacity="0.3"></path>
<path d="M129.7 271l2.6 0l0 -126.4l-2.6 0Z" fill="rgb(227,73,2)" fill-opacity="0.3"></path>
<path d="M133.4 271l2.6 0l0 -123.5l-2.6 0Z" fill="rgb(227,73,2)" fill-opacity="0.3"></path>
<path d="M137.1 271l2.6 0l0 -120.7l-2.6 0Z" fill="rgb(227,73,2)" fill-opacity="0.3"></path>
<path d="M140.9 271l2.6 0l0 -118.5l-2.6 0Z" fill="rgb(227,73,2)" fill-opacity="0.3"></path>
<path d="M144.6 271l2.6 0l0 -116.7l-2.6 0Z" fill="rgb(227,73,2)" fill-opacity="0.3"></path>
<path d="M148.3 271l2.6 0l0 -112.5l-2.6 0Z" fill="rgb(227,73,2)" fill-opacity="0.3"></path>
<path d="M152.1 271l2.6 0l0 -108.1l-2.6 0Z" fill="rgb(227,73,2)" fill-opacity="0.3"></path>
<path d="M155.8 271l2.6 0l0 -105.1l-2.6 0Z" fill="rgb(227,73,2)" fill-opacity="0.3"></path>
<path d="M159.5 271l2.6 0l0 -100.9l-2.6 0Z" fill="rgb(227,73,2)" fill-opacity="0.3"></path>
<path d="M163.3 271l2.6 0l0 -95.8l-2.6 0Z" fill="rgb(227,73,2)" fill-opacity="0.3"></path>
<path d="M167 271l2.6 0l0 -93l-2.6 0Z" fill="rgb(227,73,2)" fill-opacity="0.3"></path>
<path d="M170.7 271l2.6 0l0 -87l-2.6 0Z" fill="rgb(227,73,2)" fill-opacity="0.3"></path>
<path d="M174.5 271l2.6 0l0 -79.8l-2.6 0Z" fill="rgb(227,73,2)" fill-opacity="0.3"></path>
<path d="M178.2 271l2.6 0l0 -75.8l-2.6 0Z" fill="rgb(227,73,2)" fill-opacity="0.3"></path>
<path d="M182 271l2.6 0l0 -72.1l-2.6 0Z" fill="rgb(227,73,2)" fill-opacity="0.3"></path>
<path d="M185.7 271l2.6 0l0 -69.9l-2.6 0Z" fill="rgb(227,73,2)" fill-opacity="0.3"></path>
<path d="M189.4 271l2.6 0l0 -67l-2.6 0Z" fill="rgb(227,73,2)" fill-opacity="0.3"></path>
<path d="M193.2 271l2.6 0l0 -65.9l-2.6 0Z" fill="rgb(227,73,2)" fill-opacity="0.3"></path>
<path d="M196.9 271l2.6 0l0 -64.4l-2.6 0Z" fill="rgb(227,73,2)" fill-opacity="0.3"></path>
<path d="M200.6 271l2.6 0l0 -63.5l-2.6 0Z" fill="rgb(227,73,2)" fill-opacity="0.3"></path>
<path d="M204.4 271l2.6 0l0 -62.6l-2.6 0Z" fill="rgb(227,73,2)" fill-opacity="0.3"></path>
<path d="M208.1 271l2.6 0l0 -60.4l-2.6 0Z" fill="rgb(227,73,2)" fill-opacity="0.3"></path>
<path d="M211.8 271l2.6 0l0 -59.1l-2.6 0Z" fill="rgb(227,73,2)" fill-opacity="0.3"></path>
<path d="M215.6 271l2.6 0l0 -55.8l-2.6 0Z" fill="rgb(227,73,2)" fill-opacity="0.3"></path>
<path d="M219.3 271l2.6 0l0 -54.3l-2.6 0Z" fill="rgb(227,73,2)" fill-opacity="0.3"></path>
<path d="M223 271l2.6 0l0 -52.7l-2.6 0Z" fill="rgb(227,73,2)" fill-opacity="0.3"></path>
<path d="M226.8 271l2.6 0l0 -50.8l-2.6 0Z" fill="rgb(227,73,2)" fill-opacity="0.3"></path>
<path d="M230.5 271l2.6 0l0 -48.6l-2.6 0Z" fill="rgb(227,73,2)" fill-opacity="0.3"></path>
<path d="M234.2 271l2.6 0l0 -46.8l-2.6 0Z" fill="rgb(227,73,2)" fill-opacity="0.3"></path>
<path d="M238 271l2.6 0l0 -45.7l-2.6 0Z" fill="rgb(227,73,2)" fill-opacity="0.3"></path>
<path d="M241.7 271l2.6 0l0 -44.8l-2.6 0Z" fill="rgb(227,73,2)" fill-opacity="0.3"></path>
<path d="M245.4 271l2.6 0l0 -42.4l-2.6 0Z" fill="rgb(227,73,2)" fill-opacity="0.3"></path>
<path d="M249.2 271l2.6 0l0 -41.5l-2.6 0Z" fill="rgb(227,73,2)" fill-opacity="0.3"></path>
<path d="M252.9 271l2.6 0l0 -40.4l-2.6 0Z" fill="rgb(227,73,2)" fill-opacity="0.3"></path>
<path d="M256.6 271l2.6 0l0 -39.1l-2.6 0Z" fill="rgb(227,73,2)" fill-opacity="0.3"></path>
<path d="M260.4 271l2.6 0l0 -38.2l-2.6 0Z" fill="rgb(227,73,2)" fill-opacity="0.3"></path>
<path d="M264.1 271l2.6 0l0 -37.1l-2.6 0Z" fill="rgb(227,73,2)" fill-opacity="0.3"></path>
<path d="M267.8 271l2.6 0l0 -36.5l-2.6 0Z" fill="rgb(227,73,2)" fill-opacity="0.3"></path>
<path d="M271.6 271l2.6 0l0 -36.5l-2.6 0Z" fill="rgb(227,73,2)" fill-opacity="0.3"></path>
<path d="M275.3 271l2.6 0l0 -35.2l-2.6 0Z" fill="rgb(227,73,2)" fill-opacity="0.3"></path>
<path d="M279 271l2.6 0l0 -34.5l-2.6 0Z" fill="rgb(227,73,2)" fill-opacity="0.3"></path>
<path d="M282.8 271l2.6 0l0 -33.4l-2.6 0Z" fill="rgb(227,73,2)" fill-opacity="0.3"></path>
<path d="M286.5 271l2.6 0l0 -32.1l-2.6 0Z" fill="rgb(227,73,2)" fill-opacity="0.3"></path>
<path d="M290.2 271l2.6 0l0 -31.4l-2.6 0Z" fill="rgb(227,73,2)" fill-opacity="0.3"></path>
<path d="M294 271l2.6 0l0 -30.6l-2.6 0Z" fill="rgb(227,73,2)" fill-opacity="0.3"></path>
<path d="M297.7 271l2.6 0l0 -29.5l-2.6 0Z" fill="rgb(227,73,2)" fill-opacity="0.3"></path>
<path d="M301.4 271l2.6 0l0 -29l-2.6 0Z" fill="rgb(227,73,2)" fill-opacity="0.3"></path>
<path d="M305.2 271l2.6 0l0 -28.6l-2.6 0Z" fill="rgb(227,73,2)" fill-opacity="0.3"></path>
<path d="M308.9 271l2.6 0l0 -28.6l-2.6 0Z" fill="rgb(227,73,2)" fill-opacity="0.3"></path>
<path d="M312.6 271l2.6 0l0 -27.3l-2.6 0Z" fill="rgb(227,73,2)" fill-opacity="0.3"></path>
<path d="M316.4 271l2.6 0l0 -26.6l-2.6 0Z" fill="rgb(227,73,2)" fill-opacity="0.3"></path>
<path d="M320.1 271l2.6 0l0 -26.2l-2.6 0Z" fill="rgb(227,73,2)" fill-opacity="0.3"></path>
<path d="M323.8 271l2.6 0l0 -25.7l-2.6 0Z" fill="rgb(227,73,2)" fill-opacity="0.3"></path>
<path d="M327.6 271l2.6 0l0 -25.3l-2.6 0Z" fill="rgb(227,73,2)" fill-opacity="0.3"></path>
<path d="M331.3 271l2.6 0l0 -25.1l-2.6 0Z" fill="rgb(227,73,2)" fill-opacity="0.3"></path>
<path d="M335 271l2.6 0l0 -24.6l-2.6 0Z" fill="rgb(227,73,2)" fill-opacity="0.3"></path>
<path d="M338.8 271l2.6 0l0 -23.1l-2.6 0Z" fill="rgb(227,73,2)" fill-opacity="0.3"></path>
<path d="M342.5 271l2.6 0l0 -22.6l-2.6 0Z" fill="rgb(227,73,2)" fill-opacity="0.3"></path>
<path d="M346.2 271l2.6 0l0 -21.8l-2.6 0Z" fill="rgb(227,73,2)" fill-opacity="0.3"></path>
<path d="M350 271l2.6 0l0 -21.5l-2.6 0Z" fill="rgb(227,73,2)" fill-opacity="0.3"></path>
<path d="M353.7 271l2.6 0l0 -21.1l-2.6 0Z" fill="rgb(227,73,2)" fill-opacity="0.3"></path>
<path d="M357.4 271l2.6 0l0 -20l-2.6 0Z" fill="rgb(227,73,2)" fill-opacity="0.3"></path>
<path d="M361.2 271l2.6 0l0 -19.3l-2.6 0Z" fill="rgb(227,73,2)" fill-opacity="0.3"></path>
<path d="M364.9 271l2.6 0l0 -18.5l-2.6 0Z" fill="rgb(227,73,2)" fill-opacity="0.8"></path>
<path d="M368.6 271l2.6 0l0 -17.6l-2.6 0Z" fill="rgb(227,73,2)" fill-opacity="0.3"></path>
<path d="M372.4 271l2.6 0l0 -16.5l-2.6 0Z" fill="rgb(227,73,2)" fill-opacity="0.3"></path>
<path d="M376.1 271l2.6 0l0 -16l-2.6 0Z" fill="rgb(227,73,2)" fill-opacity="0.3"></path>
<path d="M379.8 271l2.6 0l0 -15.4l-2.6 0Z" fill="rgb(227,73,2)" fill-opacity="0.3"></path>
<path d="M383.6 271l2.6 0l0 -14.5l-2.6 0Z" fill="rgb(227,73,2)" fill-opacity="0.3"></path>
<path d="M387.3 271l2.6 0l0 -14.1l-2.6 0Z" fill="rgb(227,73,2)" fill-opacity="0.3"></path>
<path d="M391 271l2.6 0l0 -13.6l-2.6 0Z" fill="rgb(227,73,2)" fill-opacity="0.3"></path>
<path d="M394.8 271l2.6 0l0 -13.2l-2.6 0Z" fill="rgb(227,73,2)" fill-opacity="0.3"></path>
<path d="M398.5 271l2.6 0l0 -12.7l-2.6 0Z" fill="rgb(227,73,2)" fill-opacity="0.3"></path>
<path d="M402.2 271l2.6 0l0 -11.9l-2.6 0Z" fill="rgb(227,73,2)" fill-opacity="0.3"></path>
<path d="M406 271l2.6 0l0 -11.2l-2.6 0Z" fill="rgb(227,73,2)" fill-opacity="0.3"></path>
<path d="M409.7 271l2.6 0l0 -10.6l-2.6 0Z" fill="rgb(227,73,2)" fill-opacity="0.3"></path>
<path d="M413.4 271l2.6 0l0 -10.6l-2.6 0Z" fill="rgb(227,73,2)" fill-opacity="0.3"></path>
<path d="M417.2 271l2.6 0l0 -10.6l-2.6 0Z" fill="rgb(227,73,2)" fill-opacity="0.3"></path>
<path d="M420.9 271l2.6 0l0 -10.3l-2.6 0Z" fill="rgb(227,73,2)" fill-opacity="0.3"></path>
<path d="M424.6 271l2.6 0l0 -9.9l-2.6 0Z" fill="rgb(227,73,2)" fill-opacity="0.3"></path>
<path d="M428.4 271l2.6 0l0 -9.9l-2.6 0Z" fill="rgb(227,73,2)" fill-opacity="0.3"></path>
<path d="M432.1 271l2.6 0l0 -7.9l-2.6 0Z" fill="rgb(227,73,2)" fill-opacity="0.3"></path>
<path d="M435.8 271l2.6 0l0 -7l-2.6 0Z" fill="rgb(227,73,2)" fill-opacity="0.3"></path>
<path d="M439.6 271l2.6 0l0 -6.8l-2.6 0Z" fill="rgb(227,73,2)" fill-opacity="0.3"></path>
<path d="M443.3 271l2.6 0l0 -6.4l-2.6 0Z" fill="rgb(227,73,2)" fill-opacity="0.3"></path>
<path d="M447 271l2.6 0l0 -6.2l-2.6 0Z" fill="rgb(227,73,2)" fill-opacity="0.3"></path>
<path d="M450.8 271l2.6 0l0 -6.2l-2.6 0Z" fill="rgb(227,73,2)" fill-opacity="0.3"></path>
<path d="M454.5 271l2.6 0l0 -5.5l-2.6 0Z" fill="rgb(227,73,2)" fill-opacity="0.3"></path>
<path d="M458.2 271l2.6 0l0 -5.5l-2.6 0Z" fill="rgb(227,73,2)" fill-opacity="0.3"></path>
<path d="M462 271l2.6 0l0 -5.5l-2.6 0Z" fill="rgb(227,73,2)" fill-opacity="0.3"></path>
<path d="M465.7 271l2.6 0l0 -5.3l-2.6 0Z" fill="rgb(227,73,2)" fill-opacity="0.3"></path>
<path d="M469.4 271l2.6 0l0 -5.1l-2.6 0Z" fill="rgb(227,73,2)" fill-opacity="0.3"></path>
<path d="M473.2 271l2.6 0l0 -4.6l-2.6 0Z" fill="rgb(227,73,2)" fill-opacity="0.3"></path>
<path d="M476.9 271l2.6 0l0 -4.2l-2.6 0Z" fill="rgb(227,73,2)" fill-opacity="0.3"></path>
<path d="M480.6 271l2.6 0l0 -4l-2.6 0Z" fill="rgb(227,73,2)" fill-opacity="0.3"></path>
<path d="M484.4 271l2.6 0l0 -4l-2.6 0Z" fill="rgb(227,73,2)" fill-opacity="0.3"></path>
<path d="M488.1 271l2.6 0l0 -3.7l-2.6 0Z" fill="rgb(227,73,2)" fill-opacity="0.3"></path>
<path d="M491.8 271l2.6 0l0 -3.7l-2.6 0Z" fill="rgb(227,73,2)" fill-opacity="0.3"></path>
<path d="M495.6 271l2.6 0l0 -3.7l-2.6 0Z" fill="rgb(227,73,2)" fill-opacity="0.3"></path>
<path d="M499.3 271l2.6 0l0 -3.3l-2.6 0Z" fill="rgb(227,73,2)" fill-opacity="0.3"></path>
<path d="M503 271l2.6 0l0 -3.3l-2.6 0Z" fill="rgb(227,73,2)" fill-opacity="0.3"></path>
<path d="M506.8 271l2.6 0l0 -3.3l-2.6 0Z" fill="rgb(227,73,2)" fill-opacity="0.3"></path>
<path d="M510.5 271l2.6 0l0 -3.1l-2.6 0Z" fill="rgb(227,73,2)" fill-opacity="0.3"></path>
<path d="M514.2 271l2.6 0l0 -3.1l-2.6 0Z" fill="rgb(227,73,2)" fill-opacity="0.3"></path>
<path d="M518 271l2.6 0l0 -3.1l-2.6 0Z" fill="rgb(227,73,2)" fill-opacity="0.3"></path>
<path d="M521.7 271l2.6 0l0 -3.1l-2.6 0Z" fill="rgb(227,73,2)" fill-opacity="0.3"></path>
<path d="M525.4 271l2.6 0l0 -2.9l-2.6 0Z" fill="rgb(227,73,2)" fill-opacity="0.3"></path>
<path d="M529.2 271l2.6 0l0 -2.9l-2.6 0Z" fill="rgb(227,73,2)" fill-opacity="0.3"></path>
<path d="M532.9 271l2.6 0l0 -2.9l-2.6 0Z" fill="rgb(227,73,2)" fill-opacity="0.3"></path>
<path d="M536.6 271l2.6 0l0 -2.6l-2.6 0Z" fill="rgb(227,73,2)" fill-opacity="0.3"></path>
<path d="M540.4 271l2.6 0l0 -2.6l-2.6 0Z" fill="rgb(227,73,2)" fill-opacity="0.3"></path>
<path d="M544.1 271l2.6 0l0 -2.6l-2.6 0Z" fill="rgb(227,73,2)" fill-opacity="0.3"></path>
<path d="M547.9 271l2.6 0l0 -2.6l-2.6 0Z" fill="rgb(227,73,2)" fill-opacity="0.3"></path>
<path d="M551.6 271l2.6 0l0 -2.6l-2.6 0Z" fill="rgb(227,73,2)" fill-opacity="0.3"></path>
<path d="M555.3 271l2.6 0l0 -2.4l-2.6 0Z" fill="rgb(227,73,2)" fill-opacity="0.3"></path>
<path d="M559.1 271l2.6 0l0 -2.4l-2.6 0Z" fill="rgb(227,73,2)" fill-opacity="0.3"></path>
<path d="M562.8 271l2.6 0l0 -2.4l-2.6 0Z" fill="rgb(227,73,2)" fill-opacity="0.3"></path>
<path d="M566.5 271l2.6 0l0 -2.4l-2.6 0Z" fill="rgb(227,73,2)" fill-opacity="0.3"></path>
<path d="M570.3 271l2.6 0l0 -2.2l-2.6 0Z" fill="rgb(227,73,2)" fill-opacity="0.3"></path>
<path d="M574 271l2.6 0l0 -2.2l-2.6 0Z" fill="rgb(227,73,2)" fill-opacity="0.3"></path>
<path d="M577.7 271l2.6 0l0 -2.2l-2.6 0Z" fill="rgb(227,73,2)" fill-opacity="0.3"></path>
<path d="M581.5 271l2.6 0l0 -2l-2.6 0Z" fill="rgb(227,73,2)" fill-opacity="0.3"></path>
<path d="M585.2 271l2.6 0l0 -2l-2.6 0Z" fill="rgb(227,73,2)" fill-opacity="0.3"></path>
<path d="M588.9 271l2.6 0l0 -2l-2.6 0Z" fill="rgb(227,73,2)" fill-opacity="0.3"></path>
<path d="M592.7 271l2.6 0l0 -2l-2.6 0Z" fill="rgb(227,73,2)" fill-opacity="0.3"></path>
<path d="M596.4 271l2.6 0l0 -2l-2.6 0Z" fill="rgb(227,73,2)" fill-opacity="0.3"></path>
<path d="M600.1 271l2.6 0l0 -2l-2.6 0Z" fill="rgb(227,73,2)" fill-opacity="0.3"></path>
<path d="M603.9 271l2.6 0l0 -2l-2.6 0Z" fill="rgb(227,73,2)" fill-opacity="0.3"></path>
<path d="M607.6 271l2.6 0l0 -2l-2.6 0Z" fill="rgb(227,73,2)" fill-opacity="0.3"></path>
<path d="M611.3 271l2.6 0l0 -2l-2.6 0Z" fill="rgb(227,73,2)" fill-opacity="0.3"></path>
<path d="M615.1 271l2.6 0l0 -2l-2.6 0Z" fill="rgb(227,73,2)" fill-opacity="0.3"></path>
<path d="M618.8 271l2.6 0l0 -1.8l-2.6 0Z" fill="rgb(227,73,2)" fill-opacity="0.3"></path>
<path d="M622.5 271l2.6 0l0 -1.8l-2.6 0Z" fill="rgb(227,73,2)" fill-opacity="0.3"></path>
<path d="M626.3 271l2.6 0l0 -1.5l-2.6 0Z" fill="rgb(227,73,2)" fill-opacity="0.3"></path>
<path d="M630 271l2.6 0l0 -1.5l-2.6 0Z" fill="rgb(227,73,2)" fill-opacity="0.3"></path>
<path d="M633.7 271l2.6 0l0 -1.5l-2.6 0Z" fill="rgb(227,73,2)" fill-opacity="0.3"></path>
<path d="M637.5 271l2.6 0l0 -1.5l-2.6 0Z" fill="rgb(227,73,2)" fill-opacity="0.3"></path>
<path d="M641.2 271l2.6 0l0 -1.5l-2.6 0Z" fill="rgb(227,73,2)" fill-opacity="0.3"></path>
<path d="M644.9 271l2.6 0l0 -1.5l-2.6 0Z" fill="rgb(227,73,2)" fill-opacity="0.3"></path>
<path d="M648.7 271l2.6 0l0 -1.5l-2.6 0Z" fill="rgb(227,73,2)" fill-opacity="0.3"></path>
<path d="M652.4 271l2.6 0l0 -1.5l-2.6 0Z" fill="rgb(227,73,2)" fill-opacity="0.3"></path>
<path d="M656.1 271l2.6 0l0 -1.1l-2.6 0Z" fill="rgb(227,73,2)" fill-opacity="0.3"></path>
<path d="M659.9 271l2.6 0l0 -1.1l-2.6 0Z" fill="rgb(227,73,2)" fill-opacity="0.3"></path>
<path d="M663.6 271l2.6 0l0 -1.1l-2.6 0Z" fill="rgb(227,73,2)" fill-opacity="0.3"></path>
<path d="M667.3 271l2.6 0l0 -1.1l-2.6 0Z" fill="rgb(227,73,2)" fill-opacity="0.3"></path>
<path d="M671.1 271l2.6 0l0 -1.1l-2.6 0Z" fill="rgb(227,73,2)" fill-opacity="0.3"></path>
<path d="M674.8 271l2.6 0l0 -1.1l-2.6 0Z" fill="rgb(227,73,2)" fill-opacity="0.3"></path>
<path d="M678.5 271l2.6 0l0 -1.1l-2.6 0Z" fill="rgb(227,73,2)" fill-opacity="0.3"></path>
<path d="M682.3 271l2.6 0l0 -1.1l-2.6 0Z" fill="rgb(227,73,2)" fill-opacity="0.3"></path>
<path d="M686 271l2.6 0l0 -1.1l-2.6 0Z" fill="rgb(227,73,2)" fill-opacity="0.3"></path>
<path d="M689.7 271l2.6 0l0 -1.1l-2.6 0Z" fill="rgb(227,73,2)" fill-opacity="0.3"></path>
<path d="M693.5 271l2.6 0l0 -1.1l-2.6 0Z" fill="rgb(227,73,2)" fill-opacity="0.3"></path>
<path d="M697.2 271l2.6 0l0 -1.1l-2.6 0Z" fill="rgb(227,73,2)" fill-opacity="0.3"></path>
<path d="M700.9 271l2.6 0l0 -1.1l-2.6 0Z" fill="rgb(227,73,2)" fill-opacity="0.3"></path>
<path d="M704.7 271l2.6 0l0 -1.1l-2.6 0Z" fill="rgb(227,73,2)" fill-opacity="0.3"></path>
<path d="M708.4 271l2.6 0l0 -1.1l-2.6 0Z" fill="rgb(227,73,2)" fill-opacity="0.3"></path>
<path d="M712.1 271l2.6 0l0 -1.1l-2.6 0Z" fill="rgb(227,73,2)" fill-opacity="0.3"></path>
<path d="M715.9 271l2.6 0l0 -1.1l-2.6 0Z" fill="rgb(227,73,2)" fill-opacity="0.3"></path>
<path d="M719.6 271l2.6 0l0 -1.1l-2.6 0Z" fill="rgb(227,73,2)" fill-opacity="0.3"></path>
<path d="M723.3 271l2.6 0l0 -1.1l-2.6 0Z" fill="rgb(227,73,2)" fill-opacity="0.3"></path>
<path d="M727.1 271l2.6 0l0 -1.1l-2.6 0Z" fill="rgb(227,73,2)" fill-opacity="0.3"></path>
<path d="M730.8 271l2.6 0l0 -0.9l-2.6 0Z" fill="rgb(227,73,2)" fill-opacity="0.3"></path>
<path d="M734.5 271l2.6 0l0 -0.9l-2.6 0Z" fill="rgb(227,73,2)" fill-opacity="0.3"></path>
<path d="M738.3 271l2.6 0l0 -0.9l-2.6 0Z" fill="rgb(227,73,2)" fill-opacity="0.3"></path>
<path d="M742 271l2.6 0l0 -0.9l-2.6 0Z" fill="rgb(227,73,2)" fill-opacity="0.3"></path>
<path d="M745.7 271l2.6 0l0 -0.9l-2.6 0Z" fill="rgb(227,73,2)" fill-opacity="0.3"></path>
<path d="M749.5 271l2.6 0l0 -0.9l-2.6 0Z" fill="rgb(227,73,2)" fill-opacity="0.3"></path>
<path d="M753.2 271l2.6 0l0 -0.9l-2.6 0Z" fill="rgb(227,73,2)" fill-opacity="0.3"></path>
<path d="M756.9 271l2.6 0l0 -0.9l-2.6 0Z" fill="rgb(227,73,2)" fill-opacity="0.3"></path>
<path d="M760.7 271l2.6 0l0 -0.9l-2.6 0Z" fill="rgb(227,73,2)" fill-opacity="0.3"></path>
<path d="M764.4 271l2.6 0l0 -0.7l-2.6 0Z" fill="rgb(227,73,2)" fill-opacity="0.3"></path>
<path d="M768.1 271l2.6 0l0 -0.7l-2.6 0Z" fill="rgb(227,73,2)" fill-opacity="0.3"></path>
<path d="M771.9 271l2.6 0l0 -0.7l-2.6 0Z" fill="rgb(227,73,2)" fill-opacity="0.3"></path>
<path d="M775.6 271l2.6 0l0 -0.7l-2.6 0Z" fill="rgb(227,73,2)" fill-opacity="0.3"></path>
<path d="M779.3 271l2.6 0l0 -0.7l-2.6 0Z" fill="rgb(227,73,2)" fill-opacity="0.3"></path>
<path d="M783.1 271l2.6 0l0 -0.7l-2.6 0Z" fill="rgb(227,73,2)" fill-opacity="0.3"></path>
<path d="M786.8 271l2.6 0l0 -0.7l-2.6 0Z" fill="rgb(227,73,2)" fill-opacity="0.3"></path>
<path d="M790.5 271l2.6 0l0 -0.7l-2.6 0Z" fill="rgb(227,73,2)" fill-opacity="0.3"></path>
<path d="M794.3 271l2.6 0l0 -0.7l-2.6 0Z" fill="rgb(227,73,2)" fill-opacity="0.3"></path>
<path d="M798 271l2.6 0l0 -0.7l-2.6 0Z" fill="rgb(227,73,2)" fill-opacity="0.3"></path>
<path d="M801.7 271l2.6 0l0 -0.7l-2.6 0Z" fill="rgb(227,73,2)" fill-opacity="0.3"></path>
<path d="M805.5 271l2.6 0l0 -0.7l-2.6 0Z" fill="rgb(227,73,2)" fill-opacity="0.3"></path>
<path d="M809.2 271l2.6 0l0 -0.4l-2.6 0Z" fill="rgb(227,73,2)" fill-opacity="0.3"></path>
<path d="M812.9 271l2.6 0l0 -0.4l-2.6 0Z" fill="rgb(227,73,2)" fill-opacity="0.3"></path>
<path d="M816.7 271l2.6 0l0 -0.4l-2.6 0Z" fill="rgb(227,73,2)" fill-opacity="0.3"></path>
<path d="M820.4 271l2.6 0l0 -0.4l-2.6 0Z" fill="rgb(227,73,2)" fill-opacity="0.3"></path>
<path d="M824.1 271l2.6 0l0 -0.4l-2.6 0Z" fill="rgb(227,73,2)" fill-opacity="0.3"></path>
<path d="M827.9 271l2.6 0l0 -0.4l-2.6 0Z" fill="rgb(227,73,2)" fill-opacity="0.3"></path>
<path d="M831.6 271l2.6 0l0 -0.4l-2.6 0Z" fill="rgb(227,73,2)" fill-opacity="0.3"></path>
<path d="M835.3 271l2.6 0l0 -0.4l-2.6 0Z" fill="rgb(227,73,2)" fill-opacity="0.3"></path>
<path d="M839.1 271l2.6 0l0 -0.4l-2.6 0Z" fill="rgb(227,73,2)" fill-opacity="0.3"></path>
<path d="M842.8 271l2.6 0l0 -0.4l-2.6 0Z" fill="rgb(227,73,2)" fill-opacity="0.3"></path>
<path d="M846.5 271l2.6 0l0 -0.4l-2.6 0Z" fill="rgb(227,73,2)" fill-opacity="0.3"></path>
<path d="M850.3 271l2.6 0l0 -0.4l-2.6 0Z" fill="rgb(227,73,2)" fill-opacity="0.3"></path>
<path d="M854 271l2.6 0l0 -0.4l-2.6 0Z" fill="rgb(227,73,2)" fill-opacity="0.3"></path>
<path d="M857.7 271l2.6 0l0 -0.4l-2.6 0Z" fill="rgb(227,73,2)" fill-opacity="0.3"></path>
<path d="M861.5 271l2.6 0l0 -0.4l-2.6 0Z" fill="rgb(227,73,2)" fill-opacity="0.3"></path>
<path d="M865.2 271l2.6 0l0 -0.4l-2.6 0Z" fill="rgb(227,73,2)" fill-opacity="0.3"></path>
<path d="M868.9 271l2.6 0l0 -0.4l-2.6 0Z" fill="rgb(227,73,2)" fill-opacity="0.3"></path>
<path d="M872.7 271l2.6 0l0 -0.4l-2.6 0Z" fill="rgb(227,73,2)" fill-opacity="0.3"></path>
<path d="M876.4 271l2.6 0l0 -0.4l-2.6 0Z" fill="rgb(227,73,2)" fill-opacity="0.3"></path>
<path d="M880.1 271l2.6 0l0 -0.4l-2.6 0Z" fill="rgb(227,73,2)" fill-opacity="0.3"></path>
<path d="M883.9 271l2.6 0l0 -0.4l-2.6 0Z" fill="rgb(227,73,2)" fill-opacity="0.3"></path>
<path d="M887.6 271l2.6 0l0 -0.2l-2.6 0Z" fill="rgb(227,73,2)" fill-opacity="0.3"></path>
<path d="M891.3 271l2.6 0l0 -0.2l-2.6 0Z" fill="rgb(227,73,2)" fill-opacity="0.3"></path>
<path d="M895.1 271l2.6 0l0 -0.2l-2.6 0Z" fill="rgb(227,73,2)" fill-opacity="0.3"></path>
<path d="M898.8 271l2.6 0l0 -0.2l-2.6 0Z" fill="rgb(227,73,2)" fill-opacity="0.3"></path>
<path d="M902.5 271l2.6 0l0 -0.2l-2.6 0Z" fill="rgb(227,73,2)" fill-opacity="0.3"></path>
<path d="M906.3 271l2.6 0l0 -0.2l-2.6 0Z" fill="rgb(227,73,2)" fill-opacity="0.3"></path>
<path d="M910 271l2.6 0l0 -0.2l-2.6 0Z" fill="rgb(227,73,2)" fill-opacity="0.3"></path>
<path d="M913.8 271l2.6 0l0 -0.2l-2.6 0Z" fill="rgb(227,73,2)" fill-opacity="0.3"></path>
<path d="M917.5 271l2.6 0l0 -0.2l-2.6 0Z" fill="rgb(227,73,2)" fill-opacity="0.3"></path>
<path d="M921.2 271l2.6 0l0 -0.2l-2.6 0Z" fill="rgb(227,73,2)" fill-opacity="0.3"></path>
<path d="M925 271l2.6 0l0 -0.2l-2.6 0Z" fill="rgb(227,73,2)" fill-opacity="0.3"></path>
<path d="M928.7 271l2.6 0l0 -0.2l-2.6 0Z" fill="rgb(227,73,2)" fill-opacity="0.3"></path>
<path d="M-5 -5l226.9 0l0 24l-226.9 0Z" transform="translate(391.54 5)" fill="rgb(0,0,0)" fill-opacity="0" stroke="#ccc" stroke-width="0"></path>
<path d="M3.5 0L21.5 0A3.5 3.5 0 0 1 25 3.5L25 10.5A3.5 3.5 0 0 1 21.5 14L3.5 14A3.5 3.5 0 0 1 0 10.5L0 3.5A3.5 3.5 0 0 1 3.5 0" transform="translate(391.54 5)" fill="rgb(227,73,2)" fill-opacity="0.3"></path>
<text dominant-baseline="central" text-anchor="start" style="font-size:12px;font-family:sans-serif;" xml:space="preserve" x="30" y="7" transform="translate(391.54 5)" fill="#333">Times completed</text>
<path d="M0 7L25 7" transform="translate(524.1 5)" fill="#000" stroke="#E34902" stroke-width="2" stroke-linecap="butt" stroke-miterlimit="10"></path>
<path d="M18.1 7A5.6 5.6 0 1 1 18.1 6.4A5.6 5.6 0 0 1 18.1 7" transform="translate(524.1 5)" fill="#fff" stroke="#E34902" stroke-width="2" stroke-linecap="butt" stroke-miterlimit="10"></path>
<text dominant-baseline="central" text-anchor="start" style="font-size:12px;font-family:sans-serif;" x="30" y="7" transform="translate(524.1 5)" fill="#333">Eddington</text>
<path d="M-0.54 -0.89A0.6 0.6 0 1 1 0.54 -0.89C0.39 -0.56 0 -0.42 0 0C0 -0.42 -0.39 -0.56 -0.54 -0.89Z" transform="matrix(25,0,0,25,366.1882,247.7573)" fill="rgb(227,73,2)" fill-opacity="0.8"></path>
<text dominant-baseline="central" text-anchor="middle" style="font-size:12px;font-family:sans-serif;" transform="translate(366.1882 221.6144)" fill="#eee" stroke="rgb(227,73,2)" stroke-width="2" paint-order="stroke" stroke-opacity="0.8" stroke-miterlimit="2">83</text>
<g clip-path="url(#zr0-c0)">
<path d="M60 270.8L63.8 270.6L67.5 270.3L71.2 270.1L75 269.9L78.7 269.7L82.4 269.5L86.2 269.2L89.9 269L93.6 268.8L97.4 268.6L101.1 268.4L104.8 268.1L108.6 267.9L112.3 267.7L116 267.5L119.8 267.3L123.5 267L127.2 266.8L131 266.6L134.7 266.4L138.4 266.2L142.2 265.9L145.9 265.7L149.6 265.5L153.4 265.3L157.1 265.1L160.8 264.8L164.6 264.6L168.3 264.4L172 264.2L175.8 264L179.5 263.7L183.2 263.5L187 263.3L190.7 263.1L194.4 262.9L198.2 262.6L201.9 262.4L205.6 262.2L209.4 262L213.1 261.8L216.8 261.5L220.6 261.3L224.3 261.1L228 260.9L231.8 260.7L235.5 260.5L239.2 260.2L243 260L246.7 259.8L250.4 259.6L254.2 259.4L257.9 259.1L261.6 258.9L265.4 258.7L269.1 258.5L272.8 258.3L276.6 258L280.3 257.8L284 257.6L287.8 257.4L291.5 257.2L295.2 256.9L299 256.7L302.7 256.5L306.4 256.3L310.2 256.1L313.9 255.8L317.7 255.6L321.4 255.4L325.1 255.2L328.9 255L332.6 254.7L336.3 254.5L340.1 254.3L343.8 254.1L347.5 253.9L351.3 253.6L355 253.4L358.7 253.2L362.5 253L366.2 252.8L369.9 252.5L373.7 252.3L377.4 252.1L381.1 251.9L384.9 251.7L388.6 251.4L392.3 251.2L396.1 251L399.8 250.8L403.5 250.6L407.3 250.3L411 250.1L414.7 249.9L418.5 249.7L422.2 249.5L425.9 249.2L429.7 249L433.4 248.8L437.1 248.6L440.9 248.4L444.6 248.1L448.3 247.9L452.1 247.7L455.8 247.5L459.5 247.3L463.3 247L467 246.8L470.7 246.6L474.5 246.4L478.2 246.2L481.9 245.9L485.7 245.7L489.4 245.5L493.1 245.3L496.9 245.1L500.6 244.8L504.3 244.6L508.1 244.4L511.8 244.2L515.5 244L519.3 243.7L523 243.5L526.7 243.3L530.5 243.1L534.2 242.9L537.9 242.6L541.7 242.4L545.4 242.2L549.1 242L552.9 241.8L556.6 241.5L560.3 241.3L564.1 241.1L567.8 240.9L571.5 240.7L575.3 240.4L579 240.2L582.7 240L586.5 239.8L590.2 239.6L593.9 239.4L597.7 239.1L601.4 238.9L605.1 238.7L608.9 238.5L612.6 238.3L616.3 238L620.1 237.8L623.8 237.6L627.5 237.4L631.3 237.2L635 236.9L638.7 236.7L642.5 236.5L646.2 236.3L649.9 236.1L653.7 235.8L657.4 235.6L661.1 235.4L664.9 235.2L668.6 235L672.3 234.7L676.1 234.5L679.8 234.3L683.6 234.1L687.3 233.9L691 233.6L694.8 233.4L698.5 233.2L702.2 233L706 232.8L709.7 232.5L713.4 232.3L717.2 232.1L720.9 231.9L724.6 231.7L728.4 231.4L732.1 231.2L735.8 231L739.6 230.8L743.3 230.6L747 230.3L750.8 230.1L754.5 229.9L758.2 229.7L762 229.5L765.7 229.2L769.4 229L773.2 228.8L776.9 228.6L780.6 228.4L784.4 228.1L788.1 227.9L791.8 227.7L795.6 227.5L799.3 227.3L803 227L806.8 226.8L810.5 226.6L814.2 226.4L818 226.2L821.7 225.9L825.4 225.7L829.2 225.5L832.9 225.3L836.6 225.1L840.4 224.8L844.1 224.6L847.8 224.4L851.6 224.2L855.3 224L859 223.7L862.8 223.5L866.5 223.3L870.2 223.1L874 222.9L877.7 222.6L881.4 222.4L885.2 222.2L888.9 222L892.6 221.8L896.4 221.5L900.1 221.3L903.8 221.1L907.6 220.9L911.3 220.7L915 220.4L918.8 220.2L922.5 220L926.2 219.8L930 219.6" fill="none" stroke="#E34902" stroke-width="2" stroke-linejoin="bevel"></path>
</g>
<defs >
<clipPath id="zr0-c0">
<path d="M57 59l876 0l0 213l-876 0Z" fill="#000"></path>
</clipPath>
</defs>
</svg>